<?xml version="1.0" encoding="UTF-8"?>
<svg id="Layer_1" data-name="Layer 1" xmlns="http://www.w3.org/2000/svg" viewBox="0 0 764 321">
  <defs>
    <style>
      .cls-1 {
        fill: #2d5350;
      }

      .cls-2 {
        fill: #1e6b7a;
      }

      .cls-3 {
        fill: #d94a2e;
      }

      .cls-4 {
        fill: #d22a31;
      }

      .cls-5 {
        fill: #cb312d;
      }

      .cls-6 {
        fill: #238a87;
      }

      .cls-7 {
        fill: #208184;
      }

      .cls-8 {
        fill: #206778;
      }

      .cls-9 {
        fill: #315552;
      }

      .cls-10 {
        fill: #cf382c;
      }

      .cls-11 {
        fill: #cd262f;
      }

      .cls-12 {
        fill: #215971;
      }

      .cls-13 {
        fill: #d0262f;
      }

      .cls-14 {
        fill: #d13c2c;
      }

      .cls-15 {
        fill: #c52b2e;
      }

      .cls-16 {
        fill: #fffffe;
      }

      .cls-17 {
        fill: #204c49;
      }

      .cls-18 {
        fill: #1e717d;
      }

      .cls-19 {
        fill: #2f5451;
      }

      .cls-20 {
        fill: #1f7f83;
      }

      .cls-21 {
        fill: #1d777f;
      }

      .cls-22 {
        fill: #d9462c;
      }

      .cls-23 {
        fill: #de2b32;
      }

      .cls-24 {
        fill: #1c727d;
      }

      .cls-25 {
        fill: #ea3437;
      }

      .cls-26 {
        fill: #226377;
      }
    </style>
  </defs>
  <path class="cls-25" d="M92.36,200.84c-.48,.04-.95,.12-1.43,.12-15.35,0-30.7,.03-46.05-.01-7.56-.02-13.89-5.12-15.66-12.42-.68-2.78-.35-5.57-.06-8.35,.92-8.66,1.87-17.32,2.81-25.98,1.05-9.61,2.13-19.22,3.15-28.83,.4-3.82,.64-7.66,2-11.29,4.96-13.33,14.45-21.32,28.41-23.95,1.48-.28,3.03-.28,4.54-.28,10.95-.02,21.91-.02,32.86-.01,.47,0,.95,.09,1.42,.14-.03,.95,.01,1.92-.1,2.86-.42,3.77-.93,7.52-1.34,11.29-.38,3.54-.65,7.09-1.03,10.62-.42,3.85-.91,7.68-1.37,11.52-6.39,.04-12.77,.07-19.16,.1-1.98,0-3.96,0-6.11,0-2.2,18.32-4.37,36.44-6.59,54.9,1,.04,1.83,.1,2.67,.1,6.87,0,13.74,0,20.61,0,.79,0,1.58,.11,2.37,.17-.05,1.51-.02,3.02-.16,4.52-.22,2.35-.54,4.69-.83,7.04-.32,2.58-.64,5.16-.96,7.74Z"/>
  <path class="cls-25" d="M225.25,101.32c-6.06,.04-12.12,.08-18.18,.1-2.62,.01-5.25,0-8.12,0-2.19,18.29-4.37,36.46-6.6,55,1.09,0,1.94,0,2.78,0,7.02,0,14.04-.01,21.07,0,.79,0,1.58,.11,2.36,.17-.18,2.28-.33,4.57-.54,6.85-.15,1.65-.4,3.29-.58,4.93-.28,2.5-.55,5.01-.82,7.51-.87,.05-1.74,.14-2.61,.14-13.25,0-26.5,0-39.75,0-.88,0-1.75,.04-2.63,.05-3.33-3.84-6.69-7.67-10.79-10.71-2.73-2.03-5.63-3.84-8.45-5.76,1.17-11.07,2.35-22.15,3.52-33.22,.93-.14,1.86-.36,2.79-.41,3.84-.21,7.44-1.29,10.91-2.9,1.73-.94,3.49-1.84,5.19-2.84,4.29-2.51,8.13-5.49,11.24-9.46,4.27-5.44,7.11-11.49,8.46-18.24,.15-.74,.02-1.53,.02-2.56h-22.03c-4.04-.03-8.08-.06-12.13-.09,.28-.66,.58-1.31,.85-1.97,5.15-12.44,14.27-20.1,27.51-22.69,1.94-.38,3.97-.44,5.96-.45,11.01-.04,22.02-.03,33.03-.02,.47,0,.94,.11,1.41,.17-.02,.72,.02,1.44-.07,2.15-.44,3.53-.99,7.05-1.37,10.59-.4,3.7-.66,7.42-1,11.12-.16,1.73-.4,3.46-.6,5.19-.28,2.44-.55,4.87-.82,7.31Z"/>
  <path class="cls-6" d="M270.34,132.28c5.74,1.98,10.8,5.16,15.38,9.07,12.65,10.79,20.74,24.36,22.82,40.9,3.02,23.92-2.7,45.69-17.87,64.66-8.19,10.24-18.05,18.52-29.98,24.14-2.15,1.01-4.43,1.76-6.66,2.63,.36-3.7,.72-7.41,1.09-11.11,.13-1.34,.26-2.68,.42-4.01,.45-3.77,.96-7.53,1.36-11.31,.39-3.7,.64-7.42,1.02-11.12,.43-4.17,.94-8.33,1.39-12.5,.2-1.81,.33-3.63,.55-5.44,.44-3.69,.91-7.38,1.37-11.06,6.23-.03,12.45-.07,18.68-.1,2.79-.01,5.58,0,8.67,0,.29-2.34,.69-4.59,.83-6.85,.52-8.39-.39-16.58-3.71-24.38-3.75-8.82-9.54-15.99-17.45-21.43-.46-.31-.89-.66-1.33-.99,.34-.57,.92-1.11,.99-1.71,.55-4.2,.98-8.42,1.48-12.63,.27-2.26,.63-4.5,.95-6.75Z"/>
  <path class="cls-6" d="M152.38,159.62c2.82,1.91,5.71,3.73,8.45,5.76,4.1,3.04,7.46,6.87,10.79,10.71,3.59,4.91,6.82,10.03,9.1,15.71,2.88,7.18,4.45,14.61,4.83,22.34,.23,4.73,.02,9.4-.49,14.09-.06,.51,.18,1.05,.28,1.58-.28,.64-.73,1.25-.83,1.91-.94,6.47-2.56,12.77-5.02,18.83-2.59,6.37-5.76,12.43-10.02,17.86-2.45,3.12-5.02,6.15-7.54,9.22-8.13,8.57-17.43,15.47-28.43,19.94-.73,.3-1.51,.48-2.27,.72,.17-2.05,.3-4.11,.53-6.16,.42-3.7,.96-7.38,1.35-11.08,.39-3.71,.63-7.43,1.01-11.14,.43-4.26,.95-8.5,1.42-12.75,.2-1.81,.34-3.63,.56-5.44,.43-3.54,.92-7.07,1.34-10.6,.36-2.99,.65-5.98,.97-8.98,6.46-.04,12.93-.07,19.39-.1,2.31-.01,4.61,0,7.09,0,.26-2.06,.58-3.93,.73-5.82,.76-9.97-.46-19.6-5.09-28.6-3.72-7.23-8.84-13.26-15.51-17.93-.32-.22-.6-.51-.9-.76,.19-2.04,.35-4.09,.57-6.13,.45-4.15,.9-8.3,1.42-12.45,.13-1.02,0-2.29,1.42-2.68,1.61,.66,3.22,1.32,4.84,1.98Z"/>
  <path class="cls-15" d="M725.8,166.21c2.49,7.23,4.98,14.46,7.46,21.7,1.31,3.84,2.6,7.68,3.97,11.75h-20.74c-1.98-5.97-4.03-12.13-6.09-18.36h-33.34c-2.03,6.12-4.08,12.31-6.12,18.47h-20.46c.16-.68,.26-1.28,.45-1.85,3.45-10.2,6.91-20.39,10.37-30.58,.13-.37,.33-.71,.5-1.06,20.54,0,41.08,0,61.61,0,.8,0,1.6-.04,2.4-.06Z"/>
  <path class="cls-22" d="M602.65,152.41c-1.94-3.2-3.91-6.38-5.82-9.6-6.31-10.65-12.59-21.31-18.88-31.96-.36-.6-.69-1.22-1.16-2.06h21.69c5.86,10.28,11.83,20.73,18.02,31.59,6.08-10.72,12-21.15,17.95-31.64h21.48c-.17,.46-.27,.9-.49,1.26-8.14,13.83-16.28,27.65-24.43,41.48-.2,.34-.47,.63-.71,.94-1.41-.18-2.82-.5-4.24-.51-6.39-.06-12.78-.06-19.17,0-1.41,.01-2.83,.33-4.24,.5Z"/>
  <path class="cls-7" d="M261.23,207.12c-.46,3.69-.93,7.37-1.37,11.06-.21,1.81-.35,3.63-.55,5.44-.46,4.17-.97,8.33-1.39,12.5-.38,3.7-.63,7.42-1.02,11.12-.4,3.77-.91,7.54-1.36,11.31-.16,1.34-.28,2.68-.42,4.01-.36,3.7-.72,7.41-1.09,11.11-4.29,1.77-8.8,2.69-13.36,3.34-7.03,1.01-14.11,.69-21.18,.55,.33-3.38,.65-6.77,.99-10.15,.16-1.57,.35-3.14,.54-4.71,.45-3.77,.93-7.53,1.34-11.3,.38-3.54,.66-7.09,1.04-10.63,.42-3.85,.91-7.69,1.36-11.53,3.35-.04,6.7-.14,10.05-.1,6.71,.08,12.17-2.5,16.76-7.35,3.57-3.77,6.05-8.11,7.7-12.98,.15-.44,.38-.86,.57-1.28,.14-.13,.27-.26,.41-.38,.33,0,.65-.01,.98-.02Z"/>
  <path class="cls-22" d="M418.12,141.81c-.04-2.47-.1-4.95-.1-7.42-.01-8.46,0-16.93,0-25.59,.66-.06,1.26-.17,1.87-.17,12.54,0,25.08-.01,37.62,0,5.41,0,10.65,.9,15.55,3.31,7.88,3.88,12.15,10.3,13.22,18.95,.52,4.17,.51,8.28-1.31,12.19-.71-1.22-1.88-1.28-3.1-1.27-3.32,.01-6.65,.03-9.97,0-2.85-.03-5.69-.11-8.54-.17,.18-.16,.34-.33,.54-.47,3.81-2.68,4.21-7.45,3.14-10.72-1.17-3.58-4.37-5.74-8.7-5.9-.32-.01-.64-.01-.96-.01-6.14,0-12.29,0-18.43,0-.61,0-1.21,.1-1.99,.17,0,1.02,0,1.89,0,2.75-.04,4.78-.08,9.57-.12,14.35-6.24,0-12.47,0-18.71,0Z"/>
  <path class="cls-15" d="M490.11,169.14c1.24,11.89-4,20.7-11.8,25.45-4.45,2.71-9.31,4.2-14.44,4.76-3.01,.32-6.05,.45-9.08,.46-11.27,.05-22.53,.02-33.8,.02h-2.75c-.09-.54-.22-.99-.22-1.43,0-9.51,0-19.02,0-28.53,0-.24,.06-.47,.09-.71,6.24,0,12.47,0,18.71,0,.07,4.6,.14,9.2,.21,14.05h2.49c5.66,0,11.32,0,16.98,0,1.43,0,2.87,0,4.3-.13,5.27-.46,9.25-3.98,10.23-9.17,.29-1.55,.19-3.17,.27-4.75,6.27,0,12.53-.01,18.8-.02Z"/>
  <path class="cls-11" d="M268.44,64.95c.63-.05,1.26-.16,1.9-.16,15.35,0,30.7,0,46.04,0h2.18c-.33,1.92-.5,3.56-.9,5.15-4.09,16.56-18.66,29.47-35.6,31.11-5.78,.56-11.65,.2-17.47,.26,0-.4-.04-.8,0-1.2,.46-3.53,.99-7.05,1.38-10.59,.41-3.7,.67-7.42,1-11.13,.17-1.89,.35-3.79,.56-5.68,.28-2.59,.6-5.19,.9-7.78Z"/>
  <path class="cls-14" d="M436.83,169.15c-6.24,0-12.47,0-18.71,0-.04-4.2-.1-8.4-.1-12.6,0-4.92,.06-9.83,.1-14.75,6.24,0,12.47,0,18.71,0,.19,1.33,1.22,.99,2.04,1,5.99,.02,11.97-.03,17.96,.03,2.27,.02,4.45-.26,6.52-1.2,2.85,.06,5.69,.14,8.54,.17,3.32,.03,6.65,.02,9.97,0,1.22,0,2.39,.06,3.1,1.27-.84,2.8-2.54,5.09-4.64,7.45,6.28,4.63,9.72,10.76,9.79,18.61-6.27,0-12.53,.01-18.8,.02-.08-.14-.2-.27-.23-.41-.89-5.39-5.73-9.38-12.16-9.28-6.61,.1-13.22,.02-19.83,.03-.68,0-1.35,.11-2.26,.18v9.48Z"/>
  <path class="cls-7" d="M138.42,232.12c-.32,2.99-.61,5.99-.97,8.98-.42,3.54-.91,7.07-1.34,10.6-.22,1.81-.36,3.63-.56,5.44-.47,4.25-.98,8.5-1.42,12.75-.38,3.71-.61,7.43-1.01,11.14-.39,3.7-.93,7.38-1.35,11.08-.23,2.05-.36,4.11-.53,6.16-4.39,1.99-9.08,2.9-13.78,3.65-4.97,.79-9.99,.86-15.02,.58,.32-3.07,.65-6.14,.94-9.22,.35-3.79,.63-7.59,1.01-11.37,.43-4.26,.95-8.5,1.42-12.75,.2-1.81,.37-3.63,.55-5.44,.3-3.15,.59-6.31,.88-9.46,1.91-.06,3.82-.08,5.73-.18,6.44-.33,11.5-3.38,15.7-8.05,3.33-3.71,5.6-8.04,7.11-12.78,.12-.37,.32-.71,.5-1.12h2.14Z"/>
  <path class="cls-15" d="M572.96,171.56c2.43,7.09,4.87,14.18,7.3,21.27,.77,2.25,1.52,4.51,2.32,6.92h-20.73c-2.02-6.1-4.05-12.22-6.1-18.42h-33.36c-2.04,6.16-4.06,12.28-6.1,18.43h-20.37c.03-.39,0-.77,.1-1.1,3.01-8.92,6.03-17.83,9.05-26.75,.05-.14,.19-.25,.28-.37,22.53,0,45.07,.01,67.6,.02Z"/>
  <path class="cls-23" d="M268.44,64.95c-.3,2.59-.61,5.18-.9,7.78-.21,1.89-.39,3.78-.56,5.68-.34,3.71-.6,7.42-1,11.13-.39,3.54-.93,7.06-1.38,10.59-.05,.39,0,.8,0,1.2-.63,.04-1.27,.1-1.9,.11-11.85,0-23.7,0-35.54,0-.63,0-1.27-.06-1.9-.1,.27-2.44,.54-4.87,.82-7.31,.2-1.73,.43-3.46,.6-5.19,.35-3.71,.6-7.42,1-11.12,.39-3.54,.93-7.06,1.37-10.59,.09-.71,.05-1.43,.07-2.15,.55-.05,1.1-.13,1.65-.13,11.93-.02,23.86-.03,35.79-.04,.63,0,1.26,.11,1.89,.17Z"/>
  <path class="cls-15" d="M347.89,170.47c1.8,6.45,7.04,12.79,15.94,13.52,8.82,.72,15.41-3.4,18.84-11.59,.12-.29,.29-.56,.44-.84,6.48,0,12.97,0,19.45,0-1.4,10.6-6.89,18.55-15.86,24.12-12.49,7.75-30.44,7.52-42.81-.38-7.85-5.01-12.66-12.2-14.97-21.13-.25-.99-.2-2.05-.29-3.08,5.33,0,10.67,.03,16-.04,1.08-.01,2.16-.38,3.24-.58Z"/>
  <path class="cls-23" d="M100.52,126.27c.46-3.84,.95-7.68,1.37-11.52,.38-3.54,.65-7.09,1.03-10.62,.41-3.77,.91-7.52,1.34-11.29,.11-.95,.07-1.91,.1-2.86,.71-.04,1.42-.11,2.13-.11,10.89-.01,21.78-.01,32.67,0,.71,0,1.42,.08,2.13,.12-.04,1.51,0,3.02-.15,4.52-.37,3.53-.9,7.04-1.27,10.56-.39,3.69-.68,7.39-1.02,11.08-.31,3.38-.61,6.76-.91,10.13-.79,.04-1.58,.1-2.37,.11-10.89,0-21.78,0-32.67,0-.79,0-1.58-.06-2.38-.1Z"/>
  <path class="cls-21" d="M107.23,254.26c-.29,3.15-.58,6.31-.88,9.46-.17,1.82-.35,3.63-.55,5.44-.47,4.25-.99,8.5-1.42,12.75-.38,3.79-.65,7.58-1.01,11.37-.29,3.08-.62,6.15-.94,9.22-8.79,0-17.59,0-26.38,0,.34-3.3,.68-6.6,1.02-9.9,.17-1.65,.31-3.3,.51-4.95,.43-3.52,.95-7.04,1.33-10.57,.4-3.69,.66-7.4,1.01-11.1,.16-1.65,.4-3.29,.59-4.94,.27-2.27,.54-4.54,.81-6.81,4.36-.03,8.71-.1,13.07-.1,4.28,0,8.56,.06,12.84,.1Z"/>
  <path class="cls-24" d="M224.77,229.24c-.46,3.84-.95,7.68-1.36,11.53-.38,3.54-.66,7.09-1.04,10.63-.41,3.77-.89,7.53-1.34,11.3-.19,1.57-.38,3.14-.54,4.71-.34,3.38-.66,6.77-.99,10.15-8.8,0-17.59,0-26.39,0,.32-1.47,.77-2.92,.92-4.41,.55-5.19,.99-10.39,1.49-15.59,.17-1.73,.41-3.45,.62-5.18,.26-2.12,.57-4.23,.78-6.35,.22-2.21,.25-4.44,.57-6.63,.5-3.38,.98-6.74,.88-10.16,4.2-.04,8.4-.1,12.6-.1,4.6,0,9.19,.06,13.79,.1Z"/>
  <path class="cls-22" d="M513.63,146.61c4.21-12.44,8.42-24.89,12.64-37.33,.05-.15,.17-.27,.34-.53h25.13c.12,.29,.29,.64,.41,1,3.41,10.04,6.81,20.08,10.21,30.13,.15,.45,.23,.93,.35,1.39-5.49,.02-10.97,.02-16.46,.08-1.01,.01-2.01,.31-3.01,.48-1.33-3.85-2.66-7.7-4.15-11.99-.45,1.32-.75,2.22-1.07,3.1-1.73,4.73-2.7,9.73-5.15,14.19-5.17-.01-10.33,0-15.5-.06-1.25-.02-2.5-.3-3.75-.45Z"/>
  <path class="cls-22" d="M669.33,143.68c3.46-10.29,6.92-20.58,10.38-30.87,.46-1.35,.94-2.7,1.42-4.1h25.14c.15,.26,.38,.58,.5,.93,3.67,10.81,7.33,21.62,10.98,32.43,.07,.22,.07,.47,.1,.7-5.38,0-10.75,0-16.13-.02-1.31,0-2.56,.06-3.24,1.44-1.52-4.66-3.03-9.32-4.55-13.98-1.61,3.79-2.78,7.49-4.03,11.16-.23,.68-.75,1.27-1.13,1.9-4.84-.01-9.68-.06-14.51-.02-1.65,.01-3.29,.27-4.94,.41Z"/>
  <path class="cls-13" d="M137.94,126.27c.3-3.38,.61-6.76,.91-10.13,.33-3.69,.63-7.39,1.02-11.08,.37-3.53,.9-7.04,1.27-10.56,.16-1.49,.11-3.01,.15-4.52,6.35-.02,12.71-.05,19.06-.07,4.04,.03,8.08,.06,12.13,.09-.35,3.69-.69,7.38-1.05,11.07-.16,1.65-.33,3.29-.52,4.94-.26,2.27-.57,4.53-.82,6.8-.21,1.96-.16,3.98-.62,5.88-.37,1.55-.34,2.95,.13,4.41-3.46,1.61-7.06,2.7-10.91,2.9-.94,.05-1.86,.27-2.79,.41-5.11-.01-10.22-.02-15.34-.04-.88,0-1.75-.07-2.63-.1Z"/>
  <path class="cls-10" d="M513.63,146.61c1.25,.16,2.5,.44,3.75,.45,5.17,.06,10.33,.05,15.5,.06-.75,2.84-1.45,5.7-2.28,8.51-.85,2.88-1.84,5.73-2.83,8.79h22.46c-1.04-3.51-2.02-6.83-3-10.15,1.17-.16,2.33-.45,3.5-.46,5.39-.06,10.78-.04,16.17-.05,1.15,3.41,2.29,6.81,3.45,10.22,.86,2.53,1.74,5.05,2.61,7.57-22.53,0-45.07-.01-67.6-.02,1.26-3.86,2.5-7.72,3.78-11.58,1.48-4.46,2.99-8.9,4.49-13.35Z"/>
  <path class="cls-14" d="M698.49,144.2c.68-1.37,1.93-1.44,3.24-1.44,5.38,.02,10.75,.02,16.13,.02,1.08,3.07,2.19,6.12,3.23,9.2,1.59,4.73,3.14,9.48,4.7,14.23-.8,.02-1.6,.06-2.4,.06-20.54,0-41.08,0-61.61,0,1.05-3.26,2.08-6.53,3.16-9.77,1.43-4.28,2.92-8.55,4.38-12.82,1.65-.14,3.29-.4,4.94-.41,4.84-.04,9.68,0,14.51,.02-.14,.68-.22,1.38-.43,2.04-1.8,5.84-3.62,11.68-5.43,17.52-.15,.49-.23,1-.34,1.52,3.88,.48,20.61,.32,22.33-.22-.24-.75-.47-1.51-.71-2.26-1.9-5.89-3.81-11.79-5.72-17.68Z"/>
  <path class="cls-8" d="M198.38,229.24c.1,3.42-.38,6.79-.88,10.16-.32,2.19-.34,4.42-.57,6.63-.22,2.12-.52,4.23-.78,6.35-.21,1.73-.45,3.45-.62,5.18-.51,5.2-.94,10.4-1.49,15.59-.16,1.49-.61,2.94-.92,4.41-4.2,.04-8.41,.1-12.61,.1-6.19,0-12.38-.03-18.56-.05,2.52-3.07,5.09-6.1,7.54-9.22,4.26-5.43,7.43-11.49,10.02-17.86,2.46-6.06,4.07-12.35,5.02-18.83,.1-.66,.55-1.28,.83-1.91,4.32-.74,8.68-.79,13.05-.56Z"/>
  <path class="cls-2" d="M81.32,254.25c-.27,2.27-.54,4.54-.81,6.81-.2,1.65-.44,3.29-.59,4.94-.35,3.7-.61,7.4-1.01,11.1-.38,3.53-.9,7.04-1.33,10.57-.2,1.65-.34,3.3-.51,4.95-.34,3.3-.68,6.6-1.02,9.9-6.4,0-12.79,0-19.19,0,.05-.87,.05-1.75,.16-2.61,.24-2.04,.58-4.06,.79-6.1,.37-3.7,.64-7.4,1.01-11.1,.43-4.32,.93-8.64,1.4-12.95,.19-1.73,.33-3.47,.58-5.18,.47-3.21,1.02-6.41,.8-9.68,1.23-.15,2.46-.31,3.69-.46,.2-.04,.4-.09,.6-.13,5.14-.01,10.28-.03,15.42-.04Z"/>
  <path class="cls-26" d="M61.61,254.89c.22,3.27-.33,6.47-.8,9.68-.25,1.72-.39,3.46-.58,5.18-.47,4.32-.97,8.63-1.4,12.95-.37,3.7-.64,7.4-1.01,11.1-.21,2.04-.55,4.07-.79,6.1-.1,.86-.11,1.74-.16,2.61-6.24,0-12.47,0-18.71,0,.16-.69,.39-1.38,.46-2.08,.36-3.61,.64-7.24,1-10.85,.44-4.4,.94-8.79,1.42-13.18,.19-1.73,.42-3.45,.58-5.18,.28-3.06,.53-6.13,.79-9.19,4.01-2.59,8.23-4.66,12.97-5.6,2.1-.42,4.16-1.03,6.23-1.55Z"/>
  <path class="cls-4" d="M253.07,157.7c3.36,.6,6.23,2.39,9.09,4.04,10.06,5.78,15.37,14.93,17.73,26,.71,3.34,1.02,6.75,.88,10.33h-19.83c-.13-1.12-.23-2.21-.4-3.28-1.03-6.82-4.34-12.25-9.95-16.27,.19-1,.44-2,.54-3.01,.22-2.03,.32-4.08,.55-6.11,.43-3.9,.92-7.79,1.39-11.69Z"/>
  <path class="cls-4" d="M129.79,182.74c3.29,.52,5.98,2.43,8.74,4.05,11.17,6.57,16.54,16.84,18.18,29.36,.21,1.58,.28,3.18,.38,4.78,.04,.63,0,1.27,0,2.07h-19.86c-.15-1.25-.26-2.5-.47-3.73-1.12-6.73-4.54-12.01-10.08-15.95,1.05-.12,1.14-.85,1.19-1.72,.12-2.29,.28-4.58,.49-6.86,.16-1.73,.4-3.45,.61-5.17,.27-2.27,.54-4.54,.81-6.81Z"/>
  <path class="cls-3" d="M384.1,146.13c-.04-.79-.11-1.59-.11-2.38,0-10.86,0-21.71,0-32.57,0-.78,0-1.55,0-2.44h18.88c.05,.64,.14,1.19,.14,1.73,.01,11.34,.01,22.67,0,34.01,0,.55-.11,1.1-.17,1.65-6.25,0-12.5,0-18.75,0Z"/>
  <path class="cls-3" d="M328.41,144.2c-.04-.31-.11-.63-.11-.94,0-11.43,0-22.86,0-34.47h18.95c.04,.39,.12,.77,.12,1.15,0,10.95,.01,21.91,0,32.86,0,.47-.11,.94-.17,1.41-6.26,0-12.52,0-18.78,0Z"/>
  <path class="cls-23" d="M129.79,182.74c-.27,2.27-.54,4.54-.81,6.81-.21,1.72-.45,3.45-.61,5.17-.21,2.28-.37,4.57-.49,6.86-.04,.87-.13,1.6-1.19,1.72-3.7-2-7.7-2.39-11.82-2.36-6.63,.05-13.25,.01-19.88,0-.87,0-1.75-.07-2.62-.11,.32-2.58,.64-5.16,.96-7.74,.29-2.34,.61-4.69,.83-7.04,.14-1.5,.11-3.01,.16-4.52,.55-.05,1.11-.13,1.66-.13,8.53,.02,17.06-.05,25.58,.13,2.75,.06,5.49,.78,8.23,1.2Z"/>
  <path class="cls-23" d="M253.07,157.7c-.47,3.9-.95,7.79-1.39,11.69-.23,2.03-.33,4.08-.55,6.11-.11,1.01-.36,2.01-.54,3.01-3.51-1.97-7.29-2.57-11.27-2.52-6.77,.08-13.55,.02-20.32,0-.79,0-1.59-.07-2.38-.11,.27-2.5,.54-5.01,.82-7.51,.19-1.64,.43-3.28,.58-4.93,.21-2.28,.36-4.56,.54-6.85,.79-.05,1.58-.14,2.38-.13,8.76,.04,17.53,.04,26.29,.2,1.95,.04,3.9,.67,5.85,1.03Z"/>
  <path class="cls-12" d="M42.41,262.04c-.26,3.06-.51,6.13-.79,9.19-.16,1.73-.39,3.45-.58,5.18-.48,4.39-.98,8.78-1.42,13.18-.37,3.61-.65,7.24-1,10.85-.07,.7-.3,1.39-.46,2.08-7.18,.03-14.35,.05-21.53,.07-.14,0-.28-.12-.71-.33,.37-2,.64-4.11,1.15-6.16,3-12.11,9.53-21.98,19.15-29.83,1.93-1.58,4.13-2.82,6.2-4.22Z"/>
  <path class="cls-5" d="M602.65,152.41c1.41-.18,2.83-.49,4.24-.5,6.39-.05,12.78-.06,19.17,0,1.41,.01,2.83,.33,4.24,.51-.92,1.45-1.9,2.87-2.73,4.36-.83,1.5-1.56,3-1.53,4.86,.1,5.39,.05,10.79,.03,16.18,0,.79-.1,1.57-.16,2.36-6.26,0-12.52,0-18.78,.01-.03-5.9-.11-11.8-.07-17.69,0-1.48-.29-2.79-1.03-4.06-1.15-1.99-2.26-4.02-3.38-6.03Z"/>
  <path class="cls-6" d="M214.75,49.22c-4.14,5.13-9.64,7.85-16.06,8.52-13.25,1.38-24.73-7.12-27.4-20.12-.32-1.54-.24-3.15-.34-4.73,.46,.12,.93,.21,1.37,.38,4.16,1.59,8.32,3.21,12.48,4.79,8.03,3.06,16.07,6.12,24.11,9.15,1.92,.73,3.89,1.35,5.84,2.01Z"/>
  <path class="cls-7" d="M147.54,157.64c-1.42,.39-1.29,1.66-1.42,2.68-.52,4.14-.97,8.29-1.42,12.45-.22,2.04-.38,4.09-.57,6.13-1.19-.63-2.37-1.28-3.57-1.88-5.58-2.82-11.53-4.16-17.74-4.43-1.67-.07-3.35-.09-5.02-.13,.18-3.14,.32-6.28,.55-9.42,.25-3.36,.59-6.72,.88-10.08,9.3-.5,18.35,.66,27.06,4.05,.43,.17,.84,.42,1.25,.64Z"/>
  <path class="cls-7" d="M270.34,132.28c-.32,2.25-.68,4.5-.95,6.75-.51,4.21-.94,8.42-1.48,12.63-.08,.6-.65,1.14-.99,1.71-1.5-.68-3.02-1.31-4.49-2.04-5.76-2.87-11.93-3.69-18.26-3.76-1.03-.01-2.06-.07-3.09-.11,.17-1.8,.35-3.6,.52-5.41,.16-1.65,.34-3.29,.5-4.93,.3-3.05,.6-6.11,.9-9.16,7.28-.36,14.46,.24,21.47,2.27,1.99,.57,3.91,1.36,5.87,2.05Z"/>
  <path class="cls-6" d="M90.6,74.23c-.36,.59-.6,1.3-1.09,1.75-7.39,6.67-15.96,8.68-25.36,5.52-9.43-3.18-14.9-10.09-16.76-19.84-.21-1.08-.08-2.22-.11-3.34,1.15,.26,2.34,.41,3.45,.81,3.06,1.1,6.09,2.32,9.13,3.48,5.19,1.99,10.38,3.98,15.58,5.95,5.05,1.91,10.11,3.79,15.17,5.68Z"/>
  <path class="cls-10" d="M328.41,144.2c6.26,0,12.52,0,18.78,0,.05,1.35,.15,2.7,.15,4.05,.02,5.34-.03,10.69,.04,16.03,.03,2.06,.33,4.12,.5,6.18-1.08,.2-2.15,.56-3.24,.58-5.33,.06-10.67,.03-16,.04-.1-.78-.27-1.57-.27-2.35,0-8.18,.02-16.36,.03-24.53Z"/>
  <path class="cls-10" d="M384.1,146.13c6.25,0,12.5,0,18.75,0,.05,1.18,.16,2.37,.15,3.55-.04,6.59-.1,13.17-.17,19.76,0,.71-.16,1.41-.25,2.12-6.48,0-12.97,0-19.45,0,.78-3.35,.92-6.74,.89-10.17-.04-5.09,.05-10.17,.08-15.26Z"/>
  <path class="cls-20" d="M90.6,74.23c-5.06-1.89-10.12-3.77-15.17-5.68-5.2-1.97-10.39-3.96-15.58-5.95-3.04-1.16-6.06-2.37-9.13-3.48-1.1-.4-2.29-.55-3.45-.81-.29-3.55,.25-6.94,1.87-10.13,.54,.44,1.02,1.04,1.64,1.29,3.18,1.27,6.39,2.45,9.59,3.67,6.25,2.39,12.48,4.8,18.74,7.17,5.51,2.08,11.03,4.11,16.55,6.16-.77,2.85-2.38,5.22-4.24,7.44-.16,.2-.54,.22-.82,.32Z"/>
  <path class="cls-20" d="M214.75,49.22c-1.95-.67-3.91-1.29-5.84-2.01-8.04-3.03-16.08-6.09-24.11-9.15-4.16-1.59-8.32-3.2-12.48-4.79-.44-.17-.91-.25-1.37-.38-.23-3.42,.29-6.69,1.92-9.74,.48,.38,.9,.89,1.44,1.11,2.21,.91,4.45,1.72,6.68,2.58,11.36,4.38,22.71,8.79,34.09,13.13,1.39,.53,2.91,.72,4.37,1.07-.75,3.2-2.43,5.86-4.7,8.18Z"/>
  <path class="cls-21" d="M119.23,152.95c-.3,3.36-.63,6.72-.88,10.08-.23,3.14-.37,6.28-.55,9.42-6.88,0-13.75,0-20.63,0,.19-2.21,.36-4.43,.56-6.64,.13-1.42,.31-2.83,.46-4.25,.3-2.84,.6-5.67,.89-8.51,1.58-.07,3.15-.2,4.73-.2,5.14,0,10.28,.06,15.42,.1Z"/>
  <path class="cls-21" d="M243,127.95c-.3,3.05-.6,6.11-.9,9.16-.16,1.65-.34,3.29-.5,4.93-.18,1.8-.35,3.6-.52,5.41-6.72,0-13.43,0-20.15,0,.18-2.29,.33-4.59,.53-6.87,.15-1.73,.37-3.46,.56-5.19,.27-2.44,.55-4.87,.83-7.31,1.58-.08,3.15-.23,4.73-.23,5.14,0,10.28,.06,15.42,.1Z"/>
  <path class="cls-18" d="M95.66,66.47c-5.52-2.05-11.04-4.08-16.55-6.16-6.25-2.36-12.49-4.78-18.74-7.17-3.2-1.22-6.41-2.4-9.59-3.67-.62-.25-1.09-.85-1.64-1.29,.86-2.62,2.25-4.92,4.23-6.85,.86,.53,1.67,1.21,2.6,1.57,5.76,2.25,11.56,4.41,17.34,6.63,6.74,2.59,13.46,5.23,20.21,7.8,1.17,.45,2.44,.67,3.66,.99,.39,2.41-.54,4.58-1.21,6.81-.13,.44-.21,.9-.31,1.35Z"/>
  <path class="cls-18" d="M219.45,41.04c-1.46-.35-2.98-.54-4.37-1.07-11.38-4.34-22.73-8.74-34.09-13.13-2.23-.86-4.47-1.67-6.68-2.58-.54-.22-.96-.73-1.44-1.11,.82-2.75,2.4-5.02,4.41-7.03,.11,1.13,1.12,1.3,1.88,1.6,5.25,2.07,10.52,4.07,15.79,6.09,7.12,2.73,14.24,5.49,21.38,8.18,1.48,.56,3.03,.92,4.54,1.37,.14,2.36,.03,4.67-1.31,6.76-.15,.23-.08,.61-.11,.92Z"/>
  <path class="cls-15" d="M607.13,180.19c6.26,0,12.52,0,18.78-.01,.06,3.9,.13,7.81,.17,11.71,.03,2.54,0,5.08,0,7.78h-18.72c-.44-1.76-.6-14.34-.23-19.48Z"/>
  <path class="cls-26" d="M97.18,58.32c-1.22-.32-2.48-.54-3.66-.99-6.75-2.57-13.47-5.21-20.21-7.8-5.78-2.22-11.57-4.38-17.34-6.63-.93-.36-1.74-1.04-2.6-1.57,1.9-2.55,4.36-4.4,7.24-5.72,1.23,.69,2.39,1.54,3.69,2.05,7.31,2.87,14.65,5.67,21.98,8.48,2.37,.91,4.76,1.77,7.13,2.68,.79,.3,1.53,.59,2.02-.42,1.46,3.15,2.01,6.47,1.74,9.92Z"/>
  <path class="cls-26" d="M220.87,33.37c-1.52-.45-3.07-.81-4.54-1.37-7.14-2.7-14.25-5.45-21.38-8.18-5.27-2.02-10.54-4.03-15.79-6.09-.76-.3-1.77-.47-1.88-1.6,2.06-2.58,4.59-4.56,7.66-5.79-.11,.95,.36,1.48,1.21,1.79,2.38,.87,4.77,1.75,7.14,2.66,6.23,2.37,12.44,4.81,18.69,7.12,2.44,.9,4.96,1.57,7.44,2.35,1.29,2.91,1.73,5.96,1.45,9.12Z"/>
  <path class="cls-17" d="M365.71,64.76v26.49h-4.76v-10.38h-11.32v10.41h-4.82v-26.49h4.71v11.27h11.36v-11.31h4.82Z"/>
  <path class="cls-18" d="M99.08,153.05c-.3,2.84-.59,5.67-.89,8.51-.15,1.42-.33,2.83-.46,4.25-.2,2.21-.38,4.43-.56,6.64h-17.45c-.29-6.65,7.33-18.22,19.37-19.4Z"/>
  <path class="cls-18" d="M222.85,128.08c-.28,2.44-.55,4.87-.83,7.31-.19,1.73-.41,3.46-.56,5.19-.2,2.29-.36,4.58-.53,6.87h-17.63c.48-8.81,9.17-18.53,19.55-19.37Z"/>
  <path class="cls-12" d="M219.43,24.25c-2.48-.78-5.01-1.44-7.44-2.35-6.25-2.32-12.46-4.75-18.69-7.12-2.37-.9-4.75-1.78-7.14-2.66-.85-.31-1.32-.85-1.21-1.79,13.41-7.01,30.12,.4,34.48,13.92Z"/>
  <path class="cls-12" d="M95.44,48.4c-.49,1.01-1.23,.72-2.02,.42-2.37-.91-4.76-1.77-7.13-2.68-7.33-2.81-14.67-5.61-21.98-8.48-1.3-.51-2.46-1.36-3.69-2.05,9.67-5.49,23.15-3.41,30.84,6.05,1.63,2,2.67,4.48,3.98,6.73Z"/>
  <path class="cls-14" d="M566.89,153.77c-5.39,0-10.78,0-16.17,.05-1.17,.01-2.33,.3-3.5,.46-1.33-4.15-2.66-8.3-3.98-12.46,1-.17,2.01-.46,3.01-.48,5.48-.07,10.97-.06,16.46-.08,1.4,4.17,2.79,8.34,4.19,12.51Z"/>
  <path class="cls-17" d="M335.18,91.29h-4.89v-22.11h-6.89v-4.39h18.42c.04,.64,.1,1.33,.12,2.02,.02,.7,0,1.4,0,2.27h-6.73c-.07,2.6-.02,5.05-.03,7.49,0,2.4,0,4.8,0,7.19v7.52Z"/>
  <path class="cls-19" d="M568.69,229.94h-1.99c.43-3.19,.83-6.25,1.26-9.48,.55-.05,1.07-.13,1.59-.15,.52-.02,1.1,.18,1.55,0,1.62-.65,2.95-.22,4.23,.92,.69-.35,1.36-.79,2.1-1.03,2.56-.84,4.73,.87,4.47,3.55-.19,1.98-.53,3.94-.84,6.1h-2.08c.18-1.43,.33-2.76,.5-4.09,.06-.47,.16-.94,.22-1.42,.14-1.06-.13-1.93-1.24-2.29-.87-.28-2.13,.4-2.49,1.4-.26,.74-.36,1.55-.48,2.33-.21,1.33-.38,2.67-.59,4.12h-2.07c.19-1.44,.37-2.76,.54-4.09,.06-.47,.09-.95,.16-1.43,.13-1.03,0-1.95-1.14-2.32-.98-.32-2.25,.4-2.6,1.57-.29,.99-.38,2.03-.55,3.05-.1,.63-.15,1.27-.25,1.89-.06,.39-.17,.78-.3,1.33Z"/>
  <path class="cls-19" d="M396.79,229.95h-2.08c.45-3.26,.88-6.39,1.32-9.61,1.6,.05,3.03-.02,4.46-.23,.96-.14,2.04,.58,3.29,.98-.24,.15-.17,.11-.1,.06,1.52-1.09,3.15-1.71,4.88-.6,1.72,1.1,1.49,2.84,1.22,4.54-.25,1.57-.49,3.15-.75,4.82-.61,.05-1.14,.1-1.7,.14-.1-.28-.27-.5-.25-.7,.17-1.59,.4-3.17,.56-4.76,.16-1.67-.3-2.46-1.39-2.57-1.15-.11-2.22,.74-2.48,2.13-.27,1.49-.41,3.01-.62,4.51-.05,.39-.17,.76-.29,1.25h-2.03c.24-1.85,.47-3.57,.69-5.29,.19-1.49-.16-2.28-1.11-2.55-1.07-.31-2.39,.44-2.68,1.8-.42,1.94-.63,3.92-.95,6.06Z"/>
  <path class="cls-1" d="M432.8,229.44c-.39,.07-.78,.15-1.18,.2-2.01,.22-3.68-.39-4.63-2.24-.97-1.87-.71-3.74,.53-5.41,1.2-1.62,2.92-2.32,4.85-1.86,1.27,.3,2.42,.78,3.7,.15,.15-.07,.43,.13,.87,.28-.49,3.29-.87,6.61-1.51,9.87-.42,2.11-2.1,3.16-4.14,3.45-2.14,.31-3.93-.29-5.09-2.53,.53-.28,.98-.53,1.59-.85,.98,.9,2.03,1.83,3.52,1.37,1.03-.32,1.93-.8,2.05-2.05-.01-.2-.02-.39-.03-.59-.17,.06-.35,.13-.52,.19Zm1.41-4.92c-.05-1.47-1.2-2.59-2.63-2.53-1.62,.06-2.97,1.54-2.91,3.21,.05,1.52,1.12,2.53,2.62,2.5,1.64-.04,2.97-1.49,2.92-3.17Z"/>
  <path class="cls-1" d="M451.16,229.93h-2.29c-.71-1.59-1.41-3.18-2.16-4.85h-2.55c-.26,1.54-.52,3.09-.81,4.8h-2.15c.62-4.43,1.22-8.75,1.86-13.26,1.69,0,3.27,0,4.85,0,1.75,0,3.17,.67,3.75,2.4,.6,1.79,.31,3.48-1.17,4.81-.4,.36-.86,.67-1.38,1.06,.68,1.66,1.33,3.27,2.05,5.03Zm-6.74-7.04c1.31,0,2.43,.13,3.5-.03,1.16-.17,1.91-1.34,1.81-2.46-.09-1.08-.79-1.72-2.12-1.81-.85-.06-1.7-.01-2.59-.01-.22,1.57-.4,2.87-.59,4.31Z"/>
  <path class="cls-1" d="M582.73,233.44c.62-4.4,1.21-8.65,1.81-12.94,1.79-.17,3.46-.46,5.14-.44,2.43,.02,4.21,2.01,4.32,4.54,.12,2.78-1.91,5.36-4.55,5.52-1.22,.07-2.47-.3-3.9-.5-.21,1.14-.44,2.44-.69,3.82h-2.13Zm9.03-8.55c.02-1.7-1.17-2.95-2.76-2.9-1.65,.05-2.98,1.54-3,3.37-.01,1.68,.96,2.79,2.5,2.86,1.82,.08,3.24-1.37,3.26-3.33Z"/>
  <path class="cls-9" d="M513.53,229.93h-1.99c.41-3.13,.8-6.11,1.2-9.09,.14-1.03,.26-2.06,.43-3.08,.24-1.41,.26-1.41,2.27-1.17-.14,1.23-.28,2.46-.45,3.94,.78-.19,1.42-.43,2.07-.5,2.19-.24,3.81,1.11,3.69,3.32-.11,2.2-.52,4.39-.81,6.62h-1.86c-.08-.29-.21-.52-.18-.74,.17-1.5,.4-3,.57-4.5,.19-1.63-.22-2.46-1.25-2.68-1.15-.25-2.43,.67-2.71,2.11-.3,1.48-.44,2.99-.67,4.49-.06,.39-.19,.77-.32,1.28Z"/>
  <path class="cls-9" d="M462.07,225.85h-6.95c.65,2.41,2.04,3.03,4.04,1.95q1.23-.66,2.38,.03c-1.16,1.96-2.57,2.63-4.88,2.33-1.91-.25-3.26-1.51-3.74-3.5-.47-1.94,.06-3.63,1.39-5.06,1.48-1.6,3.83-2.05,5.68-1.14,1.81,.88,2.44,2.38,2.07,5.4Zm-2.16-1.99c.09-1.41-.72-1.9-1.85-1.97-1.3-.09-2.24,.41-2.65,1.97h4.5Z"/>
  <path class="cls-9" d="M481.79,227.94c-1.71,2.27-4.25,2.95-6.47,1.75-2.11-1.14-2.96-3.73-2.04-6.23,.9-2.46,3.42-3.87,5.89-3.37,2.15,.44,4.1,3,2.94,5.68h-6.8c.52,2.53,2.04,3.26,4.11,1.89,1.05-.69,1.67-.62,2.37,.27Zm-1.54-4.03c-.39-1.63-1.23-2.12-2.47-2.02-1.18,.1-2,.61-2.09,2.02h4.56Z"/>
  <path class="cls-1" d="M347.88,229.79c-1.83,.15-3.43,.35-5.03,.39-1.72,.05-2.79-.76-3.03-2.09-.28-1.51,.36-2.76,2.03-3.34,1.48-.52,3.05-.75,4.58-1.11-.53-2.22-1.66-2.32-4.25-.32-.4-.25-.85-.52-1.25-.77,.03-.27,0-.45,.07-.56,.76-1.13,1.89-1.71,3.18-1.91,2.86-.44,5.13,1.39,4.48,4.2-.41,1.77-.52,3.61-.77,5.52Zm-1.79-4.3c-1.29,.3-2.33,.43-3.27,.8-.39,.16-.9,1.02-.78,1.23,.27,.46,.88,.94,1.39,1,1.36,.14,2.29-.92,2.66-3.03Z"/>
  <path class="cls-1" d="M491.79,229.79c-1.78,.16-3.22,.32-4.67,.4-1.83,.11-3.06-.65-3.36-2-.36-1.63,.45-3.01,2.35-3.6,1.36-.42,2.79-.6,4.17-.89,.41-.77,0-1.26-.58-1.58-.91-.5-1.83-.17-3.51,1.19-.45-.27-.94-.57-1.57-.95,1.2-1.71,2.7-2.41,4.56-2.33,2.38,.1,3.64,1.51,3.39,3.89-.2,1.97-.52,3.92-.78,5.87Zm-1.62-4.28c-1.29,.26-2.33,.35-3.25,.72-.45,.18-.98,.94-.93,1.38,.09,.83,.9,1.08,1.67,.91,1.36-.29,2.27-1.07,2.52-3.01Z"/>
  <path class="cls-9" d="M601.95,223.58c-.89-2.21-1.82-2.25-4.23-.25-.44-.24-.91-.5-1.42-.79,.1-.3,.11-.55,.24-.71,1.22-1.5,2.84-2.02,4.69-1.76,2,.28,3.15,1.68,2.94,3.66-.22,2.05-.59,4.08-.89,6.07-1.8,.14-3.46,.35-5.11,.38-1.55,.03-2.61-.77-2.94-1.98-.34-1.25,.3-2.77,1.73-3.32,1.54-.59,3.21-.86,4.99-1.31Zm-.24,1.99c-1.17,.21-2.18,.33-3.16,.57-.78,.2-1.39,.83-.97,1.57,.26,.45,1.2,.82,1.75,.72,1.34-.24,2.16-1.17,2.38-2.87Z"/>
  <path class="cls-1" d="M702.53,223.58c-1.02-2.19-1.86-2.23-4.37-.27-.4-.24-.85-.51-1.34-.8,.1-.29,.11-.55,.24-.71,1.03-1.24,2.38-1.82,3.99-1.79,2.5,.05,3.81,1.48,3.55,3.97-.21,1.96-.52,3.91-.78,5.82-1.86,.14-3.53,.34-5.21,.36-1.59,.02-2.58-.79-2.83-2.04-.28-1.43,.26-2.7,1.77-3.26,1.54-.58,3.2-.84,4.97-1.28Zm-.33,1.92c-1.3,.27-2.34,.35-3.26,.73-.45,.18-.97,.95-.92,1.39,.09,.83,.91,1.07,1.68,.9,1.35-.3,2.27-1.08,2.5-3.01Z"/>
  <path class="cls-19" d="M552.68,220.01c2.78,0,4.9,2.07,4.9,4.8,0,3-2.5,5.44-5.53,5.4-2.76-.04-4.85-2.18-4.79-4.91,.07-2.91,2.49-5.29,5.42-5.29Zm2.62,4.71c-.05-1.63-1.14-2.76-2.66-2.74-1.71,.01-3.15,1.66-3.1,3.53,.05,1.65,1.1,2.71,2.66,2.69,1.79-.02,3.15-1.55,3.09-3.48Z"/>
  <path class="cls-19" d="M680.33,230.21c-2.79,.04-4.93-1.98-4.99-4.71-.07-2.97,2.46-5.5,5.47-5.48,2.77,.02,4.88,2.12,4.86,4.84-.02,2.91-2.41,5.31-5.34,5.35Zm-.04-2c1.79-.01,3.15-1.55,3.1-3.48-.05-1.63-1.13-2.76-2.65-2.75-1.71,0-3.16,1.66-3.1,3.53,.05,1.65,1.1,2.71,2.66,2.7Z"/>
  <path class="cls-1" d="M386.97,224.87c-.02,3.09-2.42,5.41-5.52,5.34-2.8-.07-4.72-2.11-4.66-4.96,.06-2.95,2.45-5.26,5.4-5.23,2.82,.03,4.8,2.04,4.78,4.86Zm-2.2-.14c-.05-1.62-1.15-2.75-2.67-2.74-1.72,.01-3.17,1.65-3.11,3.52,.05,1.65,1.1,2.71,2.66,2.7,1.78-.01,3.17-1.57,3.11-3.48Z"/>
  <path class="cls-1" d="M723.14,220.01c2.83-.04,4.88,1.92,4.92,4.72,.04,3.01-2.18,5.38-5.14,5.47-2.95,.1-5.05-1.91-5.04-4.82,0-2.97,2.32-5.33,5.27-5.37Zm-.48,8.2c1.78,.04,3.21-1.48,3.2-3.4-.01-1.63-1.06-2.79-2.58-2.83-1.72-.05-3.21,1.56-3.2,3.44,.01,1.66,1.02,2.76,2.58,2.79Z"/>
  <path class="cls-19" d="M531.62,229.95h-2.09c.42-3.16,.84-6.27,1.28-9.59,1.69,.16,3.25-.19,4.82-.29,1.99-.13,3.37,1.53,3.17,3.63-.2,2.05-.58,4.08-.89,6.23h-2.08c.24-1.78,.49-3.42,.68-5.06,.22-1.8-.22-2.64-1.39-2.83-1.17-.19-2.41,.73-2.69,2.19-.34,1.8-.52,3.62-.81,5.71Z"/>
  <path class="cls-19" d="M352.18,229.96h-2.08c.44-3.25,.87-6.37,1.31-9.58,1.65-.07,3.16-.08,4.68-.29,2.08-.28,3.52,1.48,3.29,3.71-.2,1.98-.56,3.94-.86,6.07-.59,.07-1.19,.13-1.81,.2-.09-.35-.22-.58-.19-.79,.18-1.5,.42-3,.59-4.51,.19-1.65-.21-2.46-1.26-2.71-1.13-.27-2.49,.63-2.79,2.04-.32,1.48-.44,3-.66,4.49-.05,.39-.12,.77-.21,1.36Z"/>
  <path class="cls-9" d="M656.06,229.99h-2.03c.41-3.16,.81-6.27,1.22-9.5,1.8-.15,3.55-.45,5.29-.4,1.71,.05,2.82,1.44,2.7,3.3-.13,2.13-.5,4.25-.79,6.51-.72,.04-1.3,.07-1.9,.11-.08-.36-.21-.59-.18-.8,.19-1.58,.44-3.15,.61-4.74,.15-1.41-.32-2.23-1.31-2.43-.99-.2-2.26,.53-2.59,1.66-.29,.99-.38,2.03-.54,3.05-.16,1.02-.31,2.04-.49,3.23Z"/>
  <path class="cls-9" d="M666.54,229.99h-1.83c-.02-3.18,.86-6.24,1.08-9.49,1.81-.15,3.56-.46,5.29-.41,1.71,.05,2.83,1.43,2.71,3.29-.13,2.13-.5,4.25-.78,6.52-.71,.05-1.29,.08-1.89,.12-.09-.36-.21-.59-.19-.8,.18-1.5,.4-3,.58-4.5,.19-1.62-.23-2.46-1.26-2.67-1.15-.24-2.41,.67-2.71,2.11-.31,1.48-.45,2.99-.69,4.48-.06,.39-.18,.77-.31,1.35Z"/>
  <path class="cls-9" d="M730.59,220.52c1.73-.18,3.24-.43,4.76-.48,1.88-.06,3.28,1.21,3.21,3.08-.09,2.28-.49,4.55-.76,6.86h-1.9c-.08-.28-.21-.52-.19-.73,.17-1.5,.4-3,.57-4.5,.19-1.64-.2-2.46-1.23-2.69-1.15-.26-2.43,.63-2.74,2.07-.31,1.48-.45,2.99-.69,4.48-.06,.39-.17,.77-.29,1.3h-1.99c.42-3.15,.83-6.21,1.25-9.39Z"/>
  <path class="cls-9" d="M417.64,229.99h-1.91c-.02-3.19,.86-6.25,1.08-9.5,1.81-.15,3.56-.46,5.3-.4,1.71,.05,2.82,1.44,2.71,3.3-.13,2.13-.5,4.25-.78,6.51-.71,.04-1.29,.08-1.89,.12-.09-.36-.21-.59-.19-.8,.19-1.58,.44-3.15,.61-4.74,.15-1.41-.32-2.23-1.3-2.43-.99-.2-2.26,.53-2.59,1.66-.29,.99-.38,2.03-.55,3.05-.16,1.02-.31,2.04-.49,3.24Z"/>
  <path class="cls-19" d="M639.42,230.09c-1.67-.33-3.09-.08-4.52,.07-1.94,.21-3.35-.98-3.32-2.9,.03-2.06,.3-4.14,.67-6.17,.23-1.26,1.23-.85,2.18-.63-.23,1.76-.45,3.4-.65,5.05-.21,1.66,.17,2.44,1.27,2.64,1.19,.22,2.36-.51,2.69-1.83,.27-1.08,.36-2.2,.53-3.3,.13-.86,.26-1.71,.41-2.66,.66-.04,1.19-.06,2.09-.11-.46,3.33-.89,6.5-1.35,9.82Z"/>
  <path class="cls-9" d="M368.4,222.56c-.75,.42-1.32,.93-1.96,.09-.61-.8-1.47-.93-2.36-.65-.31,.1-.67,.5-.72,.81-.04,.3,.21,.81,.48,.95,.63,.33,1.35,.46,2.01,.72,1.49,.58,2.26,1.58,2.19,2.8-.07,1.26-1.15,2.44-2.57,2.81-2.37,.62-4.14-.25-5.21-2.63,.41-.2,.82-.41,1.28-.64,.48,.44,.87,1,1.4,1.22,.61,.25,1.36,.32,2.02,.23,.32-.04,.7-.6,.78-.99,.05-.24-.33-.72-.62-.86-.64-.3-1.36-.43-2.03-.67-1.14-.4-1.95-1.13-2.03-2.39-.09-1.34,.64-2.26,1.77-2.87,2.13-1.16,4.3-.39,5.56,2.07Z"/>
  <path class="cls-9" d="M471.51,222.55c-.76,.52-1.35,.88-1.96,.07-.18-.24-.46-.46-.74-.59-.9-.41-2.1-.12-2.3,.57-.32,1.16,.69,1.24,1.37,1.53,.58,.25,1.23,.36,1.78,.66,1.85,1.02,2.02,3.18,.38,4.54-2.14,1.78-5.47,.86-6.62-1.94,.41-.19,.83-.39,1.28-.6,.49,.45,.88,1.02,1.42,1.24,.61,.25,1.37,.29,2.02,.19,.31-.05,.68-.62,.75-1.01,.04-.24-.35-.7-.65-.84-.64-.3-1.36-.42-2.04-.66-1.13-.41-1.92-1.16-2-2.41-.08-1.24,.59-2.12,1.6-2.74,2.13-1.3,4.51-.52,5.71,1.97Z"/>
  <path class="cls-9" d="M615.23,222.69c-.77,.7-1.38,1.02-2.38,.1-1.25-1.14-2.49-1.01-3.64,0-1.15,1.02-1.5,2.91-.77,4.16,.67,1.16,2.1,1.63,3.33,1.01,.55-.28,1-.77,1.63-1.28,.45,.24,.97,.51,1.49,.79-1.46,2.44-3.52,3.29-5.9,2.56-1.86-.57-3.22-2.53-3.22-4.6,0-2.46,1.75-4.7,4.11-5.28,2.27-.57,4.07,.27,5.35,2.55Z"/>
  <path class="cls-9" d="M508.43,226.64c.49,.29,.94,.56,1.39,.83-1.36,2.35-3.22,3.19-5.63,2.62-1.99-.48-3.47-2.45-3.48-4.64,0-2.45,1.73-4.7,4.08-5.3,2.27-.58,4.05,.24,5.38,2.54-.76,.65-1.35,1.06-2.37,.12-1.27-1.16-2.49-1.04-3.63-.04-1.16,1.01-1.52,2.89-.8,4.15,.71,1.25,2.22,1.68,3.52,.93,.54-.31,.98-.77,1.53-1.22Z"/>
  <path class="cls-19" d="M376.96,216.49c.2,.89,.33,1.56-.71,1.77-.87,.18-1.75,.41-1.75,1.73,.56,.14,1.14,.29,1.72,.44q.03,1.59-2.14,1.96c-.37,2.44-.75,4.94-1.14,7.54h-2.06c.3-2.48,.59-4.84,.88-7.24-.18-.15-.33-.37-.53-.42-.53-.16-1.22-.21-.98-1,.12-.38,.51-.95,.81-.96,.93-.05,1.12-.64,1.42-1.33,.91-2.12,1.71-2.54,4.48-2.48Z"/>
  <path class="cls-1" d="M325.41,218.47c.06-.61,.11-1.12,.17-1.75h9.02c-.03,.58-.06,1.08-.09,1.73-1.19,.08-2.27,.16-3.48,.24-.55,3.76-1.08,7.44-1.63,11.23h-2.15c.5-3.76,.98-7.44,1.48-11.22-1.13-.08-2.14-.15-3.32-.24Z"/>
  <path class="cls-19" d="M693.65,220.25c.74,.04,1.4,.08,2.35,.14-1.66,3.1-3.22,5.94-4.71,8.81-.54,1.04-1.32,.95-2.4,.66-.76-3.05-1.55-6.17-2.38-9.48h2.17c.49,1.98,.97,3.89,1.57,6.31,1.22-2.31,2.24-4.24,3.4-6.44Z"/>
  <path class="cls-1" d="M628.48,219.99c.64,.16,1.24,.3,1.78,.44,.55,.96-.12,1.58-2.2,2.06-.36,2.43-.74,4.93-1.12,7.48h-2.07c.32-2.5,.62-4.91,.92-7.29-.28-.77-1.69-.17-1.52-1.49,.16-1.26,1.21-.76,1.79-1.16,1.01-2.72,2.52-4.05,4.31-3.62,.38,.09,.61,.81,1,1.36-1.17,.72-2.67,.4-2.89,2.21Z"/>
  <path class="cls-9" d="M544.67,218.28c.03,.52,.07,1.06,.11,1.75,.56,.13,1.14,.27,1.67,.4,.51,1.05-.05,1.57-2.19,2.06-.22,1.67-.45,3.39-.7,5.19,.77,.34,1.38,.6,1.97,.85,.2,1.2-.29,1.68-1.44,1.6-1.73-.11-2.71-1.16-2.65-3,.03-.79,.23-1.57,.33-2.36,.09-.71,.14-1.42,.22-2.22-.52-.23-.99-.44-1.63-.73,.23-.55,.4-1.43,.62-1.45,1.61-.1,1.27-3.12,3.69-2.1Z"/>
  <path class="cls-1" d="M621.89,230.04c-3.35,.02-4.05-.69-3.81-3.62,.1-1.26,.3-2.52,.46-3.88-.45-.19-.86-.36-1.35-.56-.21-.8-.2-1.42,.75-1.92,.62-.33,1.02-1.07,1.76-1.89h1.48v1.81c.61,.16,1.2,.31,1.73,.44,.55,.94-.12,1.58-2.12,2.09-.2,1.2-.43,2.44-.6,3.7-.21,1.58-.18,1.6,1.81,2.2-.04,.5-.08,1.03-.12,1.63Z"/>
  <path class="cls-1" d="M707.79,222.54c-.49-.21-.9-.39-1.49-.65,.09-.47,.2-1.42,.29-1.42,1.74,.03,1.33-3.23,3.75-2.24,.04,.49,.09,1.07,.15,1.77,.56,.14,1.15,.28,1.65,.41,.54,.93-.13,1.57-2.17,2.12-.22,1.66-.45,3.38-.69,5.19,.71,.26,1.28,.47,1.98,.72-.05,.48-.1,1.01-.16,1.51-3.21,.25-4.05-.55-3.8-3.58,.1-1.19,.29-2.37,.48-3.83Z"/>
  <path class="cls-9" d="M645.53,216.59c-.63,4.49-1.25,8.87-1.88,13.35h-2.12c.43-3.16,.83-6.21,1.24-9.26,.13-.94,.29-1.88,.38-2.83,.12-1.35,.77-1.82,2.38-1.25Z"/>
  <path class="cls-9" d="M563.92,216.68h2.19c-.6,4.4-1.18,8.71-1.8,13.23-.68,.04-1.34,.07-2.25,.12,.63-4.54,1.23-8.84,1.85-13.35Z"/>
  <path class="cls-9" d="M651.62,229.94h-2.23c.62-4.45,1.22-8.75,1.83-13.18,.68-.05,1.28-.09,2.21-.16-.61,4.49-1.19,8.79-1.81,13.34Z"/>
  <path class="cls-9" d="M500.44,219.94c.09,1.24,.14,2.01-1.04,2.11-1.75,.16-2.37,1.37-2.58,2.93-.2,1.57-.43,3.14-.67,4.87-.61,.07-1.2,.14-2.14,.26,.44-3.32,.86-6.43,1.31-9.75,1.71,.06,3.36,.23,5.13-.42Z"/>
  <path class="cls-9" d="M334.63,220.32c1.73,.09,3.31,.19,5-.32,.26,1.16,.29,1.92-1.1,2.08-1.62,.19-2.21,1.38-2.4,2.84-.21,1.58-.43,3.15-.68,4.97-.62,.04-1.26,.09-2.16,.16,.47-3.37,.9-6.49,1.35-9.72Z"/>
  <path class="cls-9" d="M394.55,221.84c-2.87,.62-3.07,.82-3.54,3.55-.25,1.48-.44,2.97-.67,4.53-.65,.05-1.18,.08-2.08,.15,.42-3.24,.82-6.34,1.23-9.56,1.64-.55,3.39,.55,5.06-.86v2.19Z"/>
  <path class="cls-9" d="M715.14,229.94h-2.12c.42-3.18,.83-6.22,1.25-9.37,.37-.11,.72-.27,1.08-.31,.29-.03,.6,.08,1.12,.17-.45,3.19-.88,6.29-1.33,9.51Z"/>
  <path class="cls-9" d="M413.36,229.97h-2.08c.42-3.19,.83-6.29,1.26-9.55h2.2c-.47,3.28-.92,6.39-1.38,9.55Z"/>
  <path class="cls-9" d="M527.35,229.91h-2.17c.46-3.27,.89-6.37,1.34-9.56h2.1c-.42,3.15-.83,6.25-1.27,9.56Z"/>
  <path class="cls-9" d="M412.78,218.98c.15-.9,.26-1.57,.38-2.28h2.01c-.09,.79-.18,1.51-.27,2.28h-2.12Z"/>
  <path class="cls-9" d="M714.84,216.7h2.07c-.09,.78-.17,1.5-.26,2.28h-2.03c.08-.78,.14-1.5,.22-2.28Z"/>
  <path class="cls-19" d="M529.1,216.64c-.11,.94-.18,1.55-.27,2.29-.63,.03-1.21,.06-1.99,.09,.06-.82,.11-1.49,.17-2.29,.67-.03,1.25-.06,2.09-.1Z"/>
  <path class="cls-6" d="M260.25,207.14c-.14,.13-.27,.26-.41,.38,.14-.13,.27-.26,.41-.38Z"/>
  <path class="cls-7" d="M65.91,254.29c-.2,.04-.4,.09-.6,.13,.2-.04,.4-.09,.6-.13Z"/>
  <path class="cls-15" d="M169.6,123.09c-.47-1.46-.5-2.86-.13-4.41,.45-1.9,.4-3.92,.62-5.88,.25-2.27,.55-4.53,.82-6.8,.19-1.64,.36-3.29,.52-4.94,.36-3.69,.7-7.38,1.05-11.07,7.25,0,14.5,0,22.03,0,0,1.03,.13,1.82-.02,2.56-1.35,6.76-4.18,12.8-8.46,18.24-3.11,3.96-6.96,6.95-11.24,9.46-1.7,.99-3.46,1.9-5.19,2.84Z"/>
  <path class="cls-16" d="M432.8,229.44c.17-.06,.35-.13,.52-.19,.01,.2,.02,.39,.03,.59-.18-.13-.37-.26-.55-.4Z"/>
</svg>