<?xml version="1.0" encoding="utf-8"?>
<svg width="1515" height="8427" viewBox="0 0 1515 8427" fill="none" xmlns="http://www.w3.org/2000/svg">
<path d="M2 550V8227" stroke="#DBDBDB" stroke-dasharray="5 5"/>
<path opacity="0.5" d="M2 700V710" stroke="#0035C1" stroke-width="4"/>
<path opacity="0.5" d="M749 5317V5337" stroke="#0035C1" stroke-width="4"/>
<path opacity="0.5" d="M2 1720V1730" stroke="#0035C1" stroke-width="4"/>
<path opacity="0.5" d="M2 2280V2290" stroke="#0035C1" stroke-width="4"/>
<path opacity="0.5" d="M2 6829V6849" stroke="#0035C1" stroke-width="4"/>
<path opacity="0.5" d="M2 7879V7919" stroke="#0035C1" stroke-width="4"/>
<path opacity="0.5" d="M2 4320V4440" stroke="#FFD910" stroke-width="4"/>
<path d="M552 260V7937" stroke="#DBDBDB" stroke-dasharray="5 5"/>
<path opacity="0.5" d="M552 410V420" stroke="#0035C1" stroke-width="4"/>
<path opacity="0.5" d="M1299 5027V5047" stroke="#0035C1" stroke-width="4"/>
<path opacity="0.5" d="M552 1430V1440" stroke="#0035C1" stroke-width="4"/>
<path opacity="0.5" d="M552 1990V2000" stroke="#0035C1" stroke-width="4"/>
<path opacity="0.5" d="M552 6539V6559" stroke="#0035C1" stroke-width="4"/>
<path opacity="0.5" d="M552 7589V7629" stroke="#0035C1" stroke-width="4"/>
<path opacity="0.5" d="M552 4030V4150" stroke="#FFD910" stroke-width="4"/>
<path d="M1012 750V8427" stroke="#DBDBDB" stroke-dasharray="5 5"/>
<path opacity="0.5" d="M1012 900V910" stroke="#0035C1" stroke-width="4"/>
<path opacity="0.5" d="M1012 1920V1930" stroke="#0035C1" stroke-width="4"/>
<path opacity="0.5" d="M1012 2480V2490" stroke="#0035C1" stroke-width="4"/>
<path opacity="0.5" d="M1012 7029V7049" stroke="#0035C1" stroke-width="4"/>
<path opacity="0.5" d="M1012 8079V8119" stroke="#0035C1" stroke-width="4"/>
<path opacity="0.5" d="M1012 4520V4640" stroke="#FFD910" stroke-width="4"/>
<path d="M1512 0V7677" stroke="#DBDBDB" stroke-dasharray="5 5"/>
<path opacity="0.5" d="M1512 150V160" stroke="#0035C1" stroke-width="4"/>
<path opacity="0.5" d="M1512 1170V1180" stroke="#0035C1" stroke-width="4"/>
<path opacity="0.5" d="M1512 1730V1740" stroke="#0035C1" stroke-width="4"/>
<path opacity="0.5" d="M1512 6279V6299" stroke="#0035C1" stroke-width="4"/>
<path opacity="0.5" d="M1512 7329V7369" stroke="#0035C1" stroke-width="4"/>
<path opacity="0.5" d="M1512 3770V3890" stroke="#FFD910" stroke-width="4"/>
</svg>
