<?xml version="1.0" encoding="utf-8"?>
<!-- Generator: Adobe Illustrator 22.1.0, SVG Export Plug-In . SVG Version: 6.00 Build 0)  -->
<svg version="1.1" id="Layer_1" xmlns="http://www.w3.org/2000/svg" xmlns:xlink="http://www.w3.org/1999/xlink" x="0px" y="0px"
	 viewBox="0 0 1920 967" style="enable-background:new 0 0 1920 967;" xml:space="preserve">
<style type="text/css">
	.st0{fill:none;stroke:#3951D1;stroke-width:6;}
	.st1{fill:none;stroke:#FFD910;stroke-width:16;}
	.st2{fill:none;stroke:#FFD910;stroke-width:33;}
	.st3{fill:none;stroke:#FFFFFF;stroke-width:16;}
	.st4{fill:#FFFFFF;filter:url(#Adobe_OpacityMaskFilter);}
	.st5{mask:url(#path-6-inside-1_1_);fill:#FFFFFF;}
	.st6{fill:#FFFFFF;filter:url(#Adobe_OpacityMaskFilter_1_);}
	.st7{mask:url(#path-8-inside-2_1_);fill:#FFFFFF;}
	.st8{fill:#FFFFFF;filter:url(#Adobe_OpacityMaskFilter_2_);}
	.st9{mask:url(#path-10-inside-3_1_);fill:#FFD910;}
	.st10{fill:none;stroke:#1B31A8;stroke-width:6;stroke-opacity:0.5;}
	.st11{fill:none;stroke:#3951D1;stroke-width:3;}
	.st12{fill:#0C5DA3;}
</style>
<path class="st0" d="M566.7,264l24.2-26l10.4,34L566.7,264z"/>
<g>
	<path class="st1" d="M1515.9,853v-68l58.9,34L1515.9,853z"/>
</g>
<path class="st2" d="M205.3,268.3l38.8-21.7"/>
<path class="st2" d="M1705.4,272.2l6.3-7.9"/>
<g>
	<path class="st3" d="M287.3,924.2l22.4-66.5l46.4,52.7L287.3,924.2z"/>
</g>
<g>
	<defs>
		<filter id="Adobe_OpacityMaskFilter" filterUnits="userSpaceOnUse" x="1560.9" y="255.3" width="166.6" height="152.7">
			<feColorMatrix  type="matrix" values="1 0 0 0 0  0 1 0 0 0  0 0 1 0 0  0 0 0 1 0"/>
		</filter>
	</defs>
	<mask maskUnits="userSpaceOnUse" x="1560.9" y="255.3" width="166.6" height="152.7" id="path-6-inside-1_1_">
		<path class="st4" d="M1652.8,309.1l-8,0.8l4.7,6.5L1652.8,309.1z"/>
	</mask>
	<path class="st5" d="M1652.8,309.1l-4.6-45.8l79.3-8l-32.7,72.7L1652.8,309.1z M1644.8,309.9l-37.3,26.9l-46.6-64.6l79.3-8
		L1644.8,309.9z M1649.5,316.4l42,18.9l-32.7,72.7l-46.6-64.6L1649.5,316.4z M1657.4,354.8l-8,0.8l-9.3-91.5l8-0.8L1657.4,354.8z
		 M1682.1,283l4.7,6.5l-74.6,53.8l-4.7-6.5L1682.1,283z M1607.5,297.5l3.3-7.4l83.9,37.8l-3.3,7.4L1607.5,297.5z"/>
</g>
<g>
	<defs>
		<filter id="Adobe_OpacityMaskFilter_1_" filterUnits="userSpaceOnUse" x="609.3" y="869.7" width="164.8" height="159.3">
			<feColorMatrix  type="matrix" values="1 0 0 0 0  0 1 0 0 0  0 0 1 0 0  0 0 0 1 0"/>
		</filter>
	</defs>
	<mask maskUnits="userSpaceOnUse" x="609.3" y="869.7" width="164.8" height="159.3" id="path-8-inside-2_1_">
		<path class="st6" d="M681.1,959.9l-2.8,8.3l8.6-1.7L681.1,959.9z"/>
	</mask>
	<path class="st7" d="M681.1,959.9l-43.6-14.7l25.4-75.5l52.7,59.8L681.1,959.9z M678.3,968.2l9.1,45.1l-78.1,15.7l25.4-75.5
		L678.3,968.2z M686.8,966.4l34.5-30.4l52.7,59.8l-78.1,15.7L686.8,966.4z M724.7,974.6l-2.8,8.3l-87.2-29.3l2.8-8.3L724.7,974.6z
		 M669.2,923.1l8.6-1.7l18.2,90.2l-8.6,1.7L669.2,923.1z M652.3,996.9l-5.8-6.5l69-60.8l5.8,6.5L652.3,996.9z"/>
</g>
<g>
	<defs>
		<filter id="Adobe_OpacityMaskFilter_2_" filterUnits="userSpaceOnUse" x="322.2" y="677.2" width="174.5" height="155">
			<feColorMatrix  type="matrix" values="1 0 0 0 0  0 1 0 0 0  0 0 1 0 0  0 0 0 1 0"/>
		</filter>
	</defs>
	<mask maskUnits="userSpaceOnUse" x="322.2" y="677.2" width="174.5" height="155" id="path-10-inside-3_1_">
		<path class="st8" d="M419.2,726.7l-15.3,0.7l8.2,12.9L419.2,726.7z"/>
	</mask>
	<path class="st9" d="M419.2,726.7l-2-46l79.6-3.5L460,747.9L419.2,726.7z M403.9,727.4l-38.8,24.7L322.2,685l79.6-3.5L403.9,727.4z
		 M412.1,740.3l40.8,21.2l-36.7,70.7l-42.9-67.2L412.1,740.3z M421.2,772.7l-15.3,0.7l-4.1-91.9l15.3-0.7L421.2,772.7z M442.6,702.7
		l8.2,12.9l-77.6,49.5l-8.2-12.9L442.6,702.7z M371.3,719.1l7.1-13.6l81.6,42.4l-7.1,13.6L371.3,719.1z"/>
</g>
<g>
	<path class="st10" d="M566.2,683.3l-7.5-27.8l27.8,7.5L566.2,683.3z"/>
</g>
<g>
	<path class="st11" d="M209.4,684.1l15.7-16.8l6.7,22L209.4,684.1z"/>
</g>
<circle class="st12" cx="727.9" cy="743.7" r="4.5"/>
</svg>
