<?xml version="1.0" encoding="utf-8"?>
<svg width="65" height="88" viewBox="0 0 65 88" fill="none" xmlns="http://www.w3.org/2000/svg">
<path d="M62.8962 31.0107C58.8602 31.0036 55.5899 27.7332 55.5827 23.6972V1.75688C55.5827 0.949115 54.9278 0.294189 54.12 0.294189H43.8812C43.0734 0.294189 42.4185 0.949115 42.4185 1.75688V5.2672L41.9914 5.48074C35.8107 8.55254 28.5487 8.55254 22.3679 5.48074L21.9408 5.2672V1.75688C21.9408 0.949115 21.2859 0.294189 20.4782 0.294189H10.2393C9.43156 0.294189 8.77663 0.949115 8.77663 1.75688V23.6972C8.76949 27.7332 5.49915 31.0036 1.46318 31.0107C0.655414 31.0107 0.000488281 31.6656 0.000488281 32.4734V82.2049C0.00120244 82.8598 0.436867 83.4347 1.0668 83.6119L1.2382 83.6618C11.2999 86.5387 21.7144 87.9985 32.1797 87.9999C42.6428 88.0014 53.0552 86.5429 63.1154 83.6676L63.2926 83.6176C63.9254 83.4397 64.361 82.8619 64.3589 82.2049V57.3391C64.1123 55.6534 61.6801 55.6534 61.4335 57.3391V45.1253C61.6801 46.8111 64.1123 46.8111 64.3589 45.1253V32.4734C64.3589 31.6656 63.704 31.0107 62.8962 31.0107ZM32.1797 10.7016C35.7121 10.6916 39.2025 9.93024 42.4185 8.46755V8.55396C42.4192 14.0376 40.0524 19.2542 35.9257 22.8652L32.1797 26.1412L28.4337 22.8652C24.307 19.2542 21.9408 14.0376 21.9408 8.55396V8.46755C25.1569 9.93024 28.6472 10.6923 32.1797 10.7016ZM61.4335 81.0964C42.2914 86.3972 22.068 86.3972 2.92587 81.0964V33.8339C7.95958 33.0969 11.6934 28.7845 11.702 23.6972V3.21957H19.0155V8.55396C19.0148 14.8811 21.7459 20.9011 26.5075 25.0678L31.2155 29.1866C31.7676 29.6701 32.5918 29.6701 33.1439 29.1866L37.8519 25.0678C42.6135 20.9011 45.3446 14.8811 45.3439 8.55396V3.21957H52.6574V23.6972C52.6652 28.7845 56.3998 33.0983 61.4335 33.8339V57.4652V81.0964Z" fill="#0d5aa5"/>
<path d="M49.7318 44.1748H14.6272C13.8195 44.1748 13.1646 44.8297 13.1646 45.6375V70.5032C13.1646 71.311 13.8195 71.9659 14.6272 71.9659H49.7318C50.5396 71.9659 51.1945 71.311 51.1945 70.5032V45.6375C51.1945 44.8297 50.5396 44.1748 49.7318 44.1748ZM48.2691 47.1002V51.4883H16.0899V47.1002H48.2691ZM16.0899 69.0405V54.4136H48.2691V69.0405H16.0899Z" fill="#0d5aa5"/>
<path d="M23.9632 55.9879C23.4169 55.7587 22.7862 55.8844 22.3691 56.305L19.4437 59.2304C18.8895 59.8046 18.8974 60.7167 19.4616 61.2809C20.0258 61.8451 20.9379 61.853 21.5121 61.2987L21.9406 60.8702V66.1153C21.9406 66.9231 22.5955 67.578 23.4033 67.578C24.2111 67.578 24.866 66.9231 24.866 66.1153V57.3392C24.866 56.7478 24.5103 56.2143 23.9632 55.9879Z" fill="#0d5aa5"/>
<path d="M33.6428 55.8762H30.7174C29.1018 55.8762 27.792 57.1861 27.792 58.8016V60.2643C27.792 61.0721 28.4469 61.727 29.2547 61.727C30.0624 61.727 30.7174 61.0721 30.7174 60.2643V58.8016H33.6428V60.8228L28.6012 63.3432C28.1048 63.5911 27.792 64.0981 27.792 64.6524V66.1151C27.792 66.9228 28.4469 67.5777 29.2547 67.5777H35.1054C35.9132 67.5777 36.5681 66.9228 36.5681 66.1151C36.5681 65.3073 35.9132 64.6524 35.1054 64.6524H32.525L34.9505 63.4396C35.9453 62.9476 36.5724 61.9327 36.5681 60.8228V58.8016C36.5681 57.1861 35.2583 55.8762 33.6428 55.8762Z" fill="#0d5aa5"/>
<path d="M42.4183 55.8762H39.493C38.6852 55.8762 38.0303 56.5311 38.0303 57.3389C38.0303 58.1467 38.6852 58.8016 39.493 58.8016H42.4183V60.2643H39.493C38.6852 60.2643 38.0303 60.9192 38.0303 61.727C38.0303 62.5347 38.6852 63.1897 39.493 63.1897H42.4183V64.6524H39.493C38.6852 64.6524 38.0303 65.3073 38.0303 66.1151C38.0303 66.9228 38.6852 67.5777 39.493 67.5777H42.4183C44.0339 67.5777 45.3437 66.2679 45.3437 64.6524V63.1897C45.3409 62.6747 45.2002 62.1698 44.9373 61.727C45.2002 61.2842 45.3409 60.7792 45.3437 60.2643V58.8016C45.3437 57.1861 44.0339 55.8762 42.4183 55.8762Z" fill="#0d5aa5"/>
<path d="M45.3444 28.0854C42.1134 28.0854 39.4937 30.7052 39.4937 33.9362C39.4937 37.1673 42.1134 39.787 45.3444 39.787C48.5755 39.787 51.1952 37.1673 51.1952 33.9362C51.1952 30.7052 48.5755 28.0854 45.3444 28.0854ZM45.3444 36.8616C43.7289 36.8616 42.419 35.5517 42.419 33.9362C42.419 32.3207 43.7289 31.0108 45.3444 31.0108C46.9599 31.0108 48.2698 32.3207 48.2698 33.9362C48.2698 35.5517 46.9599 36.8616 45.3444 36.8616Z" fill="#0d5aa5"/>
<circle cx="63.0005" cy="51.5" r="1.5" fill="#0d5aa5"/>
</svg>
