<?xml version="1.0" encoding="utf-8"?>
<svg width="87" height="88" viewBox="0 0 87 88" fill="none" xmlns="http://www.w3.org/2000/svg">
<path d="M79.0632 24.9036L76.4534 25.9922L78.5839 31.103H69.2756V33.9305H79.7616L83.2961 42.4132L79.7616 50.8958H58.1973C54.414 47.3981 49.3753 45.2407 43.8277 45.2407C38.28 45.2407 33.2413 47.3981 29.4581 50.8958H5.65576V53.7234H26.902C24.2271 57.2719 22.6211 61.6702 22.6211 66.4473C22.6211 78.1407 32.1344 87.654 43.8277 87.654C55.521 87.654 65.0343 78.1407 65.0343 66.4473C65.0343 61.6702 63.4283 57.2719 60.7534 53.7234H78.5839L76.4548 58.8342L79.0646 59.9228L86.3583 42.4132L79.0632 24.9036ZM62.2068 66.4473C62.2068 76.5813 53.9616 84.8264 43.8277 84.8264C33.6937 84.8264 25.4486 76.5813 25.4486 66.4473C25.4486 56.3134 33.6937 48.0683 43.8277 48.0683C53.9616 48.0683 62.2068 56.3134 62.2068 66.4473Z" fill="#0d5aa5"/>
<path d="M11.3247 44.6612L36.2368 31.1667L39.3698 34.2996L33.5592 35.0263C31.3537 35.302 29.6897 37.1865 29.6897 39.409C29.6897 41.8449 31.6718 43.827 34.1077 43.827C34.98 43.827 35.8622 43.779 36.7303 43.6814L49.2012 42.2959L51.0108 35.0546L45.0447 26.702L52.7017 25.6077L55.4854 35.3444H63.6203C65.9586 35.3444 67.8616 33.4414 67.8616 31.1031C67.8616 28.7647 65.9586 26.8617 63.6203 26.8617H61.9506L60.6937 20.5775L55.1532 13.9299C53.7677 12.2645 51.7304 11.3102 49.5645 11.3102C49.2266 11.3102 48.8901 11.3399 48.5565 11.3865L42.613 8.41479L30.4969 10.838C28.3904 11.2607 26.8621 13.1241 26.8621 15.2716C26.8621 17.7641 28.8909 19.7929 31.3834 19.7929H32.1609L31.7608 20.0106L6.47688 35.9806C5.07724 36.8642 4.2417 38.3812 4.2417 40.0367V40.4425C4.2417 43.089 6.39347 45.2408 9.04005 45.2408C9.83459 45.2408 10.6249 45.0401 11.3247 44.6612ZM47.9514 35.6356L46.9349 39.703L36.4192 40.8708C35.6544 40.9571 34.8768 40.9995 34.1077 40.9995C33.2312 40.9995 32.5172 40.2855 32.5172 39.409C32.5172 38.6102 33.1166 37.9316 33.9098 37.8326L45.4561 36.3892L38.8297 29.7628L42.3825 27.8386L47.9514 35.6356ZM31.3834 16.9653C30.4488 16.9653 29.6897 16.2061 29.6897 15.2716C29.6897 14.4686 30.2622 13.7688 31.0511 13.6104L42.2143 11.3781L45.0164 12.7791L39.3104 15.8923L32.537 16.9441C32.4493 16.9582 32.3645 16.9653 32.2769 16.9653H31.3834ZM7.06925 40.4425V40.0367C7.06925 39.3581 7.4128 38.7346 7.98679 38.3713L33.193 22.4465L47.4325 14.6806C48.0843 14.3258 48.8209 14.1378 49.5645 14.1378C50.8906 14.1378 52.1347 14.7216 52.9816 15.7396L58.0641 21.8372L59.6348 29.6893H63.6203C64.4007 29.6893 65.034 30.3227 65.034 31.1031C65.034 31.8835 64.4007 32.5168 63.6203 32.5168H57.6174L54.7446 22.4606L43.3778 24.0837L9.97739 42.1757C9.69039 42.3298 9.36522 42.4133 9.04005 42.4133C7.95286 42.4133 7.06925 41.5296 7.06925 40.4425Z" fill="#0d5aa5"/>
<path d="M62.2068 16.9653C66.885 16.9653 70.6894 13.1608 70.6894 8.48265C70.6894 3.80447 66.885 0 62.2068 0C57.5286 0 53.7241 3.80447 53.7241 8.48265C53.7241 13.1608 57.5286 16.9653 62.2068 16.9653ZM62.2068 2.82755C65.3256 2.82755 67.8619 5.36386 67.8619 8.48265C67.8619 11.6014 65.3256 14.1377 62.2068 14.1377C59.088 14.1377 56.5517 11.6014 56.5517 8.48265C56.5517 5.36386 59.088 2.82755 62.2068 2.82755Z" fill="#0d5aa5"/>
<path d="M2.82804 50.896H0.000488281V53.7235H2.82804V50.896Z" fill="#0d5aa5"/>
<path d="M2.82804 21.2065H0.000488281V24.0341H2.82804V21.2065Z" fill="#0d5aa5"/>
<path d="M19.7935 21.2065H5.65576V24.0341H19.7935V21.2065Z" fill="#0d5aa5"/>
<path d="M5.65568 15.5515H2.82812V18.3791H5.65568V15.5515Z" fill="#0d5aa5"/>
<path d="M24.0344 15.5515H8.48291V18.3791H24.0344V15.5515Z" fill="#0d5aa5"/>
<path d="M8.48331 9.89648H5.65576V12.724H8.48331V9.89648Z" fill="#0d5aa5"/>
<path d="M25.4483 9.89648H11.3105V12.724H25.4483V9.89648Z" fill="#0d5aa5"/>
<path d="M43.8274 50.896C35.2529 50.896 28.2759 57.873 28.2759 66.4475V67.8613H29.6897H31.1034H32.5172V65.0337H31.1868C31.331 63.7373 31.6718 62.5017 32.1751 61.3523L33.3259 62.0168L34.7397 59.5681L33.6002 58.9093C34.3579 57.8829 35.2642 56.9781 36.2892 56.2203L36.948 57.3598L39.3966 55.946L38.7322 54.7952C39.8816 54.2905 41.1172 53.9512 42.4136 53.807V55.1373H45.2412V53.807C46.5376 53.9512 47.7732 54.2905 48.9226 54.7952L48.2582 55.946L50.7068 57.3598L51.3657 56.2203C52.3921 56.9781 53.2969 57.8843 54.0547 58.9093L52.9152 59.5681L54.3289 62.0168L55.4797 61.3523C55.9845 62.5017 56.3238 63.7373 56.468 65.0337H55.1376V67.8613H56.5514H57.9652H59.3789V66.4475C59.3789 57.873 52.4019 50.896 43.8274 50.896Z" fill="#0d5aa5"/>
<path d="M42.6751 72.6967L44.9746 74.3391L52.0424 64.4439L49.743 62.8015L42.6751 72.6967Z" fill="#0d5aa5"/>
<path d="M45.2411 77.7576H42.4136V80.5851H45.2411V77.7576Z" fill="#0d5aa5"/>
<path d="M50.8964 77.7576H48.0688V80.5851H50.8964V77.7576Z" fill="#0d5aa5"/>
<path d="M39.5863 77.7576H36.7588V80.5851H39.5863V77.7576Z" fill="#0d5aa5"/>
</svg>
