<?xml version="1.0" encoding="utf-8"?>
<svg width="88" height="87" viewBox="0 0 88 87" fill="none" xmlns="http://www.w3.org/2000/svg">
<path d="M43.6609 68.7756C43.5002 68.7756 43.3687 68.834 43.2664 68.9217L41.5433 70.236C41.3097 70.3819 41.1782 70.6594 41.1782 70.9224C41.1782 71.3021 41.4264 71.6817 41.7917 71.6817C41.8938 71.6817 42.0253 71.6526 42.1422 71.5503L42.6096 71.0829V78.8812C42.6096 79.2755 43.0769 79.4799 43.5588 79.4799C44.0261 79.4799 44.5079 79.2755 44.5079 78.8812V69.3891C44.5078 69.0092 44.0552 68.7756 43.6609 68.7756Z" fill="#0d5aa5"/>
<path d="M85.1669 67.3817H58.9627V63.3206C58.9627 62.2732 58.1106 61.4209 57.0632 61.4209H53.9677V37.0651C53.9677 32.0178 55.6598 27.0991 58.7323 23.2157C58.8424 23.0767 58.9539 22.9386 59.066 22.8022C59.8773 21.8176 60.4579 20.6918 60.7914 19.4559L64.5714 5.45314C64.9137 4.18415 64.667 2.84663 63.8945 1.78327C63.122 0.720068 61.9257 0.0720038 60.6121 0.00567061C58.5963 -0.0996822 56.7384 1.2733 56.2017 3.2616L53.8608 11.9326C53.387 13.688 51.7862 14.9138 49.9684 14.9138H49.2701C50.4855 13.5675 51.2268 11.7853 51.2268 9.833C51.2268 5.64756 47.8216 2.24234 43.6362 2.24234C39.4507 2.24234 36.0455 5.64756 36.0455 9.833C36.0455 11.7853 36.7869 13.5675 38.0023 14.9138H37.3456C35.5274 14.9138 33.9266 13.688 33.4529 11.9328L31.1443 3.38035C30.6079 1.39341 28.7957 0.00567061 26.7373 0.00567061C25.4241 0.00567061 24.2128 0.603688 23.4142 1.64636C22.6157 2.68903 22.3541 4.01416 22.6964 5.28213L26.5226 19.4559C26.8561 20.6918 27.4365 21.8176 28.2476 22.8021C28.3448 22.9203 28.4411 23.0392 28.5361 23.1587C31.5188 26.908 33.2108 31.6783 33.3008 36.5912C33.3135 37.2873 33.8816 37.8428 34.5748 37.8428C34.5826 37.8428 34.5906 37.8428 34.5986 37.8426C35.3025 37.8297 35.8626 37.2485 35.8498 36.5448C35.7497 31.0744 33.8609 25.757 30.5312 21.5714C30.4272 21.4406 30.322 21.3107 30.2155 21.1814C29.6367 20.4787 29.2224 19.6747 28.984 18.7917L25.1577 4.61744C25.0239 4.12189 25.1262 3.60395 25.4383 3.19628C25.7505 2.78861 26.224 2.555 26.7375 2.555C27.6461 2.555 28.4462 3.16761 28.683 4.04504L30.9916 12.5971C31.7651 15.4623 34.3779 17.4634 37.3456 17.4634H49.9684C52.9359 17.4634 55.5487 15.4623 56.3223 12.5973L58.6631 3.92612C58.8893 3.08804 59.6556 2.51191 60.4835 2.55178C61.0233 2.57909 61.5148 2.84528 61.832 3.28179C62.1493 3.71863 62.2505 4.26779 62.1099 4.78879L58.3299 18.7915C58.0916 19.6746 57.6773 20.4785 57.0979 21.1817C56.9751 21.331 56.8536 21.4815 56.7333 21.6334C53.3059 25.9657 51.4184 31.4461 51.4184 37.0651V61.4207H46.714V43.7727C46.714 42.0755 45.3334 40.6949 43.6362 40.6949C41.9392 40.6949 40.5586 42.0755 40.5586 43.7727V61.4209H35.8542V42.5214C35.8542 41.8173 35.2835 41.2466 34.5794 41.2466C33.8754 41.2466 33.3047 41.8173 33.3047 42.5214V61.4209H30.2091C29.1616 61.4209 28.3095 62.2732 28.3095 63.3206V67.3817H2.10531C1.05772 67.3817 0.205566 68.2341 0.205566 69.2816V84.9354C0.205566 85.9829 1.05772 86.835 2.10531 86.835H85.1669C86.2143 86.835 87.0665 85.9829 87.0665 84.9354V69.2816C87.0665 68.2341 86.2143 67.3817 85.1669 67.3817ZM43.636 14.8743C40.8563 14.8743 38.5949 12.6129 38.5949 9.833C38.5949 7.05311 40.8563 4.79184 43.636 4.79184C46.4159 4.79184 48.6773 7.05328 48.6773 9.83317C48.6773 12.6131 46.4159 14.8743 43.636 14.8743ZM28.3095 84.2855H2.75507V69.9312H28.3095V84.2855ZM43.636 43.2444C43.9273 43.2444 44.1643 43.4814 44.1643 43.7727V61.4209H43.1077V43.7727C43.1077 43.4814 43.3447 43.2444 43.636 43.2444ZM84.5171 84.2855H84.517H58.9626V79.4086C58.9626 78.7045 58.3919 78.1338 57.6878 78.1338C56.9838 78.1338 56.4131 78.7045 56.4131 79.4086V84.2855H30.859V63.9702H56.4132V73.3324C56.4132 74.0364 56.9839 74.6071 57.688 74.6071C58.392 74.6071 58.9627 74.0364 58.9627 73.3324V69.9312H84.5171V84.2855Z" fill="#0d5aa5"/>
</svg>
