<?xml version="1.0" encoding="utf-8"?>
<svg width="80" height="89" viewBox="0 0 80 89" fill="none" xmlns="http://www.w3.org/2000/svg">
<path d="M59.404 80.0263C58.8829 79.2265 57.8123 79.0003 57.0125 79.5214C51.4849 83.122 45.0594 85.0252 38.4314 85.0252C19.6337 85.0252 4.34059 69.7322 4.34059 50.9346C4.34059 44.1085 6.35026 37.5228 10.1527 31.8887C10.6867 31.0976 10.4781 30.0235 9.68699 29.4895C8.89601 28.9555 7.82161 29.1641 7.28761 29.9553C3.09874 36.1624 0.884277 43.4172 0.884277 50.9347C0.884277 60.9639 4.78991 70.3927 11.8816 77.4846C18.9732 84.5764 28.4022 88.4819 38.4314 88.4819C45.731 88.4819 52.8085 86.3849 58.8992 82.4178C59.6991 81.8969 59.9252 80.8261 59.404 80.0263Z" fill="#0d5aa5"/>
<path d="M65.2094 74.7857C64.5279 74.1174 63.4338 74.1283 62.7653 74.8097L62.7079 74.868C62.0357 75.5454 62.04 76.6397 62.7174 77.3121C63.0546 77.6465 63.4946 77.8134 63.9348 77.8134C64.3791 77.8134 64.8237 77.643 65.1616 77.3024L65.2331 77.2298C65.9016 76.5483 65.891 75.4542 65.2094 74.7857Z" fill="#0d5aa5"/>
<path d="M72.2101 28.3226C72.5476 28.6601 72.9898 28.8288 73.4321 28.8288C73.8743 28.8288 74.3165 28.6599 74.654 28.3226L77.5328 25.4438C79.5839 23.3923 79.5839 20.0544 77.5328 18.0029L71.3633 11.8334C70.3694 10.8397 69.0481 10.2924 67.6429 10.2924C66.2374 10.2924 64.9162 10.8397 63.9225 11.8334L61.0438 14.712C60.7197 15.036 60.5376 15.4756 60.5376 15.9339C60.5376 16.3923 60.7197 16.8319 61.0438 17.1559L61.861 17.9732L59.7903 20.0438C55.3993 16.994 50.4336 14.9371 45.1722 13.9889V11.0607H48.9743C49.9286 11.0607 50.7025 10.287 50.7025 9.33256V1.72816C50.7025 0.773696 49.9286 0 48.9743 0H27.8899C26.9357 0 26.1618 0.773696 26.1618 1.72816V9.33239C26.1618 10.2869 26.9357 11.0605 27.8899 11.0605H31.6921V13.9924C26.7457 14.8893 22.0256 16.773 17.7873 19.5677C16.9905 20.0933 16.7705 21.1651 17.2958 21.9621C17.8215 22.759 18.8935 22.979 19.6902 22.4534C25.2552 18.7837 31.7361 16.844 38.4322 16.844C57.2299 16.844 72.523 32.137 72.523 50.9348C72.523 57.3095 70.7531 63.5256 67.4044 68.9106C66.9005 69.7211 67.1488 70.7867 67.9595 71.2909C68.2436 71.4676 68.5588 71.5517 68.8704 71.5517C69.448 71.5517 70.0122 71.2624 70.3397 70.7359C74.0295 64.8024 75.9795 57.9553 75.9795 50.9348C75.9795 43.1904 73.6488 35.8053 69.3225 29.5765L71.3932 27.5059L72.2101 28.3226ZM41.7155 13.5309C40.6296 13.4375 39.5348 13.3875 38.4319 13.3875C37.3312 13.3873 36.2359 13.4361 35.1482 13.5306V11.0607H41.7154V13.5309H41.7155ZM33.4202 7.60423H29.6181V3.45649H47.246V7.60423H43.4439H33.4202ZM67.202 26.808C66.5002 25.9742 65.7615 25.1645 64.9815 24.3846C64.2018 23.6049 63.3922 22.8661 62.5581 22.1641L64.3048 20.4175L68.9485 25.0612L67.202 26.808ZM65.5271 16.7515C65.5268 16.7512 65.5264 16.751 65.5261 16.7507L64.7099 15.9345L66.3667 14.2779C66.7076 13.9369 67.1607 13.7492 67.6429 13.7492C68.1249 13.7492 68.5782 13.9369 68.9191 14.278L75.0887 20.4474C75.7924 21.1511 75.7924 22.2963 75.0887 23.0002L73.4321 24.6566L72.6174 23.842C72.6165 23.8411 72.6158 23.8403 72.615 23.8394L65.5271 16.7515Z" fill="#0d5aa5"/>
<path d="M38.4318 26.4395C37.4775 26.4395 36.7036 27.2131 36.7036 28.1676V31.9697C36.7036 32.9242 37.4773 33.6979 38.4318 33.6979C39.3861 33.6979 40.1599 32.9242 40.1599 31.9697V28.1676C40.1599 27.2131 39.3861 26.4395 38.4318 26.4395Z" fill="#0d5aa5"/>
<path d="M55.7522 33.614C55.4308 33.2926 54.9851 33.1077 54.5304 33.1077C54.0759 33.1077 53.63 33.2926 53.3088 33.614C52.9873 33.9355 52.8022 34.3813 52.8022 34.8358C52.8022 35.2921 52.9872 35.7362 53.3088 36.0576C53.63 36.3791 54.0759 36.564 54.5304 36.564C54.9851 36.564 55.4308 36.3791 55.7522 36.0576C56.0736 35.7362 56.2586 35.2903 56.2586 34.8358C56.2586 34.3813 56.0738 33.9355 55.7522 33.614Z" fill="#0d5aa5"/>
<path d="M61.1987 49.2063H57.3966C56.4423 49.2063 55.6685 49.98 55.6685 50.9345C55.6685 51.8889 56.4423 52.6626 57.3966 52.6626H61.1987C62.153 52.6626 62.9269 51.8889 62.9269 50.9345C62.9269 49.98 62.153 49.2063 61.1987 49.2063Z" fill="#0d5aa5"/>
<path d="M55.7522 65.8108C55.4308 65.4894 54.9851 65.3044 54.5304 65.3044C54.0759 65.3044 53.63 65.4894 53.3088 65.8108C52.9873 66.1322 52.8022 66.5781 52.8022 67.0326C52.8022 67.4888 52.9872 67.9347 53.3088 68.2544C53.63 68.5776 54.0759 68.7608 54.5304 68.7608C54.9851 68.7608 55.4308 68.5776 55.7522 68.2544C56.0736 67.933 56.2586 67.4888 56.2586 67.0326C56.2586 66.5781 56.0738 66.134 55.7522 65.8108Z" fill="#0d5aa5"/>
<path d="M38.4318 68.1709C37.4775 68.1709 36.7036 68.9446 36.7036 69.8991V73.7012C36.7036 74.6556 37.4775 75.4293 38.4318 75.4293C39.3861 75.4293 40.1599 74.6556 40.1599 73.7012V69.8991C40.1599 68.9448 39.3861 68.1709 38.4318 68.1709Z" fill="#0d5aa5"/>
<path d="M23.5549 65.8108C23.2333 65.4894 22.7876 65.3044 22.3331 65.3044C21.8786 65.3044 21.4328 65.4894 21.1115 65.8108C20.7901 66.1322 20.605 66.5781 20.605 67.0326C20.605 67.4888 20.7899 67.933 21.1115 68.2544C21.4328 68.5776 21.8786 68.7608 22.3331 68.7608C22.7876 68.7608 23.2335 68.5776 23.5549 68.2544C23.8764 67.933 24.0613 67.4888 24.0613 67.0326C24.0615 66.5781 23.8766 66.1322 23.5549 65.8108Z" fill="#0d5aa5"/>
<path d="M19.4668 49.2063H15.6647C14.7104 49.2063 13.9365 49.98 13.9365 50.9345C13.9365 51.8889 14.7104 52.6626 15.6647 52.6626H19.4668C20.4211 52.6626 21.195 51.8889 21.195 50.9345C21.1951 49.98 20.4213 49.2063 19.4668 49.2063Z" fill="#0d5aa5"/>
<path d="M23.5549 33.614C23.2335 33.2926 22.7876 33.1077 22.3331 33.1077C21.8786 33.1077 21.4328 33.2926 21.1115 33.614C20.7901 33.9355 20.605 34.3813 20.605 34.8358C20.605 35.2903 20.7899 35.7362 21.1115 36.0576C21.4328 36.3791 21.8786 36.564 22.3331 36.564C22.7876 36.564 23.2335 36.3791 23.5549 36.0576C23.8764 35.7362 24.0613 35.2903 24.0613 34.8358C24.0613 34.3813 23.8766 33.9355 23.5549 33.614Z" fill="#0d5aa5"/>
<path d="M51.9252 37.4412C51.3625 36.8787 50.4887 36.7729 49.8082 37.1849L35.5426 45.8212C35.3883 45.9088 35.1722 46.0358 35.026 46.1509C33.5327 47.2174 32.5562 48.9635 32.5562 50.9343C32.5562 54.1746 35.1921 56.8104 38.4321 56.8104C40.3952 56.8104 42.1357 55.8416 43.2031 54.3578C43.3309 54.1997 43.4499 53.9921 43.5469 53.8212L52.1814 39.5582C52.5934 38.8778 52.4875 38.0039 51.9252 37.4412ZM40.5693 52.0654L40.4265 52.3011C39.99 52.9362 39.2592 53.3541 38.4319 53.3541C37.0979 53.3541 36.0125 52.2688 36.0125 50.9346C36.0125 50.1072 36.4305 49.376 37.0659 48.9395L37.3003 48.7976C37.6381 48.6179 38.023 48.5152 38.4317 48.5152C39.7658 48.5152 40.8513 49.6005 40.8513 50.9348C40.8513 51.343 40.7486 51.7277 40.5693 52.0654ZM43.2699 47.6048C42.8629 47.0154 42.3513 46.5038 41.7617 46.0968L45.5835 43.7832L43.2699 47.6048Z" fill="#0d5aa5"/>
<path d="M38.4317 20.9968C21.9238 20.9968 8.49365 34.4267 8.49365 50.9345C8.49365 67.4424 21.9237 80.8724 38.4317 80.8724C54.9398 80.8724 68.3696 67.4424 68.3696 50.9345C68.3696 34.4267 54.9396 20.9968 38.4317 20.9968ZM38.4317 77.4159C23.8298 77.4159 11.9501 65.5364 11.9501 50.9345C11.9501 36.3327 23.8297 24.4531 38.4317 24.4531C53.0336 24.4531 64.9131 36.3327 64.9131 50.9345C64.9131 65.5364 53.0336 77.4159 38.4317 77.4159Z" fill="#0d5aa5"/>
<path d="M14.4314 24.2798C14.1098 23.9583 13.6641 23.7734 13.2096 23.7734C12.7551 23.7734 12.3092 23.9583 11.988 24.2798C11.6665 24.6012 11.4814 25.0471 11.4814 25.5016C11.4814 25.9578 11.6664 26.402 11.988 26.7234C12.3092 27.0448 12.7551 27.2298 13.2096 27.2298C13.6641 27.2298 14.11 27.0448 14.4314 26.7234C14.7528 26.402 14.9378 25.9561 14.9378 25.5016C14.9378 25.0473 14.753 24.6014 14.4314 24.2798Z" fill="#0d5aa5"/>
</svg>
