<?xml version="1.0" encoding="utf-8"?>
<svg width="61" height="60" viewBox="0 0 61 60" fill="none" xmlns="http://www.w3.org/2000/svg">
<path d="M59.9224 4H53.8286V0H51.7974V4H45.7036V0H43.6724V4H37.5786V0H35.5474V4H29.4536V0H27.4224V4H21.3286V0H19.2974V4H13.2036C12.9343 4 12.6759 4.10536 12.4855 4.29289C12.295 4.48043 12.188 4.73478 12.188 5V43H14.2192V16H58.9067V33H49.7661C49.4968 33 49.2384 33.1054 49.048 33.2929C48.8575 33.4804 48.7505 33.7348 48.7505 34V43H44.688V45H49.7661C50.0353 44.9994 50.2934 44.8941 50.4842 44.707L58.9067 36.414V47H45.7036V49H59.9224C60.1917 49 60.4501 48.8946 60.6405 48.7071C60.831 48.5196 60.938 48.2652 60.938 48V5C60.938 4.73478 60.831 4.48043 60.6405 4.29289C60.4501 4.10536 60.1917 4 59.9224 4ZM14.2192 14V6H19.2974V10H21.3286V6H27.4224V10H29.4536V6H35.5474V10H37.5786V6H43.6724V10H45.7036V6H51.7974V10H53.8286V6H58.9067V14H14.2192ZM50.7817 41.586V35H57.4706L50.7817 41.586Z" fill="#0d5aa5"/>
<path d="M18.2817 27H24.3755C24.6448 27 24.9032 26.8946 25.0936 26.7071C25.2841 26.5196 25.3911 26.2652 25.3911 26V20C25.3911 19.7348 25.2841 19.4804 25.0936 19.2929C24.9032 19.1054 24.6448 19 24.3755 19H18.2817C18.0124 19 17.754 19.1054 17.5636 19.2929C17.3731 19.4804 17.2661 19.7348 17.2661 20V26C17.2661 26.2652 17.3731 26.5196 17.5636 26.7071C17.754 26.8946 18.0124 27 18.2817 27ZM19.2974 21H23.3599V25H19.2974V21Z" fill="#0d5aa5"/>
<path d="M28.438 27H34.5317C34.8011 27 35.0594 26.8946 35.2499 26.7071C35.4404 26.5196 35.5474 26.2652 35.5474 26V20C35.5474 19.7348 35.4404 19.4804 35.2499 19.2929C35.0594 19.1054 34.8011 19 34.5317 19H28.438C28.1686 19 27.9103 19.1054 27.7198 19.2929C27.5294 19.4804 27.4224 19.7348 27.4224 20V26C27.4224 26.2652 27.5294 26.5196 27.7198 26.7071C27.9103 26.8946 28.1686 27 28.438 27ZM30.8897 25L33.5161 22.414V25H30.8897ZM32.08 21L29.4536 23.586V21H32.08Z" fill="#0d5aa5"/>
<path d="M38.5942 27H44.688C44.9573 27 45.2157 26.8946 45.4061 26.7071C45.5966 26.5196 45.7036 26.2652 45.7036 26V20C45.7036 19.7348 45.5966 19.4804 45.4061 19.2929C45.2157 19.1054 44.9573 19 44.688 19H38.5942C38.3249 19 38.0665 19.1054 37.8761 19.2929C37.6856 19.4804 37.5786 19.7348 37.5786 20V26C37.5786 26.2652 37.6856 26.5196 37.8761 26.7071C38.0665 26.8946 38.3249 27 38.5942 27ZM39.6099 21H43.6724V25H39.6099V21Z" fill="#0d5aa5"/>
<path d="M54.8442 27C55.1136 27 55.3719 26.8946 55.5624 26.7071C55.7529 26.5196 55.8599 26.2652 55.8599 26V20C55.8599 19.7348 55.7529 19.4804 55.5624 19.2929C55.3719 19.1054 55.1136 19 54.8442 19H48.7505C48.4811 19 48.2228 19.1054 48.0323 19.2929C47.8419 19.4804 47.7349 19.7348 47.7349 20V26C47.7349 26.2652 47.8419 26.5196 48.0323 26.7071C48.2228 26.8946 48.4811 27 48.7505 27H54.8442ZM49.7661 21H53.8286V25H49.7661V21Z" fill="#0d5aa5"/>
<path d="M17.2661 36C17.2661 36.2652 17.3731 36.5196 17.5636 36.7071C17.754 36.8946 18.0124 37 18.2817 37H24.3755C24.6448 37 24.9032 36.8946 25.0936 36.7071C25.2841 36.5196 25.3911 36.2652 25.3911 36V30C25.3911 29.7348 25.2841 29.4804 25.0936 29.2929C24.9032 29.1054 24.6448 29 24.3755 29H18.2817C18.0124 29 17.754 29.1054 17.5636 29.2929C17.3731 29.4804 17.2661 29.7348 17.2661 30V36ZM19.2974 31H23.3599V35H19.2974V31Z" fill="#0d5aa5"/>
<path d="M27.4224 36C27.4224 36.2652 27.5294 36.5196 27.7198 36.7071C27.9103 36.8946 28.1686 37 28.438 37H34.5317C34.8011 37 35.0594 36.8946 35.2499 36.7071C35.4404 36.5196 35.5474 36.2652 35.5474 36V30C35.5474 29.7348 35.4404 29.4804 35.2499 29.2929C35.0594 29.1054 34.8011 29 34.5317 29H28.438C28.1686 29 27.9103 29.1054 27.7198 29.2929C27.5294 29.4804 27.4224 29.7348 27.4224 30V36ZM29.4536 31H33.5161V35H29.4536V31Z" fill="#0d5aa5"/>
<path d="M37.5786 36C37.5786 36.2652 37.6856 36.5196 37.8761 36.7071C38.0665 36.8946 38.3249 37 38.5942 37H44.688C44.9573 37 45.2157 36.8946 45.4061 36.7071C45.5966 36.5196 45.7036 36.2652 45.7036 36V30C45.7036 29.7348 45.5966 29.4804 45.4061 29.2929C45.2157 29.1054 44.9573 29 44.688 29H38.5942C38.3249 29 38.0665 29.1054 37.8761 29.2929C37.6856 29.4804 37.5786 29.7348 37.5786 30V36ZM41.046 35L43.6724 32.414V35H41.046ZM42.2363 31L39.6099 33.586V31H42.2363Z" fill="#0d5aa5"/>
<path d="M5.07861 60H39.6099C40.9562 59.9984 42.2469 59.4711 43.1989 58.5338C44.1508 57.5964 44.6864 56.3256 44.688 55C44.6935 50.2455 43.7127 45.54 41.8056 41.172L41.5588 40.606C41.5043 40.4808 41.4243 40.368 41.3239 40.2743C41.2234 40.1807 41.1046 40.1082 40.9747 40.0614C40.8448 40.0146 40.7065 39.9944 40.5684 40.002C40.4303 40.0097 40.2952 40.0451 40.1715 40.106L37.5156 41.414C36.0303 42.148 34.3694 42.4683 32.7126 42.3403C31.0558 42.2124 29.466 41.641 28.115 40.688L25.9822 39.188C25.8259 39.0779 25.6412 39.0138 25.4493 39.003C25.2575 38.9922 25.0665 39.0352 24.8985 39.127L15.8442 44.081L3.4719 48.14C2.46043 48.471 1.58062 49.1075 0.957451 49.9589C0.334283 50.8103 -0.000558898 51.8335 0.000490741 52.883V55C0.00210341 56.3256 0.537636 57.5964 1.48962 58.5338C2.4416 59.4711 3.73231 59.9984 5.07861 60ZM39.6099 58H5.07861C4.44865 57.9992 3.83435 57.8066 3.31995 57.4485C2.80555 57.0905 2.41624 56.5845 2.20541 56H42.4831C42.2722 56.5845 41.8829 57.0905 41.3685 57.4485C40.8541 57.8066 40.2398 57.9992 39.6099 58ZM42.6415 54H27.5808C32.317 52.1814 37.3347 51.1752 42.416 51.025C42.5359 52.0083 42.611 53 42.6415 54ZM2.03174 52.883C2.03173 52.2534 2.23289 51.6397 2.60675 51.1289C2.9806 50.6182 3.50819 50.2361 4.11479 50.037L16.5714 45.949C16.6311 45.9291 16.6889 45.904 16.7441 45.874L25.3231 41.181L26.9349 42.314C28.5861 43.4786 30.5292 44.1769 32.5541 44.3334C34.5791 44.4899 36.609 44.0987 38.4246 43.202L40.1177 42.37C41.0169 44.5173 41.6838 46.752 42.1073 49.037C38.3495 49.189 29.7928 49.993 23.0928 54H2.03174V52.883Z" fill="#0d5aa5"/>
<path d="M28.8921 47.9L27.9841 46.11L22.5475 48.783L21.0342 47.293C20.8907 47.1519 20.7077 47.0563 20.5086 47.0185C20.3095 46.9807 20.1034 47.0025 19.917 47.081L12.8076 50.081L13.6079 51.919L20.0846 49.186L21.6304 50.707C21.781 50.8554 21.9752 50.9535 22.1856 50.9872C22.3959 51.021 22.6117 50.9887 22.8024 50.895L28.8921 47.9Z" fill="#0d5aa5"/>
</svg>
