<?xml version="1.0" encoding="utf-8"?>
<svg width="49" height="66" viewBox="0 0 49 66" fill="none" xmlns="http://www.w3.org/2000/svg">
<path d="M0 64H49C49 65.1046 48.1046 66 47 66H2C0.89543 66 0 65.1046 0 64Z" fill="#0d5aa5"/>
<path d="M31.289 37.9474V33.0542C34.835 30.815 37.1928 26.8772 37.1928 22.403V6.56505C37.1928 3.49214 34.6765 0.992432 31.5843 0.992432H29.5597V2.7523H31.5843C33.7002 2.7523 35.4216 4.46272 35.4216 6.56505V13.8975H20.9576V15.6569H35.4216V22.403C35.4216 28.3867 30.5222 33.2547 24.5 33.2547C20.8632 33.2547 17.476 31.4637 15.439 28.4636L13.9705 29.4475C14.9695 30.9189 16.249 32.1385 17.711 33.0588V37.9474H10.3314C4.63487 37.9474 0 42.5522 0 48.2122V52.8751L1.7712 52.8756V48.2122C1.7712 43.5223 5.61124 39.7073 10.3314 39.7073H12.1615V46.2189C8.83478 46.6515 6.2577 49.4841 6.2577 52.9054V59.6509H10.2134V57.8911H8.0289V52.9054C8.0289 50.1561 10.2798 47.9192 13.0471 47.9192C15.814 47.9192 18.0649 50.1561 18.0649 52.9054V57.8911H15.8809V59.6509H19.8361V52.9054C19.8361 49.4841 17.259 46.6515 13.9327 46.2189V39.7073H18.1055L24.5 49.8727L30.8946 39.7073H35.1857V47.9984C32.8395 48.4155 31.0531 50.4565 31.0531 52.9054C31.0531 55.6546 33.3039 57.8911 36.0708 57.8911C38.8382 57.8911 41.0891 55.6546 41.0891 52.9054C41.0891 50.4565 39.3027 48.4155 36.9564 47.9984V39.7073H38.6686C40.0878 39.7073 41.4932 40.0589 42.7326 40.7245L43.5749 39.1766C42.0774 38.3723 40.3809 37.9474 38.6686 37.9474H31.289ZM29.5182 38.5746L24.5 46.5526L19.4818 38.5746V33.9872C21.0438 34.6552 22.7468 35.0146 24.5 35.0146C26.2813 35.0146 27.9779 34.6474 29.5182 33.9859V38.5746ZM39.3179 52.9054C39.3179 54.6845 37.8614 56.1316 36.0708 56.1316C34.2807 56.1316 32.8242 54.6845 32.8242 52.9054C32.8242 51.1263 34.2807 49.6791 36.0708 49.6791C37.8614 49.6791 39.3179 51.1263 39.3179 52.9054Z" fill="#0d5aa5"/>
<path d="M48.9997 48.2122C48.9997 45.1081 47.6082 42.2042 45.1818 40.2438L44.0645 41.6095C46.0752 43.2338 47.2286 45.6406 47.2286 48.2122V61.0001H48.9997V48.2122Z" fill="#0d5aa5"/>
<path d="M0 54.6368H1.7712V61.0001H0V54.6368Z" fill="#0d5aa5"/>
<path d="M14.6289 27.0521C13.9322 25.5944 13.5788 24.0301 13.5788 22.403V15.6569H19.1873V13.8975H13.5788V6.56504C13.5788 4.46272 15.3002 2.7523 17.4161 2.7523H27.7889V0.992432H17.4161C14.3234 0.992432 11.8076 3.49214 11.8076 6.56504V22.403C11.8076 24.2933 12.2186 26.1118 13.0291 27.8071L14.6289 27.0521Z" fill="#0d5aa5"/>
<path d="M20.5771 30.6162L21.3388 29.0276C20.4329 28.5991 19.6353 28.0007 18.9681 27.2499L17.6406 28.415C18.4668 29.3444 19.4547 30.0852 20.5771 30.6162Z" fill="#0d5aa5"/>
<path d="M15.7417 25.0396C15.9315 25.6604 16.1896 26.2624 16.5089 26.8297L18.0543 25.9703C17.7972 25.5134 17.5894 25.0281 17.4364 24.5282L15.7417 25.0396Z" fill="#0d5aa5"/>
<path d="M35.1855 52.0254H36.9563V53.7853H35.1855V52.0254Z" fill="#0d5aa5"/>
<path d="M25.3855 11.8442V9.20485H28.0418V7.44498H25.3855V4.80518H23.6143V7.44498H20.9575V9.20485H23.6143V11.8442H25.3855Z" fill="#0d5aa5"/>
</svg>
