<?xml version="1.0" encoding="utf-8"?>
<svg width="27" height="60" viewBox="0 0 27 60" fill="none" xmlns="http://www.w3.org/2000/svg">
<path d="M26.2284 39.8041C26.2284 38.4692 25.6043 37.2799 24.6252 36.5164C25.6042 35.7529 26.2394 34.5636 26.2394 33.2287C26.2394 31.8233 25.512 30.579 24.4431 29.8235C25.5193 28.9734 26.1843 27.6584 26.1843 26.1837V17.4304L17.7575 6.45794H19.609V0H6.57574V6.45794H8.54459L0.000488281 17.4304V26.1839C0.000488281 27.6586 0.722479 28.9736 1.79861 29.8237C0.729744 30.5793 0.0445514 31.8234 0.0445514 33.229C0.0445514 34.5638 0.683337 35.7532 1.66232 36.5167C0.683337 37.2801 0.0555663 38.4695 0.0555663 39.8043C0.0555663 41.2098 0.727868 42.4541 1.79673 43.2096C0.720603 44.0596 0.000488281 45.3747 0.000488281 46.8494V54.364C0.000488281 56.9214 2.13985 59.0606 4.69711 59.0606H9.39373V58.9834C10.1755 59.5834 11.1524 60 12.2117 60H14.0904C15.1497 60 16.1266 59.5835 16.9083 58.9834V59.0606H21.605C24.1623 59.0606 26.1842 56.9213 26.1842 54.364V46.8494C26.1842 45.3747 25.5209 44.0597 24.4448 43.2096C25.5137 42.4539 26.2284 41.2096 26.2284 39.8041ZM8.33706 4.69662V1.7612H17.8478V4.69662H8.33706ZM10.7667 6.45794H15.5353L23.5738 16.908H2.72813L10.7667 6.45794ZM22.0748 37.4558C23.402 37.4558 24.4818 38.5356 24.4818 39.8628C24.4818 41.1901 23.402 42.2698 22.0748 42.2698H19.7265V44.031H21.6051C23.1913 44.031 24.4231 45.2628 24.4231 46.849V54.3637C24.4231 55.9499 23.1915 57.2991 21.6051 57.2991H18.3028C18.5752 56.5945 18.7284 55.9943 18.7284 55.303H16.9672C16.9672 56.8893 15.6767 58.2384 14.0905 58.2384H12.2117C10.6256 58.2384 9.33502 56.8894 9.33502 55.303H7.57382C7.57382 55.9944 7.72698 56.5947 7.99944 57.2991H4.69711C3.11098 57.2991 1.76169 55.95 1.76169 54.3637V46.849C1.76169 45.2628 3.11087 44.031 4.69711 44.031H14.0905V42.2698H4.22754C2.90028 42.2698 1.82052 41.1901 1.82052 39.8628C1.82052 38.5356 2.90028 37.4558 4.22754 37.4558H14.0905V35.6946H4.22754C2.90028 35.6946 1.82052 34.6148 1.82052 33.2876C1.82052 31.9603 2.90028 30.8805 4.22754 30.8805H14.0905V29.1193H4.69711C3.11098 29.1193 1.76169 27.7703 1.76169 26.1839V18.6693H24.4231V26.1839C24.4231 27.7702 23.1915 29.1193 21.6051 29.1193H19.7265V30.8805H22.0748C23.402 30.8805 24.4818 31.9603 24.4818 33.2876C24.4818 34.6148 23.402 35.6946 22.0748 35.6946H19.7265V37.4558H22.0748Z" fill="#0d5aa5"/>
<path d="M8.45431 13.1505H6.57568V14.9117H8.45431V13.1505Z" fill="#0d5aa5"/>
<path d="M10.3337 11.272H8.45508V13.0332H10.3337V11.272Z" fill="#0d5aa5"/>
<path d="M17.8479 35.6946H15.9692V37.4558H17.8479V35.6946Z" fill="#0d5aa5"/>
<path d="M17.8479 29.1193H15.9692V30.8805H17.8479V29.1193Z" fill="#0d5aa5"/>
<path d="M17.8479 42.2698H15.9692V44.031H17.8479V42.2698Z" fill="#0d5aa5"/>
</svg>
