<?xml version="1.0" encoding="utf-8"?>
<svg width="60" height="60" viewBox="0 0 60 60" fill="none" xmlns="http://www.w3.org/2000/svg">
<path d="M31.0141 0.343115C30.7961 0.125146 30.4937 -0.000244141 30.1855 -0.000244141C29.8773 -0.000244141 29.575 0.125029 29.357 0.343115C29.1391 0.5612 29.0137 0.863426 29.0137 1.17163C29.0137 1.47983 29.1391 1.78217 29.357 2.00003C29.575 2.21811 29.8773 2.3435 30.1855 2.3435C30.4937 2.3435 30.7949 2.21811 31.0141 2.00003C31.232 1.78217 31.3574 1.47983 31.3574 1.17163C31.3574 0.863426 31.232 0.561083 31.0141 0.343115Z" fill="#0d5aa5"/>
<path d="M57.6566 11.3257V8.02688C57.6566 6.24938 56.2105 4.80329 54.433 4.80329H52.3984C51.8993 2.07541 49.5064 0.000488281 46.6363 0.000488281H35.1958C34.5486 0.000488281 34.0239 0.525253 34.0239 1.17236C34.0239 1.81947 34.5486 2.34423 35.1958 2.34423H46.6363C48.5748 2.34423 50.152 3.92134 50.152 5.85985V9.37547H38.9067V5.85985C38.9067 5.21274 38.382 4.68798 37.7348 4.68798H22.2661C21.6188 4.68798 21.0942 5.21274 21.0942 5.85985V9.37547H9.85957V5.85985C9.85957 3.92134 11.4367 2.34423 13.3752 2.34423H25.1372C25.7844 2.34423 26.309 1.81947 26.309 1.17236C26.309 0.525253 25.7844 0.000488281 25.1372 0.000488281H13.3752C10.5053 0.000488281 8.11219 2.07529 7.61309 4.80329H5.56782C3.79032 4.80329 2.34423 6.24938 2.34423 8.02688V11.3257C0.980291 11.8095 0.000488281 13.112 0.000488281 14.6398V19.0189C0.000488281 20.9574 1.57759 22.5345 3.51611 22.5345C5.45462 22.5345 7.03172 20.9574 7.03172 19.0189V14.6398C7.03172 13.1121 6.05192 11.8095 4.68798 11.3257V8.02688C4.68798 7.54172 5.08267 7.14704 5.56782 7.14704H7.51594V46.0551C7.51594 48.4089 8.91188 50.4418 10.9187 51.3726V55.5473C10.9187 58.0027 12.9164 60.0004 15.3718 60.0004C17.8273 60.0004 19.8249 58.0027 19.8249 55.5473V51.9145H40.2059V55.5473C40.2059 58.0027 42.2036 60.0004 44.659 60.0004C47.1145 60.0004 49.1122 58.0027 49.1122 55.5473V51.364C51.1088 50.4291 52.4958 48.4015 52.4958 46.0551V7.14704H54.4332C54.9183 7.14704 55.313 7.54172 55.313 8.02688V11.3257C53.9491 11.8095 52.9693 13.112 52.9693 14.6398V19.0189C52.9693 20.9574 54.5464 22.5345 56.4849 22.5345C58.4234 22.5345 60.0005 20.9574 60.0005 19.0189V14.6398C60.0004 13.112 59.0206 11.8096 57.6566 11.3257ZM4.68798 19.019C4.68798 19.6652 4.16228 20.1909 3.51611 20.1909C2.86994 20.1909 2.34423 19.6652 2.34423 19.019V14.6399C2.34423 13.9937 2.86994 13.468 3.51611 13.468C4.16228 13.468 4.68798 13.9937 4.68798 14.6399V19.019ZM38.279 11.7192L34.6285 15.3697C34.1709 15.8273 34.1709 16.5694 34.6285 17.0271C34.8574 17.2558 35.1573 17.3703 35.4571 17.3703C35.757 17.3703 36.057 17.2558 36.2858 17.0271L41.5937 11.7192H48.489L31.1728 29.0353V11.7192H38.279ZM23.4379 7.03172H36.5629V9.37547H23.4379V7.03172ZM23.8226 27.4926C23.3649 27.0352 22.623 27.0351 22.1652 27.4926L14.8809 34.7769H14.1299L10.5056 31.1526L28.829 12.8292V34.7769H18.1956L23.8226 29.1499C24.2802 28.6923 24.2803 27.9502 23.8226 27.4926ZM9.85957 11.7192H26.6244L9.85957 28.484V11.7192ZM17.4811 55.5473C17.4811 56.7103 16.5348 57.6566 15.3717 57.6566C14.2086 57.6566 13.2623 56.7103 13.2623 55.5473V51.9145H13.3752H17.4811V55.5473ZM46.7683 55.5473C46.7683 56.7103 45.822 57.6566 44.6589 57.6566C43.4958 57.6566 42.5495 56.7103 42.5495 55.5473V51.9145H46.6363H46.7683V55.5473ZM50.152 46.0551C50.152 47.9936 48.5748 49.5707 46.6363 49.5707H13.3752C11.4367 49.5707 9.85957 47.9936 9.85957 46.0551V33.8212L12.8159 36.7775C13.0356 36.9972 13.3337 37.1207 13.6445 37.1207H46.3564C46.6672 37.1207 46.9653 36.9972 47.185 36.7775L50.152 33.8105V46.0551ZM50.152 30.4959L45.871 34.7769H31.1728V32.3499L50.152 13.3709V30.4959ZM57.6566 19.019C57.6566 19.6652 57.1309 20.1909 56.4848 20.1909C55.8386 20.1909 55.3129 19.6652 55.3129 19.019V14.6399C55.3129 13.9937 55.8386 13.468 56.4848 13.468C57.1309 13.468 57.6566 13.9937 57.6566 14.6399V19.019Z" fill="#0d5aa5"/>
<path d="M16.4121 39.8293C14.4736 39.8293 12.8965 41.4065 12.8965 43.345C12.8965 45.2835 14.4736 46.8606 16.4121 46.8606C18.3506 46.8606 19.9277 45.2835 19.9277 43.345C19.9277 41.4065 18.3506 39.8293 16.4121 39.8293ZM16.4121 44.5168C15.7659 44.5168 15.2402 43.9911 15.2402 43.345C15.2402 42.6988 15.7659 42.1731 16.4121 42.1731C17.0583 42.1731 17.584 42.6988 17.584 43.345C17.584 43.9911 17.0583 44.5168 16.4121 44.5168Z" fill="#0d5aa5"/>
<path d="M43.5889 39.8293C41.6503 39.8293 40.0732 41.4065 40.0732 43.345C40.0732 45.2835 41.6503 46.8606 43.5889 46.8606C45.5274 46.8606 47.1045 45.2835 47.1045 43.345C47.1045 41.4065 45.5274 39.8293 43.5889 39.8293ZM43.5889 44.5168C42.9427 44.5168 42.417 43.9911 42.417 43.345C42.417 42.6988 42.9427 42.1731 43.5889 42.1731C44.235 42.1731 44.7607 42.6988 44.7607 43.345C44.7607 43.9911 44.235 44.5168 43.5889 44.5168Z" fill="#0d5aa5"/>
<path d="M36.104 39.8293H23.9165C23.2693 39.8293 22.7446 40.3541 22.7446 41.0012V45.6887C22.7446 46.3358 23.2693 46.8606 23.9165 46.8606H36.104C36.7512 46.8606 37.2759 46.3358 37.2759 45.6887V41.0012C37.2759 40.354 36.7512 39.8293 36.104 39.8293ZM34.9321 44.5168H25.0884V42.1731H34.9321V44.5168Z" fill="#0d5aa5"/>
</svg>
