<?xml version="1.0" standalone="no"?>
<!DOCTYPE svg PUBLIC "-//W3C//DTD SVG 20010904//EN"
 "http://www.w3.org/TR/2001/REC-SVG-20010904/DTD/svg10.dtd">
<svg version="1.0" xmlns="http://www.w3.org/2000/svg"
 width="3508.000000pt" height="2481.000000pt" viewBox="0 0 3508.000000 2481.000000"
 preserveAspectRatio="xMidYMid meet">
<metadata>
Created by potrace 1.16, written by Peter Selinger 2001-2019
</metadata>
<g transform="translate(0.000000,2481.000000) scale(0.100000,-0.100000)"
fill="#000000" stroke="none">
<path d="M9760 18554 c-76 -10 -209 -48 -291 -83 -493 -213 -745 -783 -573
-1296 125 -375 452 -648 843 -706 109 -15 301 -6 406 20 374 92 663 379 767
761 31 116 33 384 4 500 -46 184 -128 336 -251 467 -102 110 -186 173 -310
234 -141 69 -267 99 -430 104 -71 2 -146 1 -165 -1z"/>
<path d="M4592 17510 c-483 -68 -864 -467 -901 -945 -29 -378 122 -721 414
-938 188 -140 393 -207 630 -207 499 0 919 336 1026 822 24 108 29 304 10 408
-89 491 -500 848 -996 865 -66 2 -148 0 -183 -5z"/>
<path d="M9650 16169 c-471 -54 -914 -366 -1139 -801 -26 -51 -59 -123 -72
-160 l-24 -67 -1965 -4 c-1961 -3 -1965 -3 -2060 -24 -148 -33 -226 -60 -355
-123 -157 -76 -276 -161 -405 -290 -206 -206 -340 -445 -399 -710 -13 -58 -78
-623 -167 -1445 -159 -1475 -157 -1439 -108 -1584 35 -104 76 -172 152 -253
107 -113 238 -182 393 -207 42 -7 594 -11 1642 -11 1747 0 1644 4 1792 -65
260 -120 453 -410 494 -740 6 -49 11 -96 11 -102 0 -10 91 -13 420 -13 l420 0
0 44 c0 23 -5 101 -10 171 -27 331 -117 599 -285 850 -269 403 -643 632 -1100
675 -67 6 -533 10 -1202 10 l-1092 0 6 48 c3 26 64 540 137 1142 l131 1095
1678 3 c1663 2 1677 2 1677 -18 0 -11 -31 -311 -70 -667 -38 -356 -70 -660
-70 -675 l0 -27 -106 50 c-278 130 -585 206 -929 229 -199 13 -1087 13 -1195
0 -112 -14 -261 -66 -362 -126 -89 -53 -243 -197 -297 -277 -74 -110 -132
-253 -155 -384 l-5 -33 934 0 c1010 0 1043 -1 1263 -55 424 -103 806 -386
1075 -795 167 -255 268 -528 313 -845 27 -190 22 -516 -12 -737 l-6 -38 -599
-2 -600 -3 -30 -89 c-117 -350 -366 -642 -647 -761 -173 -73 -108 -69 -1297
-76 -1174 -6 -1099 -2 -1355 -70 -685 -180 -1288 -724 -1548 -1394 -62 -162
-112 -354 -128 -493 l-7 -62 2049 3 c2047 3 2049 3 2179 24 182 30 262 48 402
89 479 138 935 412 1329 796 l130 127 1580 4 1579 3 140 22 c589 95 1064 316
1550 721 123 102 373 353 478 481 474 569 742 1229 808 1989 17 194 7 599 -19
768 -79 509 -273 944 -600 1342 -422 514 -951 808 -1617 898 -112 15 -216 18
-765 18 -727 0 -699 3 -895 -94 -193 -96 -342 -245 -435 -436 -41 -84 -90
-236 -90 -282 0 -9 225 -13 993 -16 1067 -4 1010 -1 1227 -57 623 -159 1155
-728 1320 -1413 60 -249 76 -541 45 -827 -8 -74 -15 -143 -15 -152 0 -17 -35
-18 -602 -18 l-603 0 -23 -77 c-51 -167 -159 -359 -282 -502 -131 -152 -331
-278 -510 -321 -82 -19 -117 -20 -1030 -20 -850 0 -1112 -6 -1234 -26 l-39 -6
6 58 c61 563 3 1060 -174 1506 -76 194 -216 443 -335 601 -24 31 -44 60 -44
62 0 3 687 4 1528 3 l1527 -3 65 -23 c236 -85 426 -282 520 -540 34 -93 60
-223 60 -298 l0 -54 420 0 420 0 0 108 c0 469 -189 917 -522 1238 -208 200
-444 322 -738 381 -76 15 -202 17 -1252 20 -682 2 -1168 8 -1168 13 0 5 61
515 135 1133 74 619 135 1130 135 1136 0 8 473 11 1723 11 1872 0 1791 -2
2004 56 288 77 537 226 768 458 276 277 431 585 490 974 l7 42 -2644 -1
c-1453 -1 -2677 -5 -2718 -10z"/>
<path d="M15200 16085 l0 -95 145 0 145 0 0 -460 0 -460 105 0 105 0 0 460 0
460 140 0 140 0 0 95 0 95 -390 0 -390 0 0 -95z"/>
<path d="M16090 15625 l0 -555 105 0 105 0 0 220 0 220 235 0 235 0 0 -220 0
-220 105 0 105 0 0 555 0 555 -105 0 -105 0 0 -240 0 -240 -235 0 -235 0 0
240 0 240 -105 0 -105 0 0 -555z"/>
<path d="M15413 13028 l3 -1323 26 -107 c69 -279 196 -499 402 -695 252 -241
571 -379 961 -414 562 -50 1098 157 1410 544 174 215 274 459 305 739 6 62 10
542 10 1338 l0 1240 -400 0 -400 0 0 -1199 c0 -792 -4 -1226 -11 -1278 -37
-273 -214 -510 -454 -610 -151 -63 -386 -71 -540 -19 -215 73 -386 239 -465
451 -51 138 -50 118 -50 1431 l0 1224 -400 0 -401 0 4 -1322z"/>
<path d="M19150 12444 l0 -1905 918 4 c807 3 930 6 1022 21 361 59 601 173
795 377 82 87 134 163 180 262 152 332 137 825 -35 1105 -53 85 -162 208 -229
257 -22 17 -41 32 -41 35 0 3 24 34 53 70 90 112 161 270 186 414 25 138 6
393 -39 537 -104 337 -354 569 -726 673 -192 54 -227 56 -1193 56 l-891 0 0
-1906z m1835 1207 c42 -17 78 -42 122 -86 53 -53 64 -71 84 -134 52 -174 -4
-354 -139 -439 -95 -61 -108 -62 -629 -62 l-473 0 0 375 0 376 488 -3 487 -3
60 -24z m35 -1445 c181 -59 295 -177 335 -348 52 -222 -42 -449 -226 -548
-120 -64 -115 -63 -671 -67 l-508 -4 0 496 0 496 508 -3 c454 -4 513 -6 562
-22z"/>
<path d="M23665 14338 c-8 -21 -1048 -3097 -1170 -3461 l-114 -337 436 2 436
3 126 385 127 385 692 3 691 2 128 -390 128 -390 438 0 c413 0 438 1 433 18
-4 9 -293 865 -644 1902 l-638 1885 -532 3 c-421 2 -534 0 -537 -10z m770
-1603 c125 -388 226 -707 223 -710 -3 -3 -212 -4 -465 -3 l-461 3 231 708
c127 389 234 707 237 707 4 0 109 -317 235 -705z"/>
<path d="M25783 14308 c14 -24 300 -509 636 -1077 l611 -1035 0 -828 0 -828
400 0 400 0 0 835 0 836 611 1037 c336 570 620 1052 631 1070 l20 32 -460 0
-460 0 -361 -639 c-199 -351 -368 -646 -374 -656 -12 -15 -61 67 -386 639
l-374 656 -459 0 -460 0 25 -42z"/>
<path d="M30110 14328 c-9 -22 -1280 -3779 -1280 -3785 0 -2 196 -3 435 -3
l434 0 128 390 127 390 691 0 691 0 129 -390 129 -390 433 0 c350 0 433 3 433
13 0 7 -288 863 -639 1903 l-639 1889 -531 3 -531 2 -10 -22z m773 -1595 c125
-385 227 -704 227 -707 0 -3 -210 -6 -466 -6 -369 0 -465 3 -462 13 3 6 108
328 234 714 126 386 231 699 235 695 3 -4 108 -323 232 -709z"/>
<path d="M17346 9850 c-44 -13 -86 -59 -98 -107 -10 -41 -12 -43 -49 -43 -36
0 -39 -2 -39 -29 0 -16 -3 -36 -6 -45 -5 -13 1 -16 33 -16 l40 0 -23 -157
c-13 -87 -24 -159 -24 -160 0 -2 22 -3 48 -3 l49 0 17 138 c25 193 20 182 71
182 46 0 55 9 55 61 0 28 -2 29 -45 29 -50 0 -49 -1 -34 34 12 25 70 53 88 42
11 -7 21 17 21 55 0 27 -3 29 -37 28 -21 0 -51 -5 -67 -9z"/>
<path d="M23125 9838 c-6 -27 -75 -521 -75 -537 0 -6 19 -11 44 -11 51 0 47
-9 67 150 7 52 18 107 25 122 28 55 87 74 132 42 27 -19 29 -64 7 -204 -8 -52
-15 -98 -15 -102 0 -5 20 -8 44 -8 34 0 46 4 50 18 14 50 37 267 32 296 -17
88 -141 132 -224 79 -22 -14 -23 -13 -19 4 3 10 8 41 12 68 3 28 8 62 11 78 5
26 4 27 -40 27 -39 0 -46 -3 -51 -22z"/>
<path d="M27936 9850 c-44 -13 -86 -59 -98 -107 -10 -41 -12 -43 -49 -43 -36
0 -39 -2 -39 -29 0 -16 -3 -36 -6 -45 -5 -13 1 -16 33 -16 l40 0 -23 -157
c-13 -87 -24 -159 -24 -160 0 -2 22 -3 48 -3 l49 0 17 138 c25 193 20 182 71
182 46 0 55 9 55 61 0 28 -2 29 -45 29 -50 0 -49 -1 -34 34 12 25 70 53 88 42
11 -7 21 17 21 55 0 27 -3 29 -37 28 -21 0 -51 -5 -67 -9z"/>
<path d="M28545 9838 c-6 -27 -75 -521 -75 -537 0 -6 19 -11 45 -11 42 0 44 1
49 33 3 17 20 131 36 252 17 121 33 235 37 253 l5 32 -46 0 c-39 0 -46 -3 -51
-22z"/>
<path d="M15290 9821 c0 -16 -3 -36 -6 -45 -5 -14 5 -16 70 -16 l77 0 -6 -32
c-3 -18 -18 -124 -33 -235 l-28 -203 47 0 c55 0 46 -28 85 263 l28 207 72 0
c77 0 83 5 84 68 l0 22 -195 0 -195 0 0 -29z"/>
<path d="M20156 9583 c-20 -148 -36 -274 -36 -280 0 -9 16 -13 45 -13 42 0 44
2 50 33 9 57 25 162 25 170 0 4 24 7 53 7 l53 0 43 -105 43 -105 54 0 53 0
-34 80 c-19 44 -39 88 -45 99 -16 30 -13 37 25 60 66 38 99 132 75 208 -29 89
-80 112 -246 113 l-121 0 -37 -267z m291 155 c33 -31 31 -79 -6 -120 -28 -31
-33 -33 -111 -36 -76 -4 -82 -3 -77 14 3 11 8 44 12 74 11 94 8 90 88 90 59 0
75 -4 94 -22z"/>
<path d="M25196 9583 c-20 -148 -36 -274 -36 -280 0 -9 16 -13 44 -13 53 0 44
-28 86 275 16 121 32 235 35 253 l6 32 -49 0 -49 0 -37 -267z"/>
<path d="M28836 9583 c-20 -148 -36 -274 -36 -280 0 -9 16 -13 44 -13 53 0 44
-28 86 275 16 121 32 235 35 253 l6 32 -49 0 -49 0 -37 -267z"/>
<path d="M24344 9763 c-9 -39 -33 -63 -61 -63 -17 0 -23 -6 -23 -22 0 -13 -3
-33 -6 -45 -6 -21 -3 -23 31 -23 l38 0 -7 -42 c-3 -24 -9 -82 -13 -130 -5 -71
-3 -92 11 -112 18 -28 76 -49 121 -44 27 3 30 7 33 44 3 39 2 41 -28 41 -52 0
-55 10 -39 130 l14 108 48 3 c41 3 47 6 47 25 0 12 3 32 6 45 6 20 3 22 -40
22 l-47 0 7 45 6 45 -46 0 c-42 0 -46 -2 -52 -27z"/>
<path d="M27534 9763 c-9 -39 -33 -63 -61 -63 -17 0 -23 -6 -23 -22 0 -13 -3
-33 -6 -45 -6 -21 -3 -23 31 -23 l38 0 -7 -42 c-3 -24 -9 -82 -13 -130 -5 -71
-3 -92 11 -112 18 -28 76 -49 121 -44 27 3 30 7 33 44 3 39 2 41 -28 41 -52 0
-55 10 -39 130 l14 108 48 3 c41 3 47 6 47 25 0 12 3 32 6 45 6 20 3 22 -40
22 l-47 0 7 45 6 45 -46 0 c-42 0 -46 -2 -52 -27z"/>
<path d="M31254 9763 c-9 -39 -33 -63 -61 -63 -17 0 -23 -6 -23 -22 0 -13 -3
-33 -6 -45 -6 -21 -3 -23 31 -23 l38 0 -7 -42 c-3 -24 -9 -82 -13 -130 -5 -71
-3 -92 11 -112 18 -28 76 -49 121 -44 27 3 30 7 33 44 3 39 2 41 -28 41 -52 0
-55 10 -39 130 l14 108 48 3 c41 3 47 6 47 25 0 12 3 32 6 45 6 20 3 22 -40
22 l-47 0 7 45 6 45 -46 0 c-42 0 -46 -2 -52 -27z"/>
<path d="M16055 9701 c-65 -17 -125 -63 -125 -96 0 -6 15 -19 34 -28 33 -15
35 -15 53 5 47 54 136 55 149 2 4 -14 4 -27 2 -29 -3 -3 -44 -12 -92 -20 -141
-25 -186 -60 -186 -144 0 -49 18 -80 57 -100 31 -16 117 -14 158 3 19 8 35 11
35 5 0 -5 20 -9 45 -9 25 0 45 4 45 9 0 6 9 70 20 144 24 168 16 208 -49 242
-35 17 -108 26 -146 16z"/>
<path d="M16517 9700 c-16 -5 -35 -14 -43 -21 -11 -9 -14 -8 -14 5 0 12 -10
16 -43 16 l-43 0 -27 -197 c-15 -109 -27 -201 -27 -205 0 -5 20 -8 44 -8 50 0
45 -11 66 150 6 47 16 98 22 113 23 59 89 84 136 51 27 -19 29 -64 7 -204 -8
-52 -15 -98 -15 -102 0 -5 20 -8 45 -8 52 0 46 -11 70 153 19 134 19 151 0
191 -26 55 -112 87 -178 66z"/>
<path d="M16878 9698 c-56 -15 -98 -68 -98 -123 0 -62 33 -97 108 -119 32 -9
66 -22 76 -29 41 -30 -20 -86 -78 -71 -14 3 -39 21 -54 39 -26 31 -28 32 -59
19 -40 -17 -41 -33 -6 -75 34 -41 79 -59 143 -59 100 0 168 62 157 143 -7 53
-29 73 -118 105 -84 31 -101 57 -55 87 33 22 79 12 106 -22 18 -23 22 -24 55
-13 30 10 35 15 30 33 -10 33 -59 74 -102 86 -44 13 -55 12 -105 -1z"/>
<path d="M17605 9701 c-138 -35 -213 -182 -156 -306 23 -52 81 -102 126 -111
67 -12 142 0 187 32 104 73 130 239 50 327 -41 46 -143 74 -207 58z m104 -95
c57 -30 70 -131 24 -187 -38 -45 -85 -63 -129 -49 -48 16 -74 53 -74 107 0
106 93 173 179 129z"/>
<path d="M18377 9700 c-16 -5 -35 -14 -43 -21 -11 -9 -14 -8 -14 5 0 12 -10
16 -43 16 l-43 0 -27 -197 c-15 -109 -27 -201 -27 -205 0 -5 20 -8 45 -8 25 0
45 3 45 8 0 4 9 66 20 137 18 122 21 132 50 158 39 35 84 34 112 -3 18 -24 18
-30 3 -140 -8 -63 -18 -125 -20 -137 -5 -21 -2 -23 43 -23 l48 0 19 137 c15
114 22 141 41 160 46 46 117 39 130 -14 6 -23 -3 -117 -23 -245 l-6 -38 46 0
c53 0 47 -13 72 173 18 135 12 171 -35 210 -53 45 -144 43 -202 -3 -25 -19
-26 -19 -43 0 -18 19 -75 41 -105 39 -8 0 -28 -5 -43 -9z"/>
<path d="M19247 9700 c-16 -5 -35 -14 -43 -21 -11 -9 -14 -8 -14 5 0 12 -10
16 -43 16 l-43 0 -27 -197 c-15 -109 -27 -201 -27 -205 0 -5 20 -8 44 -8 50 0
45 -11 66 150 6 47 16 98 22 113 23 59 89 84 136 51 27 -19 29 -64 7 -204 -8
-52 -15 -98 -15 -102 0 -5 20 -8 45 -8 52 0 46 -11 70 153 19 134 19 151 0
191 -26 55 -112 87 -178 66z"/>
<path d="M19665 9701 c-74 -19 -112 -51 -144 -121 -33 -72 -21 -169 26 -222
46 -52 149 -72 218 -44 39 17 43 10 20 -38 -33 -69 -133 -90 -185 -37 -27 27
-31 28 -70 18 -23 -6 -40 -17 -40 -25 0 -25 74 -89 115 -101 50 -14 75 -14
130 0 58 15 120 68 139 122 12 34 66 388 66 435 0 8 -16 12 -45 12 -38 0 -45
-3 -45 -20 0 -20 0 -20 -37 0 -45 23 -107 32 -148 21z m132 -116 c42 -48 25
-142 -31 -179 -14 -9 -44 -16 -66 -16 -91 0 -134 108 -73 180 34 41 58 51 108
45 27 -2 47 -12 62 -30z"/>
<path d="M20765 9701 c-46 -12 -68 -26 -108 -70 -91 -101 -69 -274 43 -331 51
-26 140 -26 196 -1 36 16 84 62 84 80 0 4 -16 15 -36 25 -37 17 -37 17 -64 -9
-33 -31 -93 -42 -130 -23 -14 7 -33 29 -42 48 l-18 35 153 5 152 5 3 40 c7 82
-24 147 -87 179 -34 18 -108 27 -146 17z"/>
<path d="M21178 9698 c-56 -15 -98 -68 -98 -123 0 -62 33 -97 108 -119 32 -9
66 -22 76 -29 41 -30 -20 -86 -78 -71 -14 3 -39 21 -54 39 -26 31 -28 32 -59
19 -40 -17 -41 -33 -6 -75 34 -41 79 -59 143 -59 100 0 168 62 157 143 -7 53
-29 73 -118 105 -84 31 -101 57 -55 87 33 22 79 12 106 -22 18 -23 22 -24 55
-13 30 10 35 15 30 33 -10 33 -59 74 -102 86 -44 13 -55 12 -105 -1z"/>
<path d="M21605 9701 c-46 -12 -68 -26 -108 -70 -91 -101 -69 -274 43 -331 51
-26 140 -26 196 -1 36 16 84 62 84 80 0 4 -16 15 -36 25 -37 17 -37 17 -64 -9
-33 -31 -93 -42 -130 -23 -14 7 -33 29 -42 48 l-18 35 153 5 152 5 3 40 c7 82
-24 147 -87 179 -34 18 -108 27 -146 17z"/>
<path d="M22055 9701 c-65 -17 -125 -63 -125 -96 0 -6 15 -19 34 -28 33 -15
35 -15 53 5 47 54 136 55 149 2 4 -14 4 -27 2 -29 -3 -3 -44 -12 -92 -20 -141
-25 -186 -60 -186 -144 0 -49 18 -80 57 -100 31 -16 117 -14 158 3 19 8 35 11
35 5 0 -5 20 -9 45 -9 25 0 45 4 45 9 0 6 9 70 20 144 24 168 16 208 -49 242
-35 17 -108 26 -146 16z"/>
<path d="M22762 9699 c-60 -14 -136 -88 -152 -149 -17 -63 -7 -144 24 -190 68
-104 254 -107 331 -6 14 18 25 35 25 38 0 3 -18 13 -40 23 l-40 18 -20 -26
c-24 -31 -78 -50 -114 -41 -94 23 -103 180 -13 234 50 31 94 26 131 -14 32
-33 32 -33 69 -19 20 9 37 21 37 28 0 19 -48 73 -79 89 -38 20 -109 26 -159
15z"/>
<path d="M23997 9700 c-16 -5 -35 -14 -43 -21 -11 -9 -14 -8 -14 5 0 12 -10
16 -43 16 l-43 0 -27 -197 c-15 -109 -27 -201 -27 -205 0 -5 20 -8 44 -8 50 0
45 -11 66 150 6 47 16 98 22 113 23 59 89 84 136 51 27 -19 29 -64 7 -204 -8
-52 -15 -98 -15 -102 0 -5 20 -8 45 -8 52 0 46 -11 70 153 19 134 19 151 0
191 -26 55 -112 87 -178 66z"/>
<path d="M24715 9701 c-138 -35 -213 -182 -156 -306 23 -52 81 -102 126 -111
67 -12 142 0 187 32 104 73 130 239 50 327 -41 46 -143 74 -207 58z m104 -95
c57 -30 70 -131 24 -187 -38 -45 -85 -63 -129 -49 -48 16 -74 53 -74 107 0
106 93 173 179 129z"/>
<path d="M25547 9700 c-16 -5 -35 -14 -43 -21 -11 -9 -14 -8 -14 5 0 12 -10
16 -43 16 l-43 0 -27 -197 c-15 -109 -27 -201 -27 -205 0 -5 20 -8 45 -8 25 0
45 3 45 8 0 4 9 66 20 137 18 122 21 132 50 158 39 35 84 34 112 -3 18 -24 18
-30 3 -140 -8 -63 -18 -125 -20 -137 -5 -21 -2 -23 43 -23 l48 0 19 137 c15
114 22 141 41 160 46 46 117 39 130 -14 6 -23 -3 -117 -23 -245 l-6 -38 46 0
c53 0 47 -13 72 173 18 135 12 171 -35 210 -53 45 -144 43 -202 -3 -25 -19
-26 -19 -43 0 -18 19 -75 41 -105 39 -8 0 -28 -5 -43 -9z"/>
<path d="M26243 9701 c-18 -5 -40 -14 -48 -21 -12 -10 -15 -10 -15 4 0 12 -10
16 -43 16 l-43 0 -37 -272 c-21 -150 -38 -276 -37 -280 0 -5 20 -8 44 -8 49 0
49 0 62 105 3 33 8 63 10 66 2 4 21 -2 41 -13 58 -30 158 -22 215 17 130 90
128 302 -2 370 -34 18 -108 25 -147 16z m113 -115 c29 -29 34 -41 34 -82 0
-129 -145 -191 -214 -92 -20 29 -20 100 -1 139 20 38 71 69 114 69 24 0 42 -9
67 -34z"/>
<path d="M26705 9701 c-65 -17 -125 -63 -125 -96 0 -6 15 -19 34 -28 33 -15
35 -15 53 5 47 54 136 55 149 2 4 -14 4 -27 2 -29 -3 -3 -44 -12 -92 -20 -141
-25 -186 -60 -186 -144 0 -49 18 -80 57 -100 31 -16 117 -14 158 3 19 8 35 11
35 5 0 -5 20 -9 45 -9 25 0 45 4 45 9 0 6 9 70 20 144 24 168 16 208 -49 242
-35 17 -108 26 -146 16z"/>
<path d="M27142 9699 c-60 -14 -136 -88 -152 -149 -17 -63 -7 -144 24 -190 68
-104 254 -107 331 -6 14 18 25 35 25 38 0 3 -18 13 -40 23 l-40 18 -20 -26
c-24 -31 -78 -50 -114 -41 -94 23 -103 180 -13 234 50 31 94 26 131 -14 32
-33 32 -33 69 -19 20 9 37 21 37 28 0 19 -48 73 -79 89 -38 20 -109 26 -159
15z"/>
<path d="M29187 9700 c-16 -5 -35 -14 -43 -21 -11 -9 -14 -8 -14 5 0 12 -10
16 -43 16 l-43 0 -27 -197 c-15 -109 -27 -201 -27 -205 0 -5 20 -8 44 -8 50 0
45 -11 66 150 6 47 16 98 22 113 23 59 89 84 136 51 27 -19 29 -64 7 -204 -8
-52 -15 -98 -15 -102 0 -5 20 -8 45 -8 52 0 46 -11 70 153 19 134 19 151 0
191 -26 55 -112 87 -178 66z"/>
<path d="M29627 9700 c-16 -5 -35 -14 -43 -21 -11 -9 -14 -8 -14 5 0 12 -10
16 -43 16 l-43 0 -27 -197 c-15 -109 -27 -201 -27 -205 0 -5 20 -8 44 -8 50 0
45 -11 66 150 6 47 16 98 22 113 23 59 89 84 136 51 27 -19 29 -64 7 -204 -8
-52 -15 -98 -15 -102 0 -5 20 -8 45 -8 52 0 46 -11 70 153 19 134 19 151 0
191 -26 55 -112 87 -178 66z"/>
<path d="M30055 9701 c-138 -35 -213 -182 -156 -306 23 -52 81 -102 126 -111
67 -12 142 0 187 32 104 73 130 239 50 327 -41 46 -143 74 -207 58z m104 -95
c57 -30 70 -131 24 -187 -38 -45 -85 -63 -129 -49 -48 16 -74 53 -74 107 0
106 93 173 179 129z"/>
<path d="M30895 9701 c-65 -17 -125 -63 -125 -96 0 -6 15 -19 34 -28 33 -15
35 -15 53 5 47 54 136 55 149 2 4 -14 4 -27 2 -29 -3 -3 -44 -12 -92 -20 -141
-25 -186 -60 -186 -144 0 -49 18 -80 57 -100 31 -16 117 -14 158 3 19 8 35 11
35 5 0 -5 20 -9 45 -9 25 0 45 4 45 9 0 6 9 70 20 144 24 168 16 208 -49 242
-35 17 -108 26 -146 16z"/>
<path d="M31825 9701 c-138 -35 -213 -182 -156 -306 23 -52 81 -102 126 -111
67 -12 142 0 187 32 104 73 130 239 50 327 -41 46 -143 74 -207 58z m104 -95
c57 -30 70 -131 24 -187 -38 -45 -85 -63 -129 -49 -48 16 -74 53 -74 107 0
106 93 173 179 129z"/>
<path d="M32327 9700 c-16 -5 -35 -14 -43 -21 -11 -9 -14 -8 -14 5 0 12 -10
16 -43 16 l-43 0 -27 -197 c-15 -109 -27 -201 -27 -205 0 -5 20 -8 44 -8 50 0
45 -11 66 150 6 47 16 98 22 113 23 59 89 84 136 51 27 -19 29 -64 7 -204 -8
-52 -15 -98 -15 -102 0 -5 20 -8 45 -8 52 0 46 -11 70 153 19 134 19 151 0
191 -26 55 -112 87 -178 66z"/>
<path d="M15647 9503 c-15 -109 -27 -201 -27 -205 0 -5 20 -8 45 -8 50 0 44
-13 65 145 6 44 16 95 22 113 12 40 59 72 106 72 31 0 32 2 32 40 0 39 -1 40
-35 40 -20 0 -49 -7 -65 -15 -27 -14 -30 -14 -30 0 0 11 -11 15 -43 15 l-43 0
-27 -197z"/>
<path d="M17937 9503 c-15 -109 -27 -201 -27 -205 0 -5 20 -8 45 -8 50 0 44
-13 65 145 6 44 16 95 22 113 12 40 59 72 106 72 31 0 32 2 32 40 0 39 -1 40
-35 40 -20 0 -49 -7 -65 -15 -27 -14 -30 -14 -30 0 0 11 -11 15 -43 15 l-43 0
-27 -197z"/>
<path d="M18897 9503 c-15 -109 -27 -201 -27 -205 0 -5 20 -8 45 -8 51 0 43
-24 75 215 11 83 23 160 25 173 5 20 2 22 -43 22 l-48 0 -27 -197z"/>
<path d="M22347 9503 c-15 -109 -27 -201 -27 -205 0 -5 20 -8 45 -8 50 0 44
-13 65 145 6 44 16 95 22 113 12 40 59 72 106 72 31 0 32 2 32 40 0 39 -1 40
-35 40 -20 0 -49 -7 -65 -15 -27 -14 -30 -14 -30 0 0 11 -11 15 -43 15 l-43 0
-27 -197z"/>
<path d="M23647 9503 c-15 -109 -27 -201 -27 -205 0 -5 20 -8 45 -8 51 0 43
-24 75 215 11 83 23 160 25 173 5 20 2 22 -43 22 l-48 0 -27 -197z"/>
<path d="M28085 9688 c-7 -25 -35 -243 -35 -278 0 -41 29 -92 65 -116 34 -22
135 -16 165 11 18 16 20 16 20 2 0 -13 10 -17 43 -17 l43 0 23 170 c12 93 25
186 28 205 l6 35 -46 0 c-52 0 -49 6 -67 -145 -7 -55 -19 -114 -27 -132 -19
-41 -73 -68 -111 -55 -55 18 -58 61 -17 300 l6 32 -46 0 c-28 0 -47 -5 -50
-12z"/>
<path d="M30344 9683 c3 -10 26 -103 52 -206 l47 -188 44 3 45 3 104 193 c57
106 104 197 104 203 0 5 -22 9 -50 9 l-50 0 -69 -137 -69 -138 -10 40 c-6 22
-20 84 -32 138 l-22 97 -50 0 c-42 0 -49 -2 -44 -17z"/>
<path d="M31477 9503 c-15 -109 -27 -201 -27 -205 0 -5 20 -8 45 -8 51 0 43
-24 75 215 11 83 23 160 25 173 5 20 2 22 -43 22 l-48 0 -27 -197z"/>
</g>
</svg>
