<svg width="116" height="28" viewBox="0 0 116 28" fill="none" xmlns="http://www.w3.org/2000/svg">
<path d="M50.9281 22.24C48.2721 22.24 46.2401 21.568 44.8321 20.224C43.4401 18.88 42.7441 16.968 42.7441 14.488C42.7441 11.88 43.4641 9.86399 44.9041 8.43999C46.3441 7.01599 48.4321 6.30399 51.1681 6.30399C52.9761 6.30399 54.5521 6.52799 55.8961 6.97599V10.288C54.6801 9.83999 53.2001 9.61599 51.4561 9.61599C49.7921 9.61599 48.5761 10.008 47.8081 10.792C47.0561 11.576 46.6801 12.808 46.6801 14.488C46.6801 16.008 47.0321 17.136 47.7361 17.872C48.4561 18.592 49.5281 18.952 50.9521 18.952C51.8801 18.952 52.7441 18.824 53.5441 18.568V15.64H50.2081V13.216H56.7841V20.872C56.1601 21.272 55.3601 21.6 54.3841 21.856C53.4081 22.112 52.2561 22.24 50.9281 22.24Z" fill="white"/>
<path d="M60.7632 6.54399H64.6272V22H60.7632V6.54399Z" fill="white"/>
<path d="M69.0679 6.54399H72.3799L78.9559 15.784V6.54399H82.8439V22H79.5079L72.9319 12.784V22H69.0679V6.54399Z" fill="white"/>
<path d="M87.2866 6.54399H98.6866V9.51999H91.1506V12.76H97.7986V15.784H91.1506V19.024H98.6866V22H87.2866V6.54399Z" fill="white"/>
<path d="M102.529 6.54399H110.257C112.033 6.54399 113.361 7.01599 114.241 7.95999C115.137 8.88799 115.585 10.184 115.585 11.848C115.585 12.888 115.321 13.8 114.793 14.584C114.281 15.368 113.561 15.952 112.633 16.336C112.841 16.512 113.009 16.704 113.137 16.912C113.281 17.12 113.441 17.424 113.617 17.824L115.441 22H111.409L109.681 18.064C109.537 17.712 109.353 17.464 109.129 17.32C108.905 17.176 108.585 17.104 108.169 17.104H106.393V22H102.529V6.54399ZM109.249 14.128C110.017 14.128 110.609 13.936 111.025 13.552C111.441 13.168 111.649 12.6 111.649 11.848C111.649 10.296 110.905 9.51999 109.417 9.51999H106.393V14.128H109.249Z" fill="white"/>
<path fill-rule="evenodd" clip-rule="evenodd" d="M0 0H28V12H24V4H4V24H28V28H0V0Z" fill="#FFD910"/>
<path d="M28 18C28 19.1046 27.1046 20 26 20C24.8954 20 24 19.1046 24 18C24 16.8954 24.8954 16 26 16C27.1046 16 28 16.8954 28 18Z" fill="#FFD910"/>
</svg>
