<?xml version="1.0" encoding="UTF-8"?>
<svg id="Layer_1" data-name="Layer 1" xmlns="http://www.w3.org/2000/svg" viewBox="0 0 1472.4 841.89">
  <defs>
    <style>
      .cls-1 {
        fill: #ee2c28;
      }

      .cls-2 {
        fill: #ef3e27;
      }

      .cls-3 {
        fill: #ee2b29;
      }

      .cls-4 {
        fill: #f8ce11;
      }

      .cls-5 {
        fill: #f9dc03;
      }

      .cls-6 {
        fill: #fae110;
      }

      .cls-7 {
        fill: #f8d60a;
      }

      .cls-8 {
        fill: #fae116;
      }

      .cls-9 {
        fill: #fae113;
      }

      .cls-10 {
        fill: #ef4927;
      }

      .cls-11 {
        fill: #f9e21a;
      }

      .cls-12 {
        fill: #f9db04;
      }

      .cls-13 {
        fill: #f2f1f1;
      }

      .cls-14 {
        fill: #211d1d;
      }

      .cls-15 {
        fill: #ef4427;
      }

      .cls-16 {
        fill: #ee2b28;
      }

      .cls-17 {
        fill: #ef5925;
      }

      .cls-18 {
        fill: #221f1f;
      }

      .cls-19 {
        fill: #fffced;
      }

      .cls-20 {
        fill: #211e1e;
      }

      .cls-21 {
        fill: #f9dd02;
      }

      .cls-22 {
        fill: #f8f8f8;
      }

      .cls-23 {
        fill: #1f1c1c;
      }

      .cls-24 {
        fill: #fade01;
      }

      .cls-25 {
        fill: #242121;
      }
    </style>
  </defs>
  <path class="cls-1" d="M337.32,480.33c4.57-2.89,8.82-6.5,15.02-5.02-.64,1.38-1.84,2.09-2.63,3.12-1.11,1.45-2.24,2.89-3.21,4.43-.74,1.18-.5,2.47,.16,3.66,.96,1.71,2.64,2.26,4.5,1.52,1.74-.69,2.84-1.97,3.54-3.68,1.06-2.58,2.15-5.16,3.29-7.7,.52-1.16,1.16-2.28,1.82-3.36,2.81-4.58,8.07-6.22,13.59-3.06-.07,.19-.09,.48-.24,.57-2.37,1.51-2.93,3.77-2.92,6.42,.01,5.43-.02,10.86-.22,16.29-.16,4.41-1.09,8.71-2.83,12.79-2.16,5.07-5.71,8.77-10.78,11.04-8.26,3.7-16.71,6.76-25.69,8.2-6.42,1.02-12.3,3.35-17.42,7.7-.7-.44-1.37-.83-2-1.27-7.14-4.92-18.73-5.84-27,2.57-2.38,2.42-3.62,5.2-3.21,8.65,.14,1.18,.1,2.4,.03,3.59-.26,3.96,.98,7.38,3.57,10.36,1.56,1.8,1.45,2.68-.59,3.91-.87,.53-1.87,.93-2.86,1.17-6.88,1.6-13.79,1.6-20.67,0-1.89-.44-3.64-1.23-4.75-3.34,.42-.53,.87-1.15,1.37-1.74,2.37-2.79,3.59-6,3.57-9.67,0-1.75,.04-3.51,.08-5.26,.07-3.16-1.29-5.7-3.46-7.88-7.07-7.1-18.63-8.12-26.85-2.36-1.9,1.33-1.92,1.35-3.65,.01-4.87-3.78-10.54-5.61-16.51-6.58-9.64-1.55-18.65-4.9-27.3-9.32-4.11-2.1-6.67-5.6-8.44-9.77-2.28-5.39-2.96-11.09-3.13-16.86-.11-3.75-.12-7.51,0-11.27,.1-3.11-.2-5.95-3.31-7.67,4.39-2.91,9.24-2.47,12.53,1.2,1.26,1.4,2.25,3.11,3.08,4.81,1.25,2.58,2.3,5.27,3.36,7.94,.59,1.49,1.58,2.58,2.94,3.35,1.26,.71,2.58,.9,3.85,.03,1.31-.9,1.94-2.28,1.6-3.74-.32-1.35-.98-2.7-1.81-3.82-1.03-1.4-2.39-2.57-3.6-3.85-.25-.27-.44-.59-.79-1.08,6.23-1.45,10.56,1.93,15.37,5.52-.31-1.1-.4-1.69-.64-2.21-1.45-3.13-3.78-5.51-6.47-7.58-3.33-2.56-7.15-4.19-11.04-5.66-2.24-.84-4.49-1.66-6.76-2.41-2.04-.68-3.67-1.86-5.01-3.53-3.56-4.48-5.37-9.43-5.24-15.27,.13-6.06-.2-12.14-.59-18.19-.33-5.09-2.64-9.36-6.55-12.64-8.7-7.31-19.27-8.95-29.53-2.86-.67,.4-1.39,.72-2.2,1.13-.43-2.27,.47-3.97,1.51-5.57,2.33-3.59,5.58-6.13,9.48-7.81,8.29-3.58,16.64-3.73,24.82,.17,5.61,2.68,11.05,5.74,16.57,8.61,1.27,.66,2.57,1.27,3.87,1.88,.58,.27,1.18,.5,1.79,.67,2.44,.69,3.88,.27,4.57-1.28,.98-2.17,.21-4.69-1.86-5.81-.76-.41-1.63-.62-2.47-.86-.52-.15-1.06-.18-1.9-.32,1.25-1.69,2.77-2.4,4.51-2.64,3.49-.48,6.49,.65,8.96,3.09,3.79,3.74,5.06,8.28,3.68,13.39-.68,2.52-1.79,4.94-2.74,7.38-.28,.73-.68,1.4-1.11,2.26,1.88,.54,3.13-.31,4.3-1.19,3.02-2.28,4.68-5.43,5.4-9.06,.64-3.26,.46-6.52-.6-9.7-1.24-3.72-3.53-6.57-6.88-8.6-4.51-2.73-9.49-4.16-14.58-5.2-6.57-1.34-13.19-2.45-19.74-3.85-4.85-1.03-9.5-2.76-13.85-5.18-.91-.51-1.8-1.04-2.66-1.61-7.48-5.02-10.41-12.05-9.08-20.88,.31-2.05,.83-4.07,1.41-6.06,.73-2.5,2.06-4.69,4.07-6.38,1.84-1.54,3.91-2.42,6.72-1.82-.28,.9-.46,1.73-.78,2.49-1.6,3.74-.73,7.16,1.2,10.5,2.06,3.57,8.17,2.69,9.58-.64,1.03-2.44,.97-4.74-.11-7.16-1.04-2.32-2.1-4.68-2.71-7.14-1.65-6.6,1.75-13.25,7.94-16.01,1.79-.8,3.65-1.06,5.61-1.01,3.11,.08,6.23,.18,9.33,.07,2.84-.11,5.05-1.38,6.12-4.2,1.1-2.93,.42-5.48-1.62-7.75-.63-.7-1.28-1.39-2.13-2.33,4.69-.67,8.39,.6,11.34,3.92,2.89,3.26,4.33,7.21,5.32,11.38,.73,3.06,.49,6.01-.55,8.95-.88,2.48-1.68,4.99-2.54,7.48-.72,2.09-.89,4.2-.41,6.37,.69,3.14,2.51,4.94,5.2,5.11,3.06,.19,6.02-1.68,6.94-4.5,.97-2.98,.63-5.84-1.12-8.48-.65-.98-1.33-1.95-2.09-3.07,5.55-2.95,9.38,.08,13.5,3.12-.39-.98-.63-2.07-1.2-2.93-1.32-1.99-2.74-3.93-4.23-5.8-1.45-1.81-2.99-3.54-4.59-5.22-4.44-4.65-5.17-10.29-4.38-16.29,.54-4.12,2.19-7.82,4.84-11.05,2.45-2.98,5.62-4.33,9.55-4.37-.1,.41-.12,.74-.26,1-2.37,4.3-2.1,8.76-.79,13.26,.61,2.09,1.82,3.71,4.01,4.43,2.41,.79,5.21-.71,5.84-3.16,.31-1.22-.17-2.21-.93-3.07-.73-.82-1.56-1.56-2.39-2.36,3.06-1.64,5.86-1.34,7.82,1.13,1.21,1.53,1.98,3.43,2.82,5.22,.46,.99,.66,2.11,1,3.26,1.39-.2,1.91-1.19,2.38-2.17,1.83-3.84,.62-8.11-3.14-10.41-4.15-2.55-7.31-5.91-9.33-10.34-1.69-3.72-2.39-7.59-1.58-11.67,.5-2.51,1.66-4.65,3.45-6.45,1.18-1.19,2.44-2.3,3.65-3.47,2.93-2.85,5.04-6.17,5.98-10.19,.5-2.15,1.51-4.04,2.98-5.66,1.85-2.05,4.14-2.55,6.8-1.49-.61,.95-1.27,1.85-1.78,2.83-.62,1.2-1.25,2.42-1.59,3.72-.44,1.65,.57,2.78,2.28,2.88,1.73,.1,3.2-.86,3.72-2.77,.5-1.84,.84-3.75,1.03-5.64,.35-3.66,1.49-6.97,3.49-10.07,3.55-5.5,7.94-10.19,13.23-14.39,4.26,5.3,9.3,9.92,12.83,15.78,1.6,2.65,2.16,5.64,2.63,8.65,.29,1.89,.57,3.79,1.03,5.65,.44,1.75,1.87,2.79,3.46,2.79,2.02,0,3.21-1.43,2.56-3.32-.46-1.34-1.23-2.59-1.93-3.84-.42-.75-.94-1.44-1.49-2.26,2.57-1.13,4.66-.58,6.5,1.15,1.61,1.52,2.65,3.41,3.15,5.55,1.14,4.95,3.77,8.98,7.69,12.11,5.65,4.52,6.92,10.28,5.09,16.96-1.54,5.64-4.9,9.98-9.85,13.09-2.34,1.47-4.03,3.38-4.53,6.18-.49,2.78,.71,5.42,3.19,6.74,.17-.52,.33-1.01,.48-1.5,.47-1.6,.71-3.31,1.44-4.78,1.77-3.57,5.7-5.02,9.56-3.73,.21,1.02-.69,1.32-1.24,1.82-2.37,2.17-2.66,3.98-.93,5.98,1.61,1.85,4.46,2.13,6.46,.4,.92-.8,1.69-1.95,2.11-3.1,1.65-4.51,1.83-9.05-.38-13.48-.11-.21-.2-.44-.25-.67-.03-.15,.01-.31,.03-.62,3.62,.07,6.75,1.2,9.05,4.07,5.1,6.35,6.7,13.46,4.44,21.37-.58,2.04-1.57,3.84-2.94,5.43-1.82,2.13-3.74,4.17-5.5,6.34-1.41,1.73-2.7,3.56-3.94,5.42-.55,.82-.81,1.83-1.05,2.91,3.94-2.91,7.74-5.92,13.29-3.05-.56,.82-.95,1.47-1.42,2.06-1.75,2.25-2.49,4.8-2.29,7.62,.3,4.31,4.59,7.43,8.71,6.19,1.04-.32,2.11-1.2,2.72-2.13,1.46-2.21,1.98-4.73,1.21-7.33-.74-2.52-1.55-5.04-2.46-7.5-3.06-8.28-.85-15.58,4.37-22.14,2.7-3.4,6.31-4.42,11.12-3.76-.74,.83-1.31,1.52-1.94,2.16-1.89,1.92-2.59,4.17-1.98,6.8,.71,3.12,2.3,4.79,5.51,5.14,2.6,.28,5.27,.36,7.87,.11,4.44-.41,8.48,.21,11.77,3.44,4.43,4.36,5.48,9.59,3.61,15.41-.63,1.96-1.6,3.82-2.45,5.72-.82,1.84-.88,3.69-.28,5.6,.8,2.49,2.51,3.79,5.1,4.02,2.45,.21,4.11-.92,5.27-2.99,1.65-2.95,1.98-6.03,.99-9.25-.28-.9-.65-1.77-1-2.71,1.13-.84,2.3-.64,3.45-.28,2.74,.85,4.78,2.59,6.04,5.13,2.96,5.93,3.72,12.2,2.3,18.64-.83,3.79-3.11,6.79-6.02,9.3-4.51,3.9-9.81,6.34-15.49,7.78-6.02,1.53-12.15,2.67-18.26,3.88-5.01,.99-10.08,1.78-14.8,3.83-2.11,.92-4.17,2.01-6.12,3.24-3.49,2.19-5.61,5.3-6.18,9.5-.79,5.79-.13,11.16,3.9,15.73,1.66,1.89,2.83,2.4,5.64,2.46-.34-.72-.62-1.34-.92-1.94-1.59-3.16-2.86-6.4-3.28-9.95-.67-5.61,2.61-11.46,7.82-13.58,3.37-1.37,6.54-.99,9.62,1.74-1.27,.39-2.31,.66-3.32,1.03-2.82,1.03-3.87,3.44-2.73,6.15,.45,1.07,1.16,1.64,2.37,1.64,1.82,0,3.43-.63,5-1.46,5.43-2.88,10.87-5.73,16.31-8.6,4.58-2.42,9.41-3.91,14.62-4.17,8.62-.43,15.78,2.68,21.66,8.85,1.75,1.84,2.74,4.07,2.77,7.09-.94-.45-1.69-.75-2.39-1.14-4.57-2.49-9.37-4.23-14.65-3.6-7.37,.88-13.55,4.09-18.11,10.07-1.94,2.54-2.8,5.5-3.24,8.65-.83,5.97-.79,11.95-.53,17.94,.22,5.23-1.18,9.94-4.02,14.28-1.67,2.55-3.88,4.39-6.81,5.39-3.32,1.14-6.63,2.32-9.86,3.68-4.3,1.81-8.27,4.2-11.33,7.83-1.37,1.62-2.61,3.34-3.02,5.61Zm-118.73,2.52c-.15,.19-.3,.38-.45,.57-.97,1.43-1.93,2.86-2.9,4.29-.1,.22-.19,.45-.29,.67-1.62,2.33-2.83,5.72-2.83,7.97,.14-.07,.32-.1,.41-.21,3.85-4.42,8.33-8.16,12.77-11.95,5.65-4.82,12.07-6.25,19.25-4.56,7.26,1.7,13.48,5.29,18.96,10.27,1.71,1.55,3.51,3.02,5.37,4.38,.99,.72,2.13,1.36,3.39,1.24,.78-1.25-.36-3.04,1.27-3.84,1.2,1.69,2.21,3.4,3.5,4.86,1.49,1.68,3.89,.78,5.82,1.34-.37,1.64-1.67,1.74-2.57,2.31-1.66,1.05-1.98,2.15-1.06,3.81,1.99,3.61,7.79,4.66,10.88,1.97,1.09-.95,1.38-1.93,.25-2.83-2.48-1.98-1.94-3.61-.38-5.97,2.54-3.82,1.28-6.65-3.03-8.04-.83-.27-1.67-.56-2.45-.95-.43-.21-.75-.64-1.38-1.2,2.53-.59,4.64-.3,6.66,.45,2.16,.8,3.47,2.4,4.08,4.67,.48,1.79,.15,3.47-.24,5.2-.2,.9-.33,1.82-.54,3.02,1.08,0,1.88,.12,2.62-.02,4.28-.84,8.28-2.37,11.86-4.92,5.74-4.09,9.38-9.75,11.98-16.14,1.63-3.99,3.14-8.03,4.58-12.1,2.24-6.3,1.65-12.41-1.57-18.26-1.54-2.8-3.1-5.59-4.63-8.39-2.7-4.97-6.74-8.27-12.24-9.62-2.4-.59-4.85-.95-7.28-1.42-7.57-1.46-14.91-3.52-21.56-7.62-.97-.6-2.22-.81-3.38-1-1.06-.17-2.1,.09-2.59,1.25-.45,1.05,0,2.73,.97,3.48,.37,.28,.85,.42,1.28,.63,2.31,1.1,4.65,2.12,6.91,3.31,3.88,2.04,7.71,4.18,11.54,6.31,.88,.49,1.8,1.05,1.66,2.43-1.99,.62-3.83,.22-5.64-.41-2.17-.75-4.35-1.51-6.5-2.33-2.91-1.1-5.8-2.25-8.69-3.41-.72-.29-1.41-.51-1.93,.22-.55,.77-.32,1.56,.32,2.15,.46,.43,1.03,.76,1.59,1.05,6.03,3.13,12.04,6.28,18.1,9.34,1.41,.71,2.94,1.38,4.48,1.57,2.25,.28,4,1.35,5.27,2.99,1.45,1.87,2.59,4,3.78,6.07,.58,1,.31,1.93-.47,2.84-1.04,1.21-1.91,2.56-2.87,3.83-.5,.67-1.04,1.31-1.57,1.97-1.87-1.71-1.9-1.71-2.01-4.09-.05-1.03-.19-1.92-1.35-2.24-1.37-.38-3.57,.43-4.5,1.69-.99,1.32-.57,2.6,.27,3.75,1.17,1.59,1.58,3.2,.92,5.16-.52,1.57,.13,2.54,1.73,3.17,.71,.28,1.44,.48,2.16,.71-2.23,7.2-9.91,11.69-17.08,10.2-4.61-.96-8.71-3.07-12.67-5.52-3.53-2.2-7.13-4.33-11.24-5.26-9.58-2.17-18.74-.73-27.47,3.56-3.47,1.7-6.49,4.07-8.87,7.17-.14,.15-.28,.29-.42,.44Zm25.68-117.22c-5.87,2.78-10.61,6.78-13.39,12.75-.65,1.4-.85,3.07-.98,4.63-.23,2.82,.84,5.32,2.34,7.65,.54,.84,1.27,1.66,.63,3.12-.68-.6-1.29-1.06-1.81-1.6-2.12-2.25-3.47-4.95-4.64-7.77-.76-1.84-1.49-3.73-2.57-5.38-1.52-2.33-3.86-3.35-6.89-3.39,.3,1.3,.55,2.29,.76,3.3,.66,3.21,1.31,6.41,1.01,9.73-.35,3.81-.55,7.64-.89,11.46-.36,4.05,1.43,6.98,4.77,8.98,1.84,1.1,3.84,1.94,5.82,2.78,1.33,.56,2.08,1.34,2.08,2.85,0,1.19,.15,2.39,.31,3.58,.51,3.94,2.13,7.35,5.01,10.1,1.25,1.19,2.67,2.15,4.49,2.34,.45-1.46,.04-2.65-.46-3.85-.57-1.4-1.14-2.82-1.56-4.27-.24-.85-.19-1.78-.28-2.68,.19-.08,.39-.15,.58-.23,.44,.59,.89,1.17,1.32,1.76,2.51,3.41,4.88,6.93,7.57,10.19,1.45,1.75,3.3,3.28,5.22,4.51,3.16,2.01,5.25,1.14,6.43-2.37,.72-2.14,.83-4.31,.64-6.6-.58-6.8-2.39-13.12-5.91-19.03-2.77-4.64-4.23-9.82-4.71-15.21-.16-1.83-.72-3.39-1.85-4.82-2.5-3.16-4.03-6.76-4.01-10.81,.02-2.94,.47-5.87,.73-8.8,.08-.94,.19-1.88,.28-2.83,.07-.08,.14-.16,.2-.24-.09,.06-.17,.12-.26,.17Zm-66.72,118.93c-.4,1.05-.76,1.73-.92,2.45-1.47,6.47-.07,12.23,4.5,17.08,6.87,7.3,15.41,11.34,25.36,12.1,7.57,.58,15.17,.71,22.75,1.09,6.71,.34,13.39,.89,19.97,2.33,5.18,1.14,10.18,2.7,14.66,5.66,1.66,1.1,2.59,2.47,2.56,4.54-.09,6.23-.07,12.47-.15,18.7-.03,2.57-.49,5.07-1.57,7.45-1.05,2.3-.48,3.49,1.91,4.37,2.25,.83,4.41,.41,6.54-.41,3.01-1.16,3.54-2.55,1.84-5.29-.97-1.56-1.35-3.21-1.35-5.01,.01-2.72,0-5.44,0-8.15,0-3.2,.05-6.4-.01-9.59-.07-3.44,1.23-5.81,4.45-7.46,5.77-2.95,11.83-4.81,18.18-5.75,8.79-1.3,17.66-1.65,26.52-1.95,5.75-.2,11.52-.1,17.16-1.45,7.23-1.73,13.66-5,18.91-10.29,4.88-4.91,7.01-10.79,5.38-17.72-.18-.78-.59-1.51-1.13-2.83-.76,1.13-1.27,1.7-1.57,2.36-.39,.87-.63,1.81-.89,2.73-3.04,10.64-10.12,17.1-20.66,19.99-7.93,2.17-16.05,2.67-24.21,2.89-4.23,.11-8.47,.25-12.7,.46-9.6,.47-18.82,2.48-27.41,6.96-.51,.27-1.13,.32-2.04,.56,0-1.11,0-1.89,0-2.67,0-2.88,.06-5.76-.05-8.63-.03-.8-.3-2-.85-2.3-1.72-.93-3.63-1.52-5.81-.91-.05,.96-.13,1.83-.14,2.69-.03,3.12-.02,6.23-.07,9.35-.01,.73-.21,1.46-.35,2.43-.93-.38-1.51-.61-2.09-.85-2.72-1.15-5.37-2.47-8.16-3.42-8.19-2.77-16.73-3.32-25.28-3.66-4.63-.18-9.27-.24-13.9-.47-5.52-.28-10.98-1.04-16.31-2.5-10.57-2.88-17.52-9.49-20.54-20.11-.33-1.15-.72-2.28-1.2-3.38-.19-.44-.69-.74-1.36-1.4Zm96.59-153.38c-.18-.12-.37-.24-.55-.36,0-7.1,0-14.21,0-21.31,0-21.49,0-42.99,0-64.48,0-.95-.02-1.93-.25-2.84-.21-.83-.64-1.79-1.73-1.68-1.07,.1-1.32,1.03-1.41,1.94-.15,1.59-.37,3.18-.39,4.77-.19,13.74-.35,27.48-.49,41.22-.14,13.9-.23,27.8-.35,41.7,0,.75-.16,1.5-.28,2.48-.63-.33-.98-.48-1.29-.7-2.34-1.62-4.07-3.81-5.7-6.1-4.19-5.87-6.68-12.52-8.69-19.36-3.1-10.53-4.81-21.31-5.44-32.27-.05-.95-.16-1.93-.45-2.82-.14-.41-.76-.84-1.22-.92-.31-.06-.96,.41-1.06,.76-.38,1.28-.84,2.62-.84,3.93-.01,9.28,.56,18.5,2.71,27.58,3.42,14.44,9.45,27.44,20.47,37.75,1.12,1.05,1.6,2.31,1.55,3.85-.08,2.39-.05,4.79-.03,7.19,0,.67,.16,1.35,.27,2.24,1.04-.18,1.81-.29,2.57-.45,2.05-.43,2.09-.45,2.11-2.43,.03-2.4,.09-4.8-.04-7.19-.11-2.17,.62-3.84,2.17-5.32,3.44-3.27,6.28-7.02,8.7-11.1,9.66-16.25,12.71-34.07,12.5-52.66-.01-1-.34-2.07-.78-2.98-.25-.53-1.02-.8-1.56-1.19-.34,.49-.8,.94-.97,1.48-.23,.75-.25,1.57-.35,2.36-.66,5.62-1.14,11.28-2.02,16.86-1.45,9.25-3.77,18.29-7.68,26.85-1.87,4.08-4.04,7.99-7.21,11.24-.69,.71-1.5,1.31-2.26,1.97Zm-22.46,52.03c.28-.04,.48,0,.58-.08,.5-.39,.98-.81,1.46-1.23,7.36-6.22,15.48-8.36,24.67-4.52,3.68,1.54,7.35,3.1,11,4.71,4.67,2.07,9.3,4.23,13.96,6.3,2.22,.99,4.57,1.4,7.01,1.19,2.54-.22,5.09-.36,7.63-.65,.73-.08,1.6-.38,2.09-.88,1.49-1.55,2.85-3.23,4.21-4.9,.3-.37,.39-.92,.63-1.51-1.13-.05-2.03,.02-2.87-.18-.51-.12-1.26-.64-1.3-1.03-.03-.44,.53-1.12,1-1.36,.77-.38,1.69-.7,2.52-.65,2.8,.17,4.19-1.35,5-3.75,.1-.3,.3-.56,.43-.85,.65-1.41,1.55-2.73,1.79-4.29-1.9-1.27-3.72,.43-5.56-.24,.41-1.38,1.55-1.76,2.68-2.12,.99-.31,2.03-.47,3-.82,.73-.27,1.46-.65,2.07-1.13,.71-.57,1.22-1.49,.68-2.31-.3-.45-1.21-.66-1.86-.69-2.98-.15-5.89,.3-8.72,1.24-2.37,.79-4.18,2.2-5.52,4.34-1.27,2.02-2.67,3.98-4.16,5.85-3.83,4.81-7.53,5.72-13.04,3.04-2.64-1.29-5.16-2.88-7.63-4.49-3.68-2.4-7.23-5-10.91-7.39-3.48-2.27-7.11-4.29-11.12-5.52-2.69-.83-5.43-1.26-8.26-1.17-1.78,.05-3.05,.7-3.51,2.59-.37,1.55-1.09,3.03-1.32,4.59-.7,4.83-2.32,9.26-5.08,13.29-.93,1.36-1.6,2.88-1.57,4.63Zm95.59-57.25c-1.61,2.31-1.66,3.84-.2,5.86,1.45,2.01,3.02,3.93,4.48,5.93,2.55,3.49,4.81,7.16,6.33,11.24,.87,2.34,1.44,4.76,1.07,7.27-.72,4.89-2.37,9.43-5.48,13.36-3.39,4.29-7.79,7.3-12.52,9.87-5.9,3.21-11.72,6.53-17.03,10.69-4.24,3.32-8.03,7.09-10.95,11.64-.49,.75-.79,1.62-1.29,2.67,1.59,.53,2.85,.96,4.13,1.36,1.3,.41,2.27-.01,3.12-1.1,1.38-1.76,2.79-3.5,4.35-5.1,5.79-5.93,12.46-10.71,19.65-14.8,3.25-1.85,6.54-3.74,9.5-6.01,12.65-9.73,15.4-24.69,7.21-38.35-2.31-3.85-5.02-7.4-8.25-10.54-1.36-1.32-2.73-2.64-4.12-3.98Zm-202.92,76.97l.03,.6c.76-.04,1.52-.07,2.28-.11,12.46-.7,22.54,4.32,28.12,15.91,2.25,4.68,4.65,9.28,7.1,13.86,4.26,7.95,10.35,14.12,18.31,18.44,6.28,3.41,12.99,5.7,19.84,7.65,.73,.21,1.5,.25,2.23,.37,1.01-4.27,1.02-4.31-2.77-5.54-5.18-1.68-10.13-3.9-14.86-6.59-8.84-5.04-15.78-11.81-20.04-21.24-1.8-3.98-4.14-7.75-6.51-11.44-2.83-4.39-6.3-8.27-10.69-11.2-7.55-5.05-15.27-4.64-23.04-.71Zm63.24-12.26c.46-.78,.87-1.35,1.17-1.98,1.54-3.21,1.47-3.37-1.67-5.17-4.02-2.3-8.09-4.52-12.02-6.97-4.48-2.8-8.07-6.51-10.45-11.29-3.4-6.83-3.69-13.64,.22-20.36,1.48-2.55,3.1-5.03,4.75-7.47,1.3-1.92,2.8-3.7,4.13-5.59,1.24-1.76,1.5-3.6,.13-5.68-.59,.42-1.14,.71-1.57,1.13-1.88,1.84-3.81,3.66-5.58,5.61-4.02,4.43-7.16,9.41-8.92,15.16-2.35,7.65-1.64,14.96,2.61,21.86,3.4,5.52,8.15,9.56,13.67,12.81,3.78,2.23,7.52,4.53,11.29,6.79,.66,.4,1.38,.72,2.23,1.16Zm185.61,12.28c-.66-2.59-1.2-3.03-3.45-3.26-4.51-.46-8.51,.93-12.22,3.36-5.38,3.52-9.55,8.2-12.86,13.67-2.95,4.87-5.13,10.1-7.11,15.41-1.83,4.92-4.98,8.68-9.68,11.1-1.92,.99-3.8,2.03-5.69,3.07-.94,.51-1.87,1.12-1.71,2.35,.17,1.3,.55,2.58,.88,4.09,1.09-.3,1.91-.37,2.57-.73,3.22-1.75,6.49-3.44,9.56-5.42,3.45-2.22,5.78-5.46,7.31-9.26,.99-2.44,1.99-4.88,3.01-7.31,2.44-5.83,5.06-11.56,9.14-16.48,4.72-5.68,10.45-9.56,18.06-10.12,.7-.05,1.38-.29,2.2-.46Zm-67.58-96.13c-.07,1.67-.12,2.9-.16,4.13-.28,7.46-4.55,13.28-11.59,15.73-.98,.34-1.98,.63-2.99,.88-6.54,1.63-12.38,4.69-17.7,8.75-2.28,1.74-4.45,3.64-6.59,5.57-1.15,1.04-1.11,1.5-.17,2.64,.81,.98,1.69,1.89,2.66,2.97,.72-.61,1.4-1.14,2.02-1.73,3.56-3.37,7.44-6.34,11.85-8.48,3.87-1.88,7.85-3.54,11.86-5.11,4.17-1.63,7.88-3.88,10.82-7.27,2.66-3.06,4.19-6.62,4.11-10.71-.06-2.9-1.2-5.35-4.13-7.37Zm-81.05,34.59c.75-1.13,1.41-2.01,1.94-2.96,1.15-2.1,1.1-2.28-.89-3.64-5.05-3.47-10.52-6.01-16.48-7.49-8.45-2.1-13.11-7.66-13.71-16.26-.09-1.3-.3-2.6-.45-3.89-.19-.05-.37-.1-.56-.15-.62,.77-1.36,1.47-1.84,2.32-2.1,3.72-1.86,7.5-.07,11.25,2.62,5.49,7.03,9.04,12.62,11.12,6.67,2.49,13.23,5.16,19.45,9.69Zm3.93,44.42c.92-4.58,3.04-8.24,5.03-11.97,3.07-5.75,3.87-11.95,3.15-18.35-.17-1.55-.81-3.07-1.37-4.56-.36-.96-.95-1.85-2.16-2-.15,.24-.33,.42-.39,.63-.1,.38-.18,.78-.17,1.17,.13,5.19-1.61,9.86-3.97,14.37-.96,1.84-1.93,3.68-2.73,5.59-2.27,5.41-.83,10.23,2.61,15.11Zm24.94,26.36c.1-.82,.2-1.28,.2-1.74,0-9.02,0-18.05,0-27.07,0-.32-.02-.64-.03-.96-.06-.94-.54-1.38-1.51-1.5-3.04-.35-3.65,.14-3.85,3.21-.02,.32-.05,.64-.05,.96-.11,7.5-.22,15.01-.32,22.51-.01,1.04-.02,2.08,.03,3.11,.04,.92,.5,1.49,1.5,1.48,1.26,0,2.53,0,4.02,0Zm.08,55.65c.06-.84,.15-1.54,.15-2.24,.01-6.3,0-12.6,0-18.9,0-.4-.02-.8-.03-1.2-.04-.9-.4-1.63-1.36-1.66-1.53-.04-3.14-.99-4.55,.31-.2,.18-.22,.59-.25,.9-.05,.47-.06,.95-.06,1.43-.02,6.3-.04,12.6-.05,18.9,0,.7,.08,1.4,.12,2.14,2.03,.82,3.94,.7,6.03,.3Zm-21.67-74.48c.06,0,.13,.01,.19,.02,0,1.2-.07,2.4,.03,3.59,.05,.56,.41,1.53,.69,1.55,.61,.04,1.37-.26,1.84-.68,.44-.38,.66-1.08,.83-1.68,.47-1.6,.98-3.21,1.27-4.85,.52-2.91,2.02-5.15,4.32-6.92,.44-.34,.94-.61,1.35-.99,.74-.68,1.75-1.28,1.37-2.54-.25-.85-1.38-1.19-2.95-.76-4.14,1.13-7.1,3.64-8.26,7.84-.48,1.74-.47,3.61-.68,5.42Zm23.84,83.19c-.69-3.9-1.61-4.16-5.1-4.69-.51-.08-1.34,.3-1.6,.72-.25,.42-.05,1.19,.14,1.75,.14,.42,.56,.76,.89,1.11,3.54,3.83,8.27,4.46,13.09,4.8,.85,.06,1.29-.49,1.46-1.28,.42-1.94-1.13-3.66-3.18-3.45-.86,.09-1.69,.46-2.55,.62-.99,.18-2,.27-3.15,.42Zm55.98-8.73c-.39-.85-.69-1.87-1.27-2.67-1.16-1.61-2.42-1.59-3.23,.22-1.22,2.73-2.15,5.6-3.18,8.42-.13,.36-.12,.79-.08,1.18,.11,1.28,.9,1.72,1.92,.91,2.06-1.63,3.97-3.44,5.16-5.84,.31-.63,.42-1.35,.68-2.22Zm-35.27-98.09c4.07,.24,4.19,.22,6.37-.64-3.18-4.6-11.84-7.27-14.83-4.59,1.52,.23,3.07,.47,4.74,.72-.29,.58-.48,.97-.75,1.51h1.91v1.28c1.01,.05,1.96,.09,3,.14-.14,.51-.27,.94-.45,1.59Zm1.56,21.38c-.72-2.6-2.81-3.73-4.46-4.39-1.77-.71-3.2-1.59-4.57-2.8-.73-.64-1.51-1.33-2.92-.78,3.42,3.58,5.72,8.31,11.95,7.97Z"/>
  <path class="cls-16" d="M679.18,470.23c0-2.5-.06-4.64,.02-6.78,.05-1.2,.86-1.79,2.05-1.96,2.92-.43,5.85-.86,8.76-1.38,2.12-.38,4.21-.9,6.32-1.35,2.07-.44,3.5-1.69,4.02-3.69,.59-2.22,1.16-4.51,1.26-6.79,.29-6.62,.49-13.26,.45-19.89-.11-17.5-.32-35-.57-52.5-.12-8.39-.41-16.77-.68-25.16-.06-1.91-.37-3.81-.51-5.72-.13-1.74-1.1-2.86-2.68-3.29-1.69-.46-3.43-.76-5.17-.96-3.57-.4-7.16-.67-10.74-1.02-2-.19-2.13-.33-2.3-2.29-.09-1.03-.12-2.07-.16-3.11-.07-1.85,.25-2.21,2.19-2.27,5.75-.17,11.51-.3,17.26-.45,17.18-.44,34.37-.99,51.55-1.28,8.47-.14,16.96-.08,25.42,.39,9.28,.51,18.05,3.2,26.16,7.83,6.87,3.91,11.78,9.44,14.14,17.11,3.05,9.88,.26,19.52-7.67,26.13-2.97,2.47-6.29,4.38-9.81,5.93-2.34,1.03-4.71,1.98-7.05,2.98-.7,.3-1.37,.67-2.05,1l.03,.5c.86,.24,1.72,.51,2.59,.72,5.92,1.48,11.61,3.52,16.81,6.75,6.85,4.26,12.17,9.9,15.02,17.51,2.99,7.96,1.94,15.89-.99,23.64-2.41,6.39-6.65,11.43-12.18,15.38-7.33,5.24-15.57,8.37-24.36,10.12-10.09,2.01-20.31,2.44-30.56,2.17-14.32-.38-28.62-.21-42.92,.49-10.46,.51-20.93,.83-31.4,1.23-.7,.03-1.41,0-2.27,0Zm55.92-70.68c0,1.27,.01,2.14,0,3-.08,5.11-.25,10.22-.23,15.32,.05,11.66,.16,23.31,.31,34.97,.05,3.67,.78,4.48,4.41,5.48,12.42,3.42,24.52,2.26,36.26-2.78,5.4-2.32,9.5-6.15,11.9-11.59,2.92-6.62,3.63-13.61,2.38-20.64-2.06-11.58-11.01-20.38-22.56-22.66-8.66-1.71-17.43-2.14-26.23-1.82-1.97,.07-3.94,.44-6.25,.72Zm-.02-34.86c-.12,0-.24,0-.36,0,0,5.99,0,11.98,0,17.97,0,1.68,.07,3.35,.08,5.03,0,.94,.42,1.51,1.37,1.63,.55,.07,1.11,.2,1.66,.21,5.35,.02,10.71,.21,16.06-.02,5.28-.23,10.42-1.36,15.41-3.2,7.11-2.61,11.45-7.62,13.33-14.84,.44-1.69,.79-3.45,.86-5.19,.32-8.74-2.51-16.03-10.23-20.81-2.15-1.33-4.48-2.5-6.88-3.3-9.86-3.28-19.96-3.1-30.09-1.61-1.88,.28-1.94,.43-1.88,2.34,.2,7.26,.44,14.53,.66,21.79Z"/>
  <path class="cls-3" d="M595.63,339.34c0-2.41-.02-4.63,.01-6.85,.02-.96,.6-1.42,1.56-1.4,.48,0,.96-.02,1.44,0,7.75,.23,15.51,.3,23.25,.73,8.33,.46,16.62,.11,24.92-.48,1.28-.09,2.55-.14,3.83-.21,1.12-.07,1.91,.39,2.06,1.53,.21,1.58,.36,3.17,.42,4.75,.04,1.09-.56,1.8-1.7,1.96-1.98,.28-3.95,.58-5.93,.84-2.77,.36-5.56,.63-8.32,1.04-3.28,.49-4.4,1.77-4.47,5.13-.03,1.43,.25,2.86,.3,4.3,.23,6.23,.37,12.45,.64,18.68,.47,11.17,1,22.35,1.52,33.52,.49,10.47,.48,20.92-.75,31.35-1.12,9.51-5.37,17.25-12.83,23.28-7.54,6.1-16.14,9.95-25.49,12.2-12.21,2.95-24.59,3.9-37.12,3.05-8.88-.61-17.64-1.77-26.03-4.9-2.54-.95-5.02-2.05-7.46-3.22-11-5.28-17.45-14.13-20.12-25.9-1.55-6.82-1.97-13.74-1.97-20.71,0-18.46,.04-36.93-.07-55.39-.03-5.1-.52-10.21-.82-15.31-.17-2.91-1.74-4.86-4.5-5.52-3.02-.72-6.11-1.17-9.19-1.54-2.3-.28-4.63-.2-6.94-.35-1.82-.12-2.05-.33-2.14-2.16-.1-1.97-.02-3.95-.02-6.22,2.53-.06,4.99-.22,7.43-.15,10.07,.27,20.14,.82,30.21,.87,9.43,.05,18.86-.44,28.29-.61,4.87-.09,9.74-.02,14.82-.02,.16,2.71,.7,5.26,.28,8.08-1.97,.14-3.78,.29-5.59,.39-4.07,.21-8.14,.38-12.21,.61-.87,.05-1.73,.27-2.58,.49-1.51,.38-2.6,1.33-2.96,2.84-.4,1.7-.83,3.44-.84,5.17-.06,9.35-.03,18.7,.05,28.05,.07,9.58,.07,19.17,.4,28.74,.3,8.78,.8,17.56,1.58,26.31,.65,7.2,2.87,13.91,8.06,19.31,3.17,3.3,7.06,5.44,11.29,7.03,7.22,2.71,14.65,3.71,22.36,3.1,6.15-.49,12.25-1.19,18.14-3.08,9.3-2.99,16.59-8.42,20.91-17.42,2.36-4.92,3.15-10.16,3.61-15.53,.85-9.91,.27-19.8-.19-29.7-.35-7.42-.72-14.84-1.25-22.25-.43-6.13-1.11-12.25-1.66-18.38-.15-1.67-.26-3.35-.34-5.02-.35-6.81-3.82-10.42-10.65-10.77-3.51-.18-7.03,.02-10.55,0-.85,0-1.71-.16-2.69-.25Z"/>
  <path class="cls-3" d="M937.93,469.2c0-1.77-.06-3.2,.02-4.62,.09-1.73,1.01-2.74,2.78-3.07,4-.74,7.99-1.55,11.98-2.38,1.4-.29,2.82-.6,4.17-1.08,2.87-1.03,3.55-2.53,2.55-5.39-.23-.68-.53-1.33-.83-1.99-4.11-9.09-8.25-18.17-12.3-27.29-.86-1.93-2.09-2.75-4.24-2.74-13.52,.06-27.03,.06-40.55,0-2.11,0-3.45,.65-4.26,2.67-3.41,8.44-6.92,16.83-10.32,25.26-.56,1.39-.92,2.9-1.12,4.39-.34,2.48,.46,4.07,2.79,4.97,2.06,.8,4.27,1.29,6.46,1.68,3.14,.57,6.32,.91,9.48,1.39,1.96,.3,2.13,.52,2.14,2.44,0,1.2,0,2.4-.01,3.6-.03,1.99-.23,2.26-2.21,2.19-5.03-.19-10.06-.43-15.09-.73-5.19-.31-10.37-.96-15.55-1.01-3.89-.04-7.79,.69-11.69,.97-4.62,.33-9.25,.55-13.87,.79-.45,.02-.92-.12-1.51-.2,0-2-.09-3.89,.03-5.77,.08-1.23,1.06-1.59,2.2-1.79,3.93-.69,7.83-1.56,11.77-2.18,4.26-.67,7.38-2.87,9.51-6.54,.64-1.1,1.19-2.26,1.7-3.43,16.81-39.08,33.6-78.16,50.4-117.25,.13-.29,.29-.58,.37-.88,.59-2.37,2.17-3.08,4.49-2.94,2.31,.14,4.65,.17,6.95,0,2.34-.18,3.64,.74,4.64,2.85,5.83,12.34,11.74,24.65,17.68,36.93,10.96,22.64,20.98,45.7,31.29,68.63,2.52,5.6,5.38,11.05,8.08,16.57,1.6,3.27,4.18,5.08,7.8,5.62,3.47,.51,6.93,1.16,10.36,1.91,2.75,.61,2.89,.91,3.22,3.66,.55,4.63,.41,4.92-4.11,4.76-8.15-.29-16.29-.9-24.44-1.11-7.99-.2-15.99-.2-23.98-.01-7.91,.19-15.81,.73-23.72,1.11-.94,.04-1.89,0-3.06,0Zm1.85-60c-5.68-14.05-11.64-27.73-18.94-41.31-5.94,14.03-11.68,27.58-17.49,41.31h36.42Z"/>
  <path class="cls-3" d="M1356.22,468.99c-4.53,0-8.61,.2-12.67-.04-12.06-.7-24.11-1.51-36.19-1.05-7.67,.29-15.33,.76-23,1.09-2.3,.1-4.61,.02-7.08,.02-.62-1.87-.33-3.85-.03-5.79,.18-1.17,1.25-1.52,2.34-1.73,4-.75,8-1.52,11.99-2.34,1.63-.34,3.28-.73,4.83-1.32,2.26-.86,2.78-1.93,2.26-4.31-.23-1.08-.6-2.16-1.05-3.17-4.13-9.08-8.34-18.13-12.41-27.24-.82-1.83-1.9-2.44-3.84-2.44-13.6,.05-27.19,.03-40.79-.04-2.11,0-3.48,.72-4.28,2.7-3.49,8.58-7.04,17.12-10.5,25.71-.53,1.32-.84,2.75-1.04,4.16-.28,1.95,.59,3.49,2.34,4.33,1.42,.69,2.95,1.28,4.49,1.59,3.05,.61,6.15,.99,9.22,1.47,.79,.12,1.59,.18,2.37,.32,2.47,.44,2.56,.55,2.54,3.11-.01,1.65-.09,3.3-.14,5.06-2.6,0-4.9,.1-7.2-.02-7.34-.39-14.71-.62-22.02-1.37-5.26-.54-10.35,.16-15.5,.82-4.91,.63-9.85,.94-14.93,.65-.84-2.19-.18-4.32,.18-6.38,.1-.55,1.27-1.14,2.04-1.3,3.9-.83,7.82-1.67,11.76-2.23,4.11-.58,7.15-2.59,9.23-6.1,.65-1.09,1.19-2.26,1.7-3.43,16.8-39.08,33.59-78.17,50.39-117.25,.22-.51,.46-1.02,.64-1.55,.69-2.04,2.08-2.81,4.24-2.67,2.39,.15,4.8,.17,7.19,0,2.36-.17,3.69,.81,4.66,2.88,5.07,10.85,10.06,21.73,15.36,32.47,12.41,25.13,23.47,50.87,35.04,76.39,2.14,4.72,4.63,9.28,6.98,13.91,1.4,2.77,3.68,4.29,6.72,4.84,3.92,.71,7.85,1.44,11.74,2.31,2.31,.52,2.37,.75,2.41,3.12,.03,1.58,0,3.15,0,4.8Zm-96.02-100.5c-1.72,2.09-16.99,38.48-17.1,40.78,11.77,.04,23.53,.2,35.68,.15-5.43-14.29-11.5-27.75-18.58-40.93Z"/>
  <path class="cls-3" d="M1069.33,343.48c.56,1.2,.84,2.04,1.31,2.74,2.42,3.66,4.68,7.46,7.39,10.9,8.22,10.42,15.81,21.29,23.47,32.12,2.35,3.33,4.85,6.55,7.32,9.79,.52,.68,1.17,1.25,1.85,1.96,.58-.62,1.05-1.05,1.44-1.53,7.72-9.48,15.46-18.95,23.12-28.47,6.07-7.55,10.93-15.93,16.16-24.06,2.18-3.39,1.43-5.02-2.59-5.83-2.41-.49-4.9-.57-7.36-.86-1.35-.16-2.69-.39-4.03-.56-1.27-.15-2.1-.73-2.16-2.1-.09-1.96-.61-3.91-.29-5.78,3.48,0,6.75-.1,10.01,.02,6.71,.26,13.41,.8,20.12,.92,4.86,.09,9.74-.25,14.6-.53,4.83-.27,4.18-.11,4.25,3.89,.07,4.4-.42,3.73-3.66,4.39-1.09,.22-2.18,.49-3.29,.65-5.73,.83-10.35,3.61-14.03,7.99-1.85,2.2-3.66,4.45-5.31,6.8-9.99,14.19-20.88,27.68-31.76,41.18-2.15,2.67-4.16,5.47-6.22,8.21-1.64,2.19-2.33,4.67-2.33,7.4,.02,13.98,0,27.97,.01,41.95,0,.64,0,1.28,.09,1.91,.26,1.78,.74,2.35,2.58,2.6,3.88,.53,7.77,.94,11.66,1.43,2.22,.28,4.45,.5,6.63,.94,2.13,.44,2.51,1.06,2.37,3.17-.09,1.43-.26,2.85-.42,4.47-.71,.13-1.39,.38-2.06,.36-5.59-.13-11.2-.07-16.77-.53-9.33-.77-18.64-1.48-28.01-.91-3.27,.2-6.56-.06-9.83,.12-5.34,.29-10.67,.87-16.02,1.14-3.01,.15-6.03-.06-9.03-.11-.2-.52-.37-.8-.41-1.09-.75-5.16-.35-5.68,4.77-6.56,5.59-.96,11.16-1.98,16.74-2.99,.55-.1,1.09-.26,1.62-.44,1.62-.54,1.89-.83,1.88-2.59-.08-11.74-.21-23.49-.27-35.23-.02-4.08-1.44-7.64-3.7-10.94-.5-.72-1.02-1.44-1.58-2.11-13.41-15.9-25.4-32.87-37.56-49.71-3.45-4.78-7.32-9.27-11.01-13.89-1.5-1.88-3.48-3.03-5.82-3.54-2.81-.61-5.62-1.17-8.44-1.77-2.11-.45-2.3-.71-2.24-2.9,.1-3.64,.09-3.81,3.84-4.02,4.22-.25,8.47-.36,12.69-.18,11.9,.52,23.78,1.33,35.68,1.81,7.68,.31,15.34-.13,22.95-1.28,2.19-.33,2.72,.1,2.82,2.35,.05,1.04,0,2.08-.04,3.11-.07,2.22-.12,2.45-2.34,2.85-4.95,.91-9.92,1.65-14.88,2.48-1.15,.19-2.29,.49-3.91,.84Z"/>
  <path class="cls-8" d="M216.33,590.38c-3.55,.76-4.12,.45-4.94-2.41-1.35-4.73-1.1-9.32,1.33-13.69,.31-.55,.58-1.13,.96-1.88-.86-.38-1.64-.74-2.43-1.08-14.97-6.52-27.61-16.02-37.24-29.29-8.35-11.5-13.25-24.38-14.69-38.5-.49-4.84-.72-9.73-.74-14.59-.08-18.86-.03-37.73-.04-56.59,0-.96,.01-1.93-.16-2.86-.35-1.81-1.65-2.68-3.28-2.32-1.7,.37-2.5,1.56-2.25,3.35,.25,1.82-.34,2.44-2.16,2.26-1.96-.19-3.63-1.51-3.68-3.48-.07-2.44-1.29-3.31-3.45-3.76-1.93-.4-2.72-1.61-2.82-3.51,1.98-.65,20.89-.69,23.29,.02,.04,.86,.12,1.8,.12,2.74-.08,12.47-.25,24.93-.25,37.4,0,11.58-.01,23.17,.31,34.75,.49,17.48,5.96,33.25,17.24,46.77,9.33,11.19,21.16,18.86,34.75,23.92,1.42,.53,2.88,.98,4.25,1.62,1.78,.83,1.83,2.11,.23,3.23-.26,.18-.56,.31-.83,.47-5.67,3.5-7.29,8.74-4.6,14.86,.34,.79,.67,1.58,1.09,2.57Z"/>
  <path class="cls-6" d="M376.25,423.25h23.48c-.11,1.97-1.15,3.34-2.88,3.7-2.48,.52-3.76,1.68-3.84,4.29-.04,1.26-.94,2.17-2.11,2.71-2.2,1-3.47,.23-3.59-2.17-.12-2.43-1.27-3.38-3.53-2.97-1.08,.2-1.75,.8-1.89,1.87-.15,1.18-.26,2.38-.26,3.58-.02,19.02-.04,38.05,0,57.07,.02,10.62-1.18,21.05-4.58,31.15-5.51,16.37-15.64,29.34-29.37,39.62-5.85,4.38-12.12,8.01-18.89,10.78-.71,.29-1.39,.67-2.17,1.05,.26,.64,.39,1.09,.62,1.49,2.53,4.41,2.86,9.06,1.59,13.9-.8,3.03-1.46,3.41-4.8,2.5,.23-.65,.46-1.3,.68-1.95,.33-.98,.72-1.95,.97-2.95,1.31-5.22-.63-9.75-5.29-12.43-.35-.2-.73-.33-1.07-.54-1.5-.93-1.45-2.26,.13-3.08,.49-.25,1.05-.37,1.58-.55,13.74-4.78,25.94-11.99,35.79-22.83,9.73-10.7,15.57-23.29,18.03-37.49,1.36-7.83,1.46-15.74,1.46-23.65,0-18.54-.08-37.08-.14-55.62,0-1.76-.1-3.51-.11-5.27,0-.69,.11-1.39,.19-2.19Z"/>
  <path class="cls-20" d="M1180.42,525.83c1.78-.09,3.28-.23,4.78-.22,4.63,.03,9.27,.05,13.9,.21,5.36,.19,8.97,2.94,10.76,8,2.24,6.34,.67,11.92-3.95,15.55-.18,.14-.29,.37-.52,.68,.6,.4,1.17,.77,1.74,1.15,3.42,2.27,5.24,5.5,5.67,9.53,.39,3.65-.14,7.16-1.88,10.44-2.03,3.82-5.2,6.18-9.46,6.43-6.45,.37-12.93,.35-19.4,.44-1.48,.02-1.77-.37-1.83-1.86-.04-.96-.03-1.92-.03-2.87,0-14.62,0-29.23,0-43.85,0-1.16,.13-2.33,.21-3.62Zm5.58,37.04c0,2.39,0,4.78,0,7.17,0,.97,.27,1.81,1.43,1.79,4.46-.1,8.92-.2,13.37-.41,1.67-.08,2.99-1.03,4.02-2.33,2.53-3.18,2.72-6.66,1.3-10.35-1.12-2.91-3.29-4.47-6.34-4.63-3.9-.2-7.8-.24-11.71-.29-1.73-.02-2.05,.35-2.07,2.12-.02,2.31,0,4.62,0,6.93Zm.34-15.47c4.2,0,8.19,.15,12.17-.04,4.08-.2,6.51-2.94,6.62-7.04,.01-.56,.02-1.12-.02-1.68-.28-3.73-2.64-6.3-6.37-6.53-3.66-.23-7.34-.16-11.01-.23-1.21-.02-1.71,.52-1.71,1.74,.03,4.15,0,8.3,.03,12.45,0,.38,.17,.76,.3,1.33Z"/>
  <path class="cls-25" d="M1082.64,525.72c2.85-.04,5.39-.13,7.94-.12,4.32,.02,8.64,.28,12.95,.13,6.78-.23,11.96,3.33,13.09,11.47,.3,2.17,.15,4.49-.26,6.65-.9,4.67-3.78,7.8-8.29,9.39-.8,.28-1.57,.63-2.61,1.04,4.5,3.59,6.98,8.32,9.41,13.1,1.48,2.92,3.03,5.79,4.54,8.7,.28,.54,.48,1.13,.84,1.97-2.14,0-4.03,0-5.92,0-1.14,0-1.62-.82-2.08-1.71-1.85-3.54-3.67-7.08-5.6-10.58-1.39-2.51-2.87-4.98-4.4-7.41-1.41-2.24-3.48-3.5-6.17-3.55-2.45-.05-4.91,0-7.61,0-.05,1.11-.11,1.95-.11,2.8,0,5.51,0,11.03,0,16.54,0,.64,.02,1.28-.02,1.92-.12,1.73-.29,1.9-1.96,2.04-.4,.03-.8,.05-1.2,.05-2.1,.03-2.41-.22-2.59-2.22-.1-1.11-.14-2.23-.14-3.35,0-14.23-.01-28.45,0-42.68,0-1.27,.12-2.53,.2-4.19Zm5.8,22.68c.54,.15,.84,.3,1.14,.3,4.87-.09,9.73-.13,14.59-.35,1.98-.09,3.66-1.13,4.83-2.76,2.03-2.84,2.76-5.94,1.19-9.23-1.57-3.29-4.39-4.72-7.93-4.78-3.91-.07-7.82-.05-11.73-.05-.68,0-1.35,.14-2.1,.22v16.64Z"/>
  <path class="cls-18" d="M540.01,538.27v39.36c-.48,.2-.68,.35-.91,.37-4.27,.46-4.48,.27-4.48-3.98,0-15.1,0-30.19,0-45.29,0-2.84,.71-3.48,3.53-3.22,1.34,.12,2.46,.7,3.21,1.83,.49,.73,.93,1.49,1.35,2.26,6.15,11.27,12.29,22.54,18.45,33.8,.4,.73,.88,1.41,1.74,1.96v-39.26c1.84-.71,3.52-.56,5.47-.19,.07,1.2,.2,2.37,.2,3.53-.01,15.41-.04,30.83-.08,46.24,0,2.32-.08,2.14-2.46,2.4-2.54,.27-3.88-.75-5.06-2.94-6.35-11.8-12.84-23.52-19.29-35.26-.33-.6-.72-1.15-1.09-1.73l-.59,.12Z"/>
  <path class="cls-23" d="M727.11,554.18c7.01,6.05,9.64,14.58,13.96,22.07,.26,.44,.32,1,.56,1.8-2.06,0-3.87,0-5.69,0-1.19,0-1.61-.91-2.06-1.75-1.8-3.38-3.55-6.79-5.4-10.14-1.35-2.45-2.77-4.85-4.23-7.23-1.89-3.08-4.66-4.43-8.3-4.11-1.26,.11-2.55-.07-3.83-.1-1.87-.04-2.26,.29-2.27,2.19-.03,5.99,0,11.99-.01,17.99,0,.56-.01,1.12,0,1.68,0,.87-.5,1.36-1.3,1.44-.95,.1-1.92,.08-2.87,.08-.98,0-1.44-.61-1.54-1.5-.08-.63-.05-1.28-.05-1.92,0-15.43,0-30.85,0-46.28v-2.42c.78-.15,1.31-.34,1.84-.34,6.95,.05,13.91,.11,20.86,.2,4.82,.06,8.16,2.41,10.15,6.72,1.77,3.84,2.12,7.82,.99,11.92-1.17,4.23-3.81,7.11-7.91,8.66-.88,.33-1.77,.63-2.9,1.03Zm-16.84-22.45c-.14,.34-.37,.63-.37,.91-.03,4.87-.04,9.74-.05,14.61,0,1.17,.73,1.5,1.73,1.48,4.55-.1,9.1-.13,13.65-.34,1.94-.09,3.74-.84,5.04-2.42,2.4-2.91,2.87-6.24,1.53-9.66-1.31-3.36-4.17-4.67-7.64-4.72-4.23-.05-8.47-.03-12.7-.03-.39,0-.77,.11-1.18,.17Z"/>
  <path class="cls-23" d="M662.89,554.22v17.37c4.41,.47,8.71,.16,12.99,.21,4.23,.06,8.45,.01,12.62,.01,1.01,1.66,.67,3.28,.55,4.83-.03,.41-.63,.91-1.08,1.11-.56,.24-1.24,.28-1.87,.28-8.95,.02-17.91,.02-26.86,0-2.24,0-2.33-.09-2.33-2.28,0-16.14,0-32.28,0-48.42,0-.4,.05-.79,.09-1.42,.67-.11,1.35-.32,2.02-.32,9.19,.02,18.38,.06,27.58,.11,.31,0,.61,.11,1,.18,.1,.31,.26,.6,.28,.89,.3,5.17,.21,5.08-4.52,5.09-6,0-11.99,0-17.99,0-2.56,0-2.66,.13-2.65,2.73,.01,4.15,0,8.29,0,12.32,1.06,1.23,2.32,.87,3.47,.87,5.99,.02,11.99-.02,17.98,.02,2.37,.02,2.39,.11,2.55,2.42,.02,.32,.04,.64,.04,.96,.03,2.18-.4,2.67-2.59,2.8-1.2,.07-2.4,.02-3.6,.02-5.28,.02-10.55,.03-15.83,.05-.55,0-1.09,.08-1.89,.15Z"/>
  <path class="cls-14" d="M1015.27,540.24c-1.83,.2-3.39,.37-5.18,.56-.18-.84-.32-1.52-.47-2.19-1.1-5.01-4.11-7.59-9.24-7.64-1.97-.02-4.02,.16-5.88,.74-2.49,.77-4.13,2.65-4.73,5.28-.73,3.19,.57,6.26,3.59,7.55,3.06,1.31,6.29,2.25,9.44,3.34,1.65,.57,3.36,1.01,4.96,1.7,6.54,2.82,9.92,9.08,8.77,16.1-1.19,7.31-6.47,12.4-13.63,12.9-2.45,.17-5,.23-7.39-.24-6.81-1.34-11.59-6.66-12.63-13.64q-.54-3.64,3.07-3.99c1.85-.18,1.85-.17,2.27,1.79,1.74,8.22,9.96,12.35,17.7,8.95,4.42-1.94,5.98-6.19,4.57-10.75-.63-2.04-2.23-3.32-4.13-4.09-2.28-.93-4.64-1.66-6.97-2.48-2.33-.82-4.71-1.51-6.97-2.49-8.1-3.52-10.95-12.92-6.3-20.48,1.2-1.95,2.76-3.54,4.83-4.52,5.67-2.7,11.37-2.94,16.98,.15,5.15,2.83,7.1,7.46,7.31,13.46Z"/>
  <path class="cls-14" d="M938.88,540.75c-.31-1.02-.57-1.84-.81-2.67-1.41-4.86-3.9-6.94-8.93-7.09-1.96-.06-4.04,.09-5.88,.69-3.07,1-4.79,3.31-4.9,6.66-.09,2.94,1.04,5.2,3.82,6.29,3.11,1.22,6.31,2.18,9.46,3.31,2.17,.78,4.43,1.42,6.43,2.52,4.63,2.54,7.01,6.48,7.09,11.89,.07,4.61-.95,8.7-4.3,12.01-2.53,2.5-5.57,3.96-9.12,4.27-2.96,.26-5.91,.22-8.8-.57-6.95-1.89-12.13-9.17-11.62-16.31,.02-.22,.17-.43,.24-.63,4.53-.99,4.67-1.12,5.82,3.26,1.2,4.57,5.27,7.73,10,7.96,2.04,.1,4.19,.02,6.14-.52,3.7-1.02,6.08-4.22,6.19-7.67,.11-3.57-1.75-6.4-5.49-7.88-2.96-1.17-6.03-2.05-9.03-3.1-1.58-.55-3.15-1.13-4.67-1.83-6.01-2.79-8.71-8.1-7.67-14.97,.91-5.96,5.55-10.59,11.61-11.45,3.52-.5,7.02-.39,10.38,.97,5.74,2.32,8.29,6.92,9.08,12.78,.15,1.09-.33,1.7-1.39,1.82-1.1,.12-2.22,.15-3.67,.25Z"/>
  <path class="cls-14" d="M785.71,540.02c-.84,.26-1.36,.51-1.89,.56-3.42,.35-3.29,.09-4.06-2.55-1.38-4.8-3.95-6.77-9-7.05-2.32-.13-4.62-.09-6.76,1.06-2.74,1.47-3.99,3.73-3.94,6.83,.05,3.03,1.57,5.02,4.25,6.03,3.42,1.29,6.95,2.28,10.4,3.5,1.94,.69,3.94,1.38,5.68,2.45,6.03,3.7,8.21,10.9,5.54,18.11-2.14,5.81-6.46,8.93-12.55,9.64-3.69,.43-7.34,.25-10.8-1.29-6.2-2.76-9.02-7.81-9.54-14.34-.14-1.73,.09-1.89,1.77-2.17,.47-.08,.95-.15,1.42-.2,1.21-.13,2.01,.34,2.25,1.59,.06,.31,.14,.62,.21,.93,1.21,5.56,5.2,8.97,10.9,9.34,2.59,.17,5.1-.12,7.43-1.36,3.18-1.7,4.43-4.47,4.25-7.95-.17-3.29-1.87-5.53-4.96-6.65-3.59-1.3-7.21-2.52-10.81-3.8-1.12-.4-2.24-.84-3.32-1.33-5.38-2.46-7.96-6.71-7.83-12.56,.13-5.95,2.66-10.61,8.32-12.82,5.25-2.05,10.66-1.94,15.72,.88,5.04,2.8,6.77,7.52,7.3,13.16Z"/>
  <path class="cls-6" d="M315.06,584.15c-.9,.63-1.66,1.17-2.4,1.69,.62,1.85,1.04,2.08,2.43,1.33,1.88-1.01,2.44-3.02,1.45-5.17-1.42-3.06-4.91-4.83-8.37-4.22-2.02,.35-3.83,1.16-5.27,2.64-.89,.92-1.72,1.19-2.95,.55-1.94-1.01-3.94-.73-5.66,.53-1.51,1.1-2.99,1.25-4.73,.7-1.97-.63-3.91-.58-5.73,.66-.43,.29-1.21,.32-1.75,.18-1.64-.44-3.18-.32-4.64,.5-.79,.44-1.48,.51-2.2-.1-.18-.15-.4-.27-.62-.36-1.08-.49-8.29-.38-9.28,.28-.93,.61-1.72,.69-2.64,.06-1.07-.74-2.29-.74-3.46-.4-1.17,.34-2.19,.18-3.22-.39-1.47-.8-3-1-4.63-.49-2.12,.66-4.15,.31-5.97-.88-1.64-1.08-3.27-1.22-4.96-.3-1.2,.66-2.15,.28-3.01-.58-1.4-1.4-3.1-2.23-5.04-2.58-3.89-.72-7.56,1.28-8.9,4.85-.81,2.15,.39,4.35,2.57,4.77,.75,.14,1.37-.04,1.5-.76,.07-.42-.23-1.02-.55-1.35-.42-.44-1.02-.69-1.53-1.01,.87-1.77,2.3-2.41,3.86-1.85,1.55,.56,2.52,2.15,2.45,4.01-.07,1.78-.83,2.64-2.74,3.1-.08,.02-.16,.02-.24,.04-3.41,.7-6.95-.46-8.39-2.75-1.45-2.32-.88-6.99,1.3-9.44,2.5-2.81,5.7-4.3,9.45-4.61,3.09-.26,6.05,.41,8.96,1.3,4.97,1.52,10.04,2.62,15.17,3.41,1.43,.22,2.63,.21,3.59-1.15,2.59-3.66,7.37-3.97,10.54-.54,.16,.17,.36,.31,.66,.57,.46-.39,.94-.78,1.41-1.18,3-2.55,6.62-2.57,9.17,.4,1.61,1.87,3.18,2.27,5.44,1.72,6.04-1.47,12.12-2.79,18.18-4.2,4.65-1.08,8.87-.21,12.67,2.69,3.12,2.38,4.11,5.61,3.56,9.35-.38,2.56-2.3,3.83-4.59,4.31-1.52,.32-3.18,.24-4.74,.03-1.8-.24-2.61-1.27-2.71-2.84-.12-1.85,.94-3.62,2.53-4.24,1.37-.53,2.57-.07,4.03,1.72Z"/>
  <path class="cls-14" d="M484.24,525.79h5.39c.09,1.17,.24,2.18,.25,3.19,.02,9.19-.03,18.39,.04,27.58,.02,2.47,.19,4.95,.58,7.39,.86,5.45,4.33,8.39,9.85,8.53,1.19,.03,2.42-.02,3.57-.27,3.96-.87,6.57-3.22,7.22-7.33,.41-2.59,.83-5.22,.86-7.83,.1-9.35,.04-18.7,.04-28.06,0-3.31,.22-3.51,3.56-3.38,.7,.03,1.39,.18,2.25,.3,0,1.01,0,1.88,0,2.75,.01,9.67,.02,19.34,.04,29.01,0,3.62-.44,7.18-1.51,10.63-1.86,6.03-6.02,9.35-12.23,10.32-3.32,.52-6.54,.28-9.7-.72-4.43-1.4-7.44-4.41-8.69-8.85-.83-2.97-1.49-6.09-1.55-9.16-.2-10.71-.11-21.42-.12-32.13,0-.55,.07-1.1,.14-1.97Z"/>
  <path class="cls-23" d="M1031.94,525.83h5.66v2.8c0,9.59-.06,19.17,.04,28.76,.03,2.61,.38,5.25,.89,7.82,.76,3.82,3.29,6.21,7.06,6.93,1.99,.38,4.16,.34,6.16-.02,3.9-.7,6.44-3.1,7.08-7.11,.43-2.67,.83-5.37,.86-8.06,.1-9.35,.04-18.69,.05-28.04,0-.94,.11-1.88,.19-3.05h5.45c.07,.67,.18,1.29,.18,1.9,.01,10.23,.01,20.45,0,30.68,0,3.54-.48,7.01-1.6,10.37-1.91,5.72-6,8.81-11.86,9.8-3.05,.52-6.03,.32-9.01-.45-4.9-1.27-8.08-4.36-9.63-9.1-1.02-3.12-1.62-6.34-1.62-9.64,0-10.46-.02-20.93-.02-31.39,0-.63,.06-1.26,.11-2.19Z"/>
  <path class="cls-20" d="M901.19,577.95c-2.05,.03-3.7,.12-5.34,.06-1.16-.04-1.49-1-1.78-1.96-1.14-3.73-2.32-7.45-3.48-11.18-.82-2.65-.87-2.69-3.67-2.7-4.23,0-8.47,0-12.7,0-2.45,0-2.55,.07-3.27,2.55-.96,3.29-1.91,6.58-2.83,9.88-.98,3.51-1.05,3.58-4.78,3.44-.61-.02-1.21-.16-2.08-.28,.24-1.02,.37-1.86,.62-2.67,4.8-15.27,9.61-30.54,14.42-45.81,1.19-3.79,.79-3.62,4.64-3.62,2.8,0,2.82-.09,3.71,2.58,5.13,15.25,10.25,30.5,15.36,45.75,.38,1.12,.68,2.27,1.19,3.96Zm-13.33-21.72c-2.37-7.74-4.65-15.2-6.93-22.66-.13,0-.26,0-.38,0-2.37,7.5-4.74,15-7.16,22.66h14.47Z"/>
  <path class="cls-20" d="M1168.46,577.66c-1.91,.71-3.83,.46-5.68,.24-.5-.06-1.06-1.1-1.29-1.79-1.2-3.63-2.31-7.29-3.45-10.93-.17-.53-.32-1.07-.49-1.6-.3-.97-.96-1.39-1.97-1.39-4.95,.01-9.91-.02-14.86,.02-1.55,.01-1.77,.29-2.32,2.18-1.12,3.82-2.23,7.64-3.36,11.46-.63,2.14-.75,2.24-3,2.21-1.08-.01-2.17-.13-3.5-.22,.21-.82,.31-1.34,.46-1.84,4.92-15.73,9.84-31.46,14.77-47.19,.99-3.16,1.36-3.37,4.81-3.21,1.68,.08,2.76,.61,3.35,2.39,5.41,16.32,10.9,32.62,16.37,48.93,.07,.2,.09,.43,.15,.75Zm-20.35-44.83c-2.51,8.06-4.87,15.6-7.27,23.33h14.38c-2.35-7.72-4.65-15.25-7.11-23.33Z"/>
  <path class="cls-20" d="M1263.16,577.58c-1.78,.77-3.52,.69-5.2,.29-1.2-.29-1.61-1.48-1.96-2.55-1.14-3.48-2.24-6.98-3.34-10.47-.84-2.67-.83-2.68-3.62-2.68-4.39,0-8.79-.02-13.18,0-2.04,0-2.07,.04-2.64,1.99-1.11,3.82-2.18,7.66-3.29,11.48-.64,2.21-.86,2.37-3.17,2.38-1.08,0-2.15-.11-3.53-.18,1.28-4.22,2.4-8.09,3.61-11.93,3.92-12.46,7.87-24.91,11.81-37.36,.19-.61,.35-1.23,.61-1.81,.15-.34,.46-.86,.72-.87,1.65-.11,3.33-.24,4.97-.07,1.32,.13,1.53,1.47,1.88,2.52,5.28,15.78,10.54,31.57,15.81,47.35,.2,.59,.33,1.19,.52,1.89Zm-20.34-44.83c-2.06,8.02-5.19,15.57-7.17,23.66,2.67,0,4.98,0,7.28,0,2.26,0,4.52,0,7.07,0-2.48-8.16-4.83-15.9-7.18-23.65Z"/>
  <path class="cls-20" d="M1309.33,578.05c.2-1.16,.25-2.03,.51-2.83,4.88-15.51,9.78-31.01,14.67-46.51,.36-1.13,.46-2.62,1.83-2.84,1.54-.24,3.22-.25,4.7,.16,.73,.2,1.33,1.51,1.66,2.43,1.43,3.97,2.75,7.98,4.09,11.99,4,11.94,7.98,23.89,11.97,35.83,.12,.37,.22,.75,.41,1.37-1.92,.66-3.8,.66-5.64,.23-.98-.23-1.43-1.12-1.71-2.13-1.06-3.84-2.19-7.66-3.32-11.47-.55-1.86-.91-2.12-2.92-2.13-4.48-.02-8.95-.02-13.43-.01-2.18,0-2.58,.29-3.2,2.43-1.03,3.52-2.03,7.05-3.03,10.57-.82,2.91-.83,2.91-3.96,2.9-.71,0-1.42,0-2.63,0Zm12.19-21.82h14.34c-2.42-7.99-4.76-15.75-7.22-23.86-2.44,8.17-4.75,15.92-7.12,23.86Z"/>
  <path class="cls-18" d="M605.22,526.13c2.1-.84,3.98-.5,6.19-.23,4.35,14.92,8.73,29.93,13.21,45.27,.31-.89,.55-1.46,.73-2.06,4.11-13.57,8.2-27.14,12.32-40.71,.82-2.69,.85-2.71,3.55-2.76,.93-.02,1.86,.15,3.02,.25-1.09,3.58-2.07,6.93-3.13,10.24-4.24,13.28-8.51,26.54-12.78,39.81-.66,2.04-.71,2.07-2.86,2.11q-3.76,.07-4.87-3.41c-4.87-15.34-9.73-30.67-14.6-46.01-.26-.81-.51-1.62-.78-2.51Z"/>
  <path class="cls-20" d="M1288.64,577.48c-1.69,.91-3.29,.61-4.84,.45-.87-.09-.97-.93-.97-1.69,0-2.08,0-4.15,0-6.23,0-3.59-.08-7.19,.03-10.78,.07-2.4-.51-4.54-1.66-6.62-4.45-8.01-8.85-16.05-13.26-24.09-.41-.75-.75-1.53-1.11-2.26,.32-.23,.43-.38,.57-.4,5.46-.8,5.84-.6,8.44,4.32,3.06,5.78,6.11,11.55,9.18,17.32,.36,.67,.78,1.31,1.35,2.25,.76-1.5,1.34-2.7,1.97-3.87,3.15-5.91,6.33-11.8,9.47-17.71,.99-1.87,2.29-3.01,4.6-2.52,.92,.19,1.89,.12,3.21,.19-.44,.88-.73,1.56-1.1,2.2-4.62,8.11-9.21,16.22-13.89,24.29-1.36,2.35-2.08,4.74-2.02,7.49,.12,5.11,.04,10.22,.04,15.33,0,.79,0,1.58,0,2.33Z"/>
  <path class="cls-25" d="M837.1,531.89c-1.82,0-3.24,0-4.66,0-2.4,0-4.8,.03-7.2-.01-1.93-.04-2.15-.3-2.19-2.28-.02-1.18,0-2.37,0-3.69,.86-.13,1.47-.31,2.08-.31,9.43-.02,18.86-.03,28.3-.01,3.79,0,3.79,.03,3.75,3.88,0,.63-.06,1.26-.1,2.17-4.62,.61-9.25-.04-14.09,.4-.07,1-.19,1.91-.19,2.83-.01,13.35,0,26.69,0,40.04q0,3.16-3.14,3.15c-2.38,0-2.55-.18-2.55-2.6,0-13.43,0-26.85,0-40.28,0-.95,0-1.89,0-3.3Z"/>
  <path class="cls-6" d="M128.79,447.6c2.14-2.71,3.76-5.41,4.32-8.67,.76-4.39,.07-8.62-1.36-12.72-.75-2.17-2.44-3.75-4.63-4.6-1.85-.72-3.63-.5-5.14,.87-1.37,1.24-1.34,1.94,.16,3.66,.28-.39,.53-.76,.82-1.1,.81-.98,1.79-1.69,3.12-1.23,1.3,.45,1.74,1.62,1.85,2.85,.11,1.28-.34,2.43-1.58,2.97-.78,.34-1.7,.54-2.55,.52-3.01-.05-6.05-2.22-7.02-4.97-.2-.57-.21-1.31-.03-1.88,2.25-7.17,11.32-9.29,16.38-3.71,2.29,2.53,4.12,5.49,6.2,8.21,1.45,1.9,2.83,3.89,4.49,5.59,2.74,2.8,6.07,3.72,9.88,2.34,.21-.08,.46-.06,.67-.09,1.55,3.53-.31,6.38-4.08,6.16-1.56-.09-3.1-.5-4.89-.81,.11,1.31,.32,2.49,.27,3.65-.04,1.15-.35,2.29-.55,3.52-3-.3-4.49-2.55-6.64-3.87-1.36,1.8-2.39,3.94-4.87,4.3-1.59,.23-3.17,.19-4.82-.98Z"/>
  <path class="cls-6" d="M417.89,427.67c1.54-1.7,1.6-2.37,.4-3.56-1.3-1.3-2.85-1.71-4.62-1.17-2.26,.69-4.01,2.06-4.98,4.2-2.73,6.01-2.59,12.11-.12,18.13,.55,1.34,1.78,2.4,2.77,3.69-1.66,1.26-3.61,1.83-5.48,.79-1.62-.9-2.93-2.38-4.45-3.66-1.99,1.08-3.43,3.26-6.08,3.65-1.24-2.28-.44-4.72-.67-7.23-.69,.14-1.2,.21-1.7,.34-.38,.1-.74,.3-1.13,.4-4.6,1.15-7.08-1.15-6.38-6.08,.52,.07,1.04,.1,1.55,.22,4.02,.95,7.52,.05,10.15-3.18,1.96-2.41,3.62-5.07,5.51-7.54,1.69-2.21,3.33-4.53,5.34-6.43,3.36-3.16,8.63-3.17,12.06-.19,1.04,.9,1.95,2.18,2.42,3.46,.77,2.09,.76,4.33-1,6.03-1.82,1.76-4.08,2.51-6.6,1.96-1.72-.37-2.68-1.62-2.66-3.22,.02-1.31,.58-2.32,1.79-2.88,1.04-.48,2.14-.08,3.12,1.1,.25,.3,.42,.66,.74,1.16Z"/>
  <path class="cls-6" d="M231.73,583.17c1.35-1.66,1.78-1.81,3.17-1.26,2.21,.87,3.77,3.44,3.34,6.05-.37,2.27-1.08,4.49-1.67,6.72-.19,.74-.46,1.46-.77,2.42h68.53c-.2-.64-.34-1.23-.55-1.79-1.02-2.64-1.65-5.35-1.48-8.19,.14-2.4,1.89-4.41,4.09-4.66,.54-.06,1.12,.32,1.68,.5-.19,.55-.37,1.1-.57,1.65-.02,.06-.12,.1-.18,.15-3.58,3.18-3.9,5.26-1.36,9.33,1.17,1.88,2.44,3.7,3.95,6-1.56,.12-2.61,.28-3.66,.28-16.55,.02-33.1,.01-49.65,.01-8.15,0-16.31,0-24.46,0-1.02,0-2.04-.1-3.17-.17,.09-1.75,1.22-2.51,2.34-3.24,2.38-1.56,3.93-3.67,4.56-6.48,.43-1.92-.06-3.66-.82-5.34-.25-.56-1.02-.91-1.61-1.28-.45-.28-.99-.42-1.69-.71Z"/>
  <path class="cls-25" d="M803.37,525.8h5.38c.11,.95,.27,1.72,.27,2.49,.01,15.65,.01,31.29,0,46.94,0,.56,.05,1.16-.15,1.65-.19,.44-.66,1.03-1.06,1.08-1.18,.14-2.4,.14-3.57-.01-.37-.05-.77-.68-.95-1.13-.16-.42-.06-.94-.06-1.42,0-15.73,0-31.45,0-47.18,0-.7,.07-1.41,.12-2.41Z"/>
  <path class="cls-23" d="M586.46,525.83h5.77c0,1,0,1.77,0,2.55,0,15.65,0,31.29-.01,46.94,0,.9,.43,2.22-.8,2.48-1.35,.28-2.81,.11-4.2-.02-.27-.02-.58-.71-.68-1.14-.13-.53-.08-1.11-.08-1.67,0-15.65,0-31.29,0-46.94,0-.63,0-1.26,0-2.2Z"/>
  <path class="cls-6" d="M407.86,466.1c-.67-.4-1.42-.85-2.36-1.4,0,1.56,.17,2.83-.05,4.04-.22,1.23-.81,2.38-1.28,3.66,1.45,1.22,2.58-1.69,4.17-.08,.42,1.89-.3,3.97-.51,6.07-.03,.34-.56,.83-.91,.88-.35,.06-.84-.28-1.15-.57-.81-.73-1.44-1.72-2.34-2.26-1.78-1.07-2.73-.57-3.28,1.46-.16,.6-.32,1.21-.48,1.79-2.43-.26-2.8-.64-2.66-2.71,.15-2.27,.12-2.3-1.95-3.2-.73-.31-1.48-.6-2.18-.97-1.19-.63-2.29-1-3.56-.08-.81,.59-1.66,.35-2.12-.23,.42-3.11,.8-5.98,1.18-8.79,.28-.1,.49-.24,.57-.19,1.87,1.14,3.58,.56,5.37-.32,2.86-1.41,5.78-2.7,8.7-3.96,1.45-.62,2.68-1.37,3.24-2.95,.15-.43,.48-.86,.84-1.14,.76-.59,2.1-.22,2.09,.65-.01,3.39,.31,6.83-.99,10.1-.02,.05-.13,.07-.36,.19Zm-11.49,2.63l-.08,.67c1,.56,1.97,1.19,3.02,1.65,.96,.42,1.77-.02,2.08-.95,.24-.71,.29-1.54,.19-2.29-.12-.94-.8-1.38-1.72-.94-1.19,.57-2.34,1.24-3.5,1.87Z"/>
  <path class="cls-6" d="M143.41,480.04c-2.32-.07-4.63-1.21-6.93,.77-1.34,1.16-2.28,.62-2.66-1.15-.02-.08-.02-.16-.04-.24-.64-3.36-.06-3.87,3.16-2.94,.98,.28,2.04,.39,3.06,.36,3.19-.07,6.39-.24,9.58-.36,.81-.03,1.61-.04,2.04-.92,.4-.81,1.07-.84,1.83-.65,.94,.23,.86,1,.98,1.7,.47,2.74-.18,5-2.5,6.77-1.52,1.16-2.86,2.55-4.26,3.86-.33,.3-.57,.69-.94,1.15,1.53,.75,2.9,.68,4.28,.15,.59-.23,1.16-.56,1.77-.7,1.1-.25,1.49,.2,1.83,1.91,.41,2.07,.14,3.11-.86,3.31-.23,.05-.47,0-.71,0-4.3,.03-8.61-.02-12.9,.13-.94,.03-1.88,.73-2.78,1.19-1.15,.59-1.74,.42-2.28-.75-.83-1.8-.49-3.46,1.02-5.02,2.05-2.12,4.11-4.25,6.15-6.39,.48-.5,.89-1.07,1.34-1.61-.07-.19-.13-.38-.2-.57Z"/>
  <path class="cls-9" d="M401.97,503.52c-.44,2.41-.79,4.34-1.18,6.46,.75,0,1.5-.02,2.24,0,1.23,.03,1.64,.41,1.44,1.61-.24,1.49-.58,2.98-1,4.43-.13,.45-.63,1.03-1.03,1.09-.4,.06-1-.36-1.31-.74-1.68-2.05-1.66-2.07-3.71-2.92-.18,.69-.36,1.36-.53,2.03-2.31,.53-2.86,.23-2.69-2,.14-1.83-.55-2.84-2.14-3.5-1.47-.61-2.89-1.3-4.45-2.01-.38,.72-.7,1.32-1.03,1.95-.25-.08-.5-.1-.69-.22-1.34-.86-1.62-2.1-1.21-3.55,.24-.84,.48-1.69,.77-2.52,.75-2.13,.81-2.16,3.04-2.22,.32,0,.66,.05,.95-.04,4.52-1.31,9.04-2.58,13.52-4,.63-.2,.99-1.17,1.57-1.67,.37-.32,.97-.7,1.35-.6,.38,.1,.87,.76,.86,1.17-.05,2.15-.17,4.31-.4,6.45-.16,1.51-.85,1.88-2.33,1.46-.65-.18-1.29-.42-2.03-.66Zm-9.25,2.14c0,.19,0,.37,0,.56,.98,.47,1.93,1,2.94,1.36,.33,.12,1.06-.1,1.18-.36,.23-.52,.28-1.2,.15-1.75-.06-.26-.76-.56-1.12-.51-1.06,.14-2.1,.45-3.15,.7Z"/>
  <path class="cls-6" d="M153.42,455.96c-5.07-1.31-8.9,1.28-12.93,3.02-.5,.22-.95,.6-1.34,.98-.68,.67-.8,1.47,.05,2.04,3.41,2.31,6.91,4.34,11.32,3.53,3.55-.65,3.62-.57,3.62,3.1,0,1.18,0,2.36,0,3.57-1.04,.41-1.9,.78-2.55-.13-.68-.96-1.7-1.06-2.66-1.43-3.49-1.35-7.02-2.62-10.38-4.25-1.67-.81-3.19-2.16-4.44-3.56-1.87-2.09-1.57-4.51,.58-6.32,2.59-2.18,5.48-3.87,8.72-4.89,2.54-.8,4.89-1.95,6.96-3.63,.31-.25,.63-.49,.99-.68,1.43-.74,2.16-.39,2.19,1.19,.05,2.43,.17,4.88-.13,7.47Z"/>
  <path class="cls-8" d="M400.79,525.16c-.1,.55-.14,1.45-.43,2.26-.9,2.56-1.85,5.1-2.88,7.6-.58,1.4-1.33,1.61-2.35,.57-3.01-3.09-7.1-3.44-10.91-4.47-.71-.19-1.56,.11-2.35,.21-1.31,.18-1.97-.31-1.64-1.53,.83-3.08,1.65-6.18,2.79-9.15,.7-1.82,2.36-2.97,4.22-3.69,1.24-.48,2.43-.16,3.41,.57,1.57,1.15,3.16,1.57,5.14,1.35,2.89-.32,4.33,.96,4.81,3.8,.12,.7,.11,1.43,.19,2.48Zm-5.69-1.33c-1.44-.04-2.33,1-2.34,2.72,0,1.64,.99,2.61,2.73,2.67,1.56,.05,2.52-.9,2.52-2.5,0-1.56-1.3-2.84-2.92-2.89Zm-9.8,.57c0,1.78,.39,2.23,1.97,2.27,1.65,.05,2.45-.77,2.46-2.49,0-1.54-1.04-2.73-2.4-2.72-1.33,0-2.03,1.02-2.03,2.93Z"/>
  <path class="cls-9" d="M388.45,482.95c-.69-2.65-.75-4.74-.12-7.2,.73,.25,1.46,.31,1.93,.69,2.52,2.08,5,4.21,7.45,6.38,1.59,1.41,4.51,1.74,6.74,.63,.5-.25,.93-.64,1.44-.85,1.53-.64,2.53-.03,2.56,1.6,.04,1.92,0,3.83-.02,5.75,0,.91-.44,1.59-1.33,1.74-.89,.15-1.96,.91-2.66-.11-.6-.87-1.16-1.42-2.28-1.35-1.6,.09-3.43-.15-4.49,1.2-1.67,2.13-4,2.76-6.35,3.51-.97,.31-1.85,.89-2.77,1.35-1.1,.55-2.04,.2-2.07-1-.04-1.58,.17-3.18,.4-4.75,.14-.96,.92-1.03,1.66-.69,.87,.4,1.73,1.08,2.66,.37,1.07-.81,2.14-1.67,2.98-2.7,.34-.41,.29-1.41,.05-1.98-.71-1.71-1.67-3.27-3.56-4.16-.62,.44-1.27,.89-2.22,1.56Z"/>
  <path class="cls-9" d="M377.02,566.75c-1.52,1.63-2.54,2.83-3.68,3.93-1.23,1.18-2.07,1.08-3.24-.18-2.07-2.22-4.17-4.4-6.22-6.64-1.1-1.21-2.23-2.28-3.99-2.38-.27-.02-.52-.31-.89-.54,.18-.48,.26-.97,.52-1.32,1.49-1.98,2.93-4.01,4.56-5.86,2.53-2.86,6.52-2.23,7.92,1.28,.62,1.56,1.44,2.16,3.14,2.3,1.26,.1,2.42,1.13,3.7,1.52,1.16,.35,2.42,.39,3.68,.57-.71,2.21-1.84,3.75-3.84,5.25-.44-.65-.88-1.28-1.29-1.94-1.13-1.84-5.04-2.01-6.18-.23-.2,.31-.2,.99,.01,1.28,.69,.98,1.49,1.86,2.8,2.09,.82,.15,1.62,.46,2.99,.86Zm-12.79-8.77c1.14,1.24,2.24,2.43,3.95,2.94,1.17-1.22,1.57-2.57,.79-3.97-.33-.58-1.23-1.16-1.89-1.18-1.36-.05-2.39,.71-2.84,2.2Z"/>
  <path class="cls-9" d="M394.76,541.06c-.8,1.65-1.56,3.39-2.47,5.06-.83,1.53-1.28,1.58-2.84,.63-.33-.2-.67-.41-1.19-.72-.92,.71-1.93,1.35-2.78,2.16-1.15,1.1-.94,2.12,.48,2.79,.28,.13,.62,.16,.91,.28,.28,.12,.54,.29,.79,.42-.24,2.99-1.21,4.41-3.33,4.78-.85-2.08-1.72-4.22-3.75-5.8-.57,.6-1.08,1.14-1.73,1.82-.58-.52-1.08-.97-1.59-1.43,.35-.9,.64-1.64,.96-2.48-1.16-2.01-2.77-3.52-5.26-4.11,.23-.61,.33-1.07,.56-1.46,.83-1.45,1.69-2.89,2.55-4.32,.66-1.11,1.12-1.26,1.97-.29,.79,.89,1.74,1.05,2.76,1.21,2.37,.36,4.73,.77,7.11,.99,1.23,.11,2.52-.06,3.75-.27,1.08-.18,2.05-.24,3.07,.75Zm-10.75,3.42c-1.45-.52-2.26-1.07-3.16-.15,.32,.88,.6,1.82,1.71,1.62,.44-.08,.77-.75,1.45-1.47Z"/>
  <path class="cls-8" d="M160.82,546.51c-.79,1.36-1.6,2.72-2.37,4.09-.73,1.3-1.43,2.61-2.14,3.92-1.67-1.02-2.72-2.6-3.48-5.22,2.69-.8,5.18-1.94,3.89-5.63-2.14-.03-3.33,1.55-4.63,3-1.69-1.31-2.47-2.95-3.13-4.63-.31-.79,.18-1.66,.96-1.57,4.44,.52,7.64-2.45,11.35-3.92,3.91-1.55,4.27-1.62,6.3,2.11,.45,.82,.78,1.77,.88,2.69,.31,2.85-1.51,4.96-4.37,5.15-1.1,.07-2.21,.01-3.25,.01Zm-.03-4.91c.83,.89,1.23,1.5,1.78,1.88,.67,.46,1.47,.64,2.23,.06,.78-.6,1-1.41,.82-2.34-.17-.85-.7-1.28-1.55-.98-.95,.33-1.86,.78-3.28,1.39Z"/>
  <path class="cls-9" d="M357.95,581.02c-.74-.27-2.37-.58-3.66-1.42-2.06-1.33-3.92-2.97-5.81-4.55-1.09-.91-1.94-2.05-3.46-2.44-1.1-.29-1.25-1.36-.31-1.97,1.19-.77,2.5-1.4,3.83-1.91,1.07-.41,1.78,.44,2.42,1.16,1.22,1.37,2.37,2.79,3.61,4.14,.53,.58,1.17,1.11,1.85,1.49,1.05,.6,2.02,.09,1.97-1.09-.04-.92-.28-1.92-.74-2.72-.94-1.65-2.02-3.24-3.16-4.77-1.18-1.59-1.21-2.06,.22-3.41,.29-.27,.61-.51,.93-.75,2.09-1.58,2.29-1.45,2.98,1.15,.41,1.53,1.16,2.96,1.68,4.46,.84,2.4,1.63,4.81,2.41,7.22,.12,.37,.14,.79,.15,1.18,.07,2.57-1.53,4.22-4.92,4.21Z"/>
  <path class="cls-9" d="M156.38,504.96c.14,.52,.38,1.12,.47,1.73,.53,3.78,.29,3.11-2.21,4.31-2.06,.99-3.95,2.34-6.36,3.8,2.24,.85,3.99,1,5.78,.85,.32-.03,.63-.12,.94-.18,2.9-.53,4.13,.43,4.28,3.37,.07,1.24-.8,1.74-2.33,1.45-2.89-.56-5.79-1.13-8.7-1.62-2.2-.37-4.44-.56-6.65-.91-1.73-.27-2.21-.78-2.43-2.12-.22-1.36,.51-2.06,1.6-2.61,2.07-1.03,4.18-2.02,6.18-3.18,2.28-1.32,4.47-2.78,6.68-4.22,.81-.52,1.55-1.16,2.75-.67Z"/>
  <path class="cls-8" d="M154.15,529.82c1.12,1.18,1.92,2.03,2.75,2.9-.57,1.6-2.02,1.84-3.23,2.23-1.05,.34-1.69-.61-1.6-1.99,.04-.6,.18-1.44-.13-1.75-.42-.41-1.3-.65-1.89-.53-.69,.14-1.57,.59-1.88,1.17-.58,1.07,.17,2.8,1.24,3.5,.33,.22,.74,.35,.99,.63,.18,.2,.28,.81,.2,.85-.88,.47-1.78,.89-2.7,1.26-.71,.29-1.28-.01-1.56-.69-1.09-2.66-2.22-5.3-3.2-8-.39-1.09,.41-2.27,1.58-2.13,4.11,.51,7.37-1.77,10.92-3.07,1.16-.42,2.19-1.2,3.53-1.96,.57,1.32,1.09,2.46,1.55,3.62,.59,1.48,1.15,2.98,1.68,4.48,.63,1.8,.38,2.3-1.43,2.71-.51,.12-1.07,.02-1.93,.02,.21-.8,.34-1.46,.55-2.09,.35-1.07,0-2.01-.83-2.52-.47-.29-1.34-.11-1.96,.09-.81,.26-1.56,.73-2.66,1.28Z"/>
  <path class="cls-11" d="M340.5,590.15c-1.65-1.42-1.96-3.35-2.72-5.09,1.11-1.26,2.27-.77,3.5-.35,2.2,.75,3.15,.32,4.19-1.76-.4-1.01-1.31-1.03-2.18-1.04-1.2,0-2.39,.09-3.59,.1-2.47,.03-3.38-.61-4.09-2.81-.69-2.15-.11-4.07,1.73-5.23,.72-.46,1.61-.64,2.41-.98,.5-.21,.98-.49,1.74-.88,.78,.91,1.56,1.83,2.59,3.03-1.13,.44-1.9,.77-2.69,1.05-.52,.18-1.14,.19-1.56,.49-.31,.22-.57,.81-.51,1.18,.06,.34,.56,.78,.92,.84,.78,.12,1.59,0,2.38,.01,1.03,.02,2.08-.02,3.09,.16,2.97,.52,4.25,2.04,4.2,4.85-.05,2.76-1.67,4.65-4.56,4.86-1.77,.13-3.44,.29-4.85,1.57Z"/>
  <path class="cls-11" d="M157.44,556.16c1.16-1.09,2.47-2.33,3.78-3.57,1.08,.5,1.38,1.13,.87,1.99-.68,1.16-.08,2,.65,2.77,1.06,1.11,2.5,.96,3.13-.44,.45-.99,.58-2.14,.79-3.23,.28-1.4,.3-2.88,.77-4.21,1.02-2.88,3.61-3.53,5.87-1.52,1.25,1.11,2.4,2.35,3.45,3.65,.31,.38,.32,1.23,.12,1.74-.28,.72-.83,1.37-1.36,1.95-.97,1.04-2.35,.73-2.79-.66-.24-.75-.18-1.58-.35-2.35-.18-.85-.72-1.62-1.62-1.37-.52,.14-1.14,.92-1.23,1.48-.17,1.08,.01,2.22,.05,3.34,.04,1.28,.2,2.56,.11,3.82-.19,2.69-1.83,3.99-4.52,3.69-2.45-.27-3.95-1.89-5.25-3.79-.69-1.01-1.47-1.96-2.46-3.28Z"/>
  <path class="cls-11" d="M246.56,593.72c-1.86-.91-3.6-1.76-5.42-2.65,2.16-2.4,4.58-4.77,7.93-5.95,3.22-1.14,5.99-.42,8.25,2.07,2.24,2.47,4.37,5.04,6.61,7.63-1.43,.86-2.95,.44-4.31-.06-2.16-.79-4.26-1.14-6.55-.57-1.34,.33-2.65-.12-3.74-1.39,1.07-.47,2.06-.78,2.89-1.32,.54-.35,1.17-1.07,1.15-1.6-.02-.45-.84-1.06-1.42-1.27-2.62-.98-4.39-.02-5.07,2.66-.19,.76-.22,1.57-.34,2.45Z"/>
  <path class="cls-11" d="M298.92,591.39c-1.97,.71-3.8,1.37-5.87,2.11-.09-.68-.18-1.35-.28-2.01-.39-2.57-3.37-4.06-5.67-2.84-1.34,.71-1.48,1.69-.2,2.54,1.01,.68,2.21,1.08,3.46,1.67-1.27,1.27-2.69,1.59-4.24,1.24-1.94-.43-3.75-.32-5.6,.49-1.38,.6-2.88,.7-4.48,.09,2.11-2.54,4.08-5.04,6.2-7.4,2.55-2.84,5.93-3.39,9.35-1.73,2.33,1.13,5.35,3.52,7.33,5.84Z"/>
  <path class="cls-11" d="M209.43,575.86c-.3,.74-.57,1.73-1.09,2.57-.74,1.21-1.58,1.1-2.3-.19-.11-.21-.12-.47-.24-.67-.69-1.26-1-1.3-2.81-.24,.78,1.17,1.61,2.31,2.33,3.51,1.22,2.01,1.03,3.27-.61,4.9-1.77,1.75-2.99,1.89-5.09,.52-.87-.56-1.67-1.23-2.53-1.8-1.58-1.05-1.62-2.18-.02-3.22,.36-.24,.88-.25,1.47-.4,.23,.57,.45,1.05,.62,1.56,.33,.99,1.05,1.17,1.89,.83,.83-.35,.86-1.1,.54-1.82-.51-1.17-1.16-2.28-1.6-3.46-.8-2.13,.01-4.02,2.04-4.95,1-.46,1.98-.46,2.95,.17,1.31,.84,2.65,1.61,4.44,2.7Z"/>
  <path class="cls-11" d="M193.74,584.56c-1.41-.94-2.41-1.57-3.36-2.25-.74-.53-.96-1.15-.45-2.05,.27-.48,.24-1.19,.17-1.78-.1-.76-.54-1.32-1.41-1.36-.9-.04-1.2,.54-1.46,1.28-.64,1.78-1.39,1.97-2.87,.81-1.4-1.1-1.28-1.87,.19-2.88,1.96-1.35,3.83-2.83,5.7-4.3,1.42-1.13,2.78-2.35,4.09-3.46,2.29,1.33,2.33,1.38,1.84,3.48-.47,2.02-1.02,4.02-1.42,6.05-.28,1.47-.35,2.98-.55,4.47-.07,.51-.23,1.01-.46,1.99Zm-1.68-9.7c-.33-.29-.59-.66-.73-.62-.31,.09-.75,.37-.77,.61-.03,.25,.37,.54,.59,.81,.26-.23,.53-.46,.92-.81Z"/>
  <path class="cls-6" d="M272.16,586.95c1.52-.28,2.76-.64,4.01-.69,1.31-.06,1.74,.61,1.26,1.85-1.17,3-3.57,4.83-6.34,6.19-.57,.28-1.49,.23-2.1-.02-2.69-1.15-5.05-2.77-6.33-5.53-.27-.58-.43-1.5-.15-1.97,.5-.83,1.4-.41,2.15-.11,1.41,.56,2.59,.3,3.69-.82,1.52-1.54,1.8-1.48,3.1,.19,.24,.31,.48,.61,.71,.9Z"/>
  <path class="cls-8" d="M154.78,502.1c-4.69-.85-9.11-.19-13.53,.04-1.06,.06-2.06,.04-2.48,1.36-.11,.34-.94,.74-1.28,.63-.49-.15-1.13-.7-1.21-1.17-.24-1.4-.34-2.85-.32-4.28,.02-1.61,1.14-2.27,2.32-1.27,1.47,1.25,3.04,1.19,4.72,.98,1.5-.19,3.01-.36,4.51-.51,1.84-.19,3.62-.39,5.03-1.85,.35-.36,1.27-.54,1.71-.34,.39,.18,.65,1.01,.67,1.56,.07,1.56,.14,3.14-.15,4.84Z"/>
  <path class="cls-11" d="M184.71,563.97c-1.5-.42-2.54-.71-3.84-1.08,.34-.47,.53-1.01,.91-1.24,1.34-.79,2.74-.76,4.08,.06,1.02,.62,2.01,1.3,3.03,1.93,2.64,1.63,2.82,2.14,1.67,5.51-.46-.33-.95-.53-1.22-.89-1.64-2.21-1.92-2.22-3.45,.12-1.47,2.26-3.3,4.31-3.69,7.15-.13,.92-.95,1.37-1.82,1.08-1.79-.61-3.55-1.35-4.74-3,1.72-1.39,3.51-2.56,4.94-4.07,1.46-1.54,2.56-3.41,4.14-5.58Z"/>
  <path class="cls-9" d="M177.81,555.09c2.8,.91,3.67,2.03,3.55,4.45-3.51,1.14-5.03,4.38-7.15,6.99-.44,.54-.36,1.51-.5,2.28-.26,1.44-1.07,1.99-2.36,1.26-1.22-.7-2.32-1.67-3.28-2.7-.68-.73-.37-1.72,.62-2.13,3.41-1.43,5.14-4.67,7.65-7.06,.74-.7,.95-1.95,1.47-3.09Z"/>
  <path class="cls-11" d="M297.72,582.97c1.5-.06,2.51,.68,2.52,1.5,.01,.76-.88,1.69-1.65,1.72-1.01,.04-2.21-.98-1.96-1.87,.17-.6,.85-1.07,1.09-1.35Z"/>
  <path class="cls-11" d="M241.19,586.17c-.77,.05-1.72-.86-1.71-1.64,0-.79,.82-1.53,1.79-1.57,.88-.03,1.58,.29,1.72,1.25,.1,.69-1.06,1.91-1.79,1.96Z"/>
  <path class="cls-5" d="M219,482.4c2.38-3.1,5.4-5.47,8.87-7.17,8.74-4.28,17.89-5.73,27.47-3.56,4.11,.93,7.7,3.06,11.24,5.26,3.96,2.46,8.05,4.57,12.67,5.52,7.17,1.49,14.85-3,17.08-10.2-.71-.23-1.45-.43-2.16-.71-1.59-.63-2.25-1.6-1.73-3.17,.65-1.97,.24-3.57-.92-5.16-.84-1.15-1.26-2.43-.27-3.75,.93-1.25,3.13-2.07,4.5-1.69,1.16,.32,1.3,1.21,1.35,2.24,.11,2.38,.14,2.38,2.01,4.09,.53-.66,1.07-1.3,1.57-1.97,.96-1.28,1.83-2.63,2.87-3.83,.78-.91,1.05-1.84,.47-2.84-1.19-2.07-2.32-4.2-3.78-6.07-1.28-1.64-3.02-2.71-5.27-2.99-1.54-.19-3.07-.86-4.48-1.57-6.06-3.06-12.08-6.21-18.1-9.34-.56-.29-1.13-.62-1.59-1.05-.64-.59-.87-1.38-.32-2.15,.52-.74,1.22-.51,1.93-.22,2.89,1.16,5.78,2.31,8.69,3.41,2.15,.82,4.32,1.57,6.5,2.33,1.81,.63,3.65,1.03,5.64,.41,.14-1.38-.78-1.94-1.66-2.43-3.83-2.14-7.66-4.27-11.54-6.31-2.26-1.19-4.61-2.21-6.91-3.31-.43-.2-.91-.34-1.28-.63-.97-.75-1.42-2.43-.97-3.48,.5-1.16,1.53-1.42,2.59-1.25,1.16,.19,2.41,.4,3.38,1,6.65,4.1,13.99,6.16,21.56,7.62,2.43,.47,4.89,.83,7.28,1.42,5.51,1.36,9.54,4.66,12.24,9.62,1.53,2.81,3.09,5.59,4.63,8.39,3.21,5.86,3.8,11.96,1.57,18.26-1.44,4.06-2.96,8.1-4.58,12.1-2.6,6.39-6.24,12.05-11.98,16.14-3.58,2.55-7.58,4.08-11.86,4.92-.74,.15-1.54,.02-2.62,.02,.21-1.2,.34-2.12,.54-3.02,.39-1.72,.72-3.4,.24-5.2-.61-2.27-1.92-3.87-4.08-4.67-2.02-.75-4.13-1.04-6.66-.45,.63,.56,.95,.99,1.38,1.2,.78,.39,1.62,.68,2.45,.95,4.31,1.39,5.56,4.22,3.03,8.04-1.57,2.36-2.1,3.99,.38,5.97,1.13,.9,.85,1.88-.25,2.83-3.09,2.69-8.89,1.63-10.88-1.97-.92-1.67-.6-2.76,1.06-3.81,.9-.57,2.2-.67,2.57-2.31-1.93-.56-4.33,.34-5.82-1.34-1.29-1.46-2.3-3.17-3.5-4.86-1.64,.8-.49,2.6-1.27,3.84-1.26,.12-2.4-.52-3.39-1.24-1.86-1.36-3.66-2.83-5.37-4.38-5.48-4.99-11.7-8.57-18.96-10.27-7.18-1.68-13.61-.25-19.25,4.56-4.44,3.79-8.92,7.53-12.77,11.95-.09,.11-.27,.14-.41,.21,0-2.25,1.2-5.64,2.83-7.97l.04,.04c-.13,.99-.26,1.99-.4,3.04,1.26-.15,1.78-.94,2.09-1.87,.31-.95-.04-1.56-1.13-1.55-.1-.11-.2-.22-.31-.32,.97-1.43,1.93-2.86,2.9-4.29,.12,.11,.25,.23,.37,.34-.28,.66-.56,1.32-.87,2.07,2.36,.32,3.6-.89,2.99-2.65-.09-.27-.83-.32-1.27-.47-.1-.12-.22-.22-.36-.3Zm94.82-29.63c-.75-.58-1.23-1-1.76-1.34-.88-.55-1.66-.35-2.22,.52-.67,1.03-.12,2.4,1.13,2.88,1.32,.5,2.66,.97,3.95,1.53,1.39,.6,1.8,.55,2.41-.82,.4-.91,.79-1.75,1.82-2.03,1.54-.43,1.6-1.44,.68-2.76-.69-.99-1.56-1.79-2.37-1.63-1.47,1.47-2.55,2.55-3.65,3.65Zm-9.37,33.37c1.94,.03,3.13-.75,3.39-1.93,.25-1.18-.23-1.91-1.9-2.54-.89-.34-1.4-.81-1.71-1.77-.5-1.58-1.3-1.81-2.68-.88-.65,.44-1.24,1.01-1.71,1.64-.84,1.12-.62,2.04,.69,2.35,1.32,.31,2.03,1.01,2.62,2.16,.27,.52,1.05,.79,1.3,.96Zm-5.51,4.15c1.03,.05,1.94-.2,2.32-1.26,.38-1.05,.16-1.97-.72-2.78-.8-.73-1.52-1.57-2.15-2.44-.91-1.26-1.45-1.43-2.71-.48-.5,.38-.97,.83-1.36,1.32-.94,1.16-.83,1.7,.47,2.4,.6,.32,1.24,.39,1.43,1.33,.32,1.52,1.06,1.92,2.72,1.92Zm13.18-20.42c.25,.45,.41,.93,.73,1.26,.52,.53,1.12,1.29,1.75,1.35,.94,.09,1.55-.78,1.69-1.71,.13-.84,.18-1.72,.08-2.56-.12-1.03-.88-1.68-1.86-1.33-1.58,.57-2.72-.05-3.95-1.21-.56,.62-1.12,1.07-1.45,1.66-.52,.93-1.46,1.97-.46,3.04,1.03,1.1,2.03,.24,2.95-.4,.06-.04,.15-.03,.51-.09Zm-64.85,5.2c.82-.18,1.45-.27,2.06-.45,.92-.27,1.62-.87,1.47-1.89-.14-.99-1-1.4-1.91-1.55-1.55-.24-2.59,.73-2.51,2.28,.02,.35,.05,.71,.07,1.07-.9,.12-1.63,.12-2.31,.31-1.23,.34-1.74,1.73-.86,2.61,.49,.49,1.4,.83,2.09,.78,.57-.04,1.23-.67,1.57-1.22,.3-.49,.22-1.22,.32-1.95Zm9.81-.02c-.06-1.3-1.8-2.45-2.95-1.86-1.48,.76-2.78,1.89-4.1,2.93-.23,.18-.25,.75-.21,1.11,.17,1.43,1.85,2.18,3.12,1.33,1.25-.83,2.43-1.78,3.61-2.71,.28-.23,.43-.63,.54-.8Zm41.54-41.36c.15,2.42,2.95,5.03,5.18,4.85,1.13-.09,1.57-.9,1.13-2.05-.84-2.16-3.89-3.51-6.31-2.8Zm19.83,26.18c.06,.01,.12,.03,.18,.04,0,.4-.04,.8,0,1.19,.11,.95,.51,1.7,1.55,1.84,1.12,.15,2.01-.45,2.16-1.45,.19-1.3,.11-2.68-.15-3.98-.1-.52-.95-1.22-1.49-1.25-.52-.03-1.28,.59-1.57,1.12-.41,.73-.47,1.65-.68,2.48Zm-.78,15.68s-.07-.01-.11-.02c0-.24,.07-.51-.01-.71-.23-.54-.42-1.35-.83-1.49-.44-.16-1.36,.14-1.63,.53-.69,1.03-1.27,2.18-1.63,3.37-.25,.8-.16,1.79,.97,2.13,1.14,.35,2.36-.14,2.74-1.25,.28-.81,.35-1.7,.51-2.55Zm.39-11.38c.04-.94,.12-1.94,.13-2.95,.03-1.79-.46-2.68-1.5-2.83-1.07-.15-1.99,.92-2.22,2.62-.05,.39-.05,.8,.01,1.18,.31,2,1.12,2.49,3.57,1.98Zm-11.3,25.74c-.13-.24-.28-.95-.71-1.23-.98-.64-2.06-.21-2.86,.41-.69,.53-1.23,1.34-1.65,2.12-.12,.22,.29,.87,.6,1.17,.71,.7,1.59,1.03,2.6,.64,1.24-.48,1.77-1.49,2.02-3.12Zm-37.63-6.86c.04,1.45,1.17,2.53,2.61,2.48,1.26-.05,1.94-.74,1.89-1.93-.06-1.4-1.46-2.91-2.67-2.89-1.07,.02-1.87,1.03-1.83,2.34Zm52.06-16.12c-.29-.49-.52-1.36-1.06-1.66-.94-.53-1.63,.26-2.09,1.03-.32,.53-.6,1.14-.69,1.74-.15,.95,.28,1.76,1.19,2.08,.98,.35,1.71-.17,2.09-1.07,.24-.57,.33-1.2,.56-2.12Zm-21.76,27.8c.03-1.09-.43-1.59-1.53-1.64-1.48-.07-2.71,1-2.71,2.35,0,.87,.69,1.49,1.74,1.54,1.4,.07,2.46-.88,2.5-2.25Zm8.51-19.48c-.07-.91-.47-1.54-1.45-1.56-1.2-.03-2.61,1.35-2.53,2.43,.07,1.01,.95,1.76,1.96,1.68,1.16-.1,2.06-1.23,2.03-2.55Zm5.78-14.25c0-1.33-.66-2.24-1.61-2.18-.91,.05-1.94,1.13-1.98,2.06-.05,1.03,.97,2.4,1.83,2.49,.94,.09,1.75-1,1.76-2.37Zm-.97,15.67c-.45-.62-.74-1.44-1.3-1.7-.88-.41-1.45,.37-1.79,1.12-.29,.64-.66,1.32-.67,1.99-.01,.52,.36,1.4,.74,1.51,.56,.17,1.51,0,1.88-.4,.54-.59,.71-1.51,1.14-2.53Zm2.4-34.15c-1.02,.11-1.82,1.37-1.69,2.41,.14,1.16,1.47,2.4,2.36,2.22,.94-.2,1.44-1.3,1.04-2.49-.2-.59-.51-1.16-.87-1.65-.2-.28-.64-.38-.83-.49Zm-5.33,15.63c.03-1.02-1.06-2.32-1.99-2.38-.96-.06-1.72,.77-1.73,1.86-.01,1.11,.99,2.38,1.91,2.42,.81,.03,1.8-1,1.82-1.91Zm-45.35,25.32c-.03-1.16-1.15-2.28-2.29-2.29-.96-.01-1.57,.63-1.58,1.67-.02,1.26,.97,2.23,2.25,2.22,1.05-.01,1.65-.59,1.62-1.59Zm44.54-31.68c0-1.52-.93-2.67-2.16-2.6-.95,.06-1.42,.64-1.41,1.56,.02,1.23,1.26,2.63,2.32,2.64,1.09,0,1.26-.74,1.25-1.61Zm-3.3,14.06c2.15-1.11,2.72-2.41,1.9-3.97-.59-1.12-1.81-1.2-2.37-.05-.64,1.31-.83,2.7,.47,4.02Zm-48.38,11.93c-.93,.06-1.52,.79-1.45,1.82,.08,1.23,1.07,2.16,2.18,2.06,.97-.09,1.71-.83,1.69-1.69-.02-1.12-1.29-2.26-2.43-2.19Zm5.78-1.33c-.93-.05-1.51,.6-1.52,1.69-.01,1.25,.79,2.16,1.96,2.22,1.03,.05,1.72-.54,1.74-1.48,.02-1.12-1.1-2.37-2.18-2.43Zm49.7-37.19c0-2.07-.88-3.29-2.44-3.55-.97-.16-1.5,.42-1.27,1.38,.35,1.48,1.74,2.33,3.71,2.16Zm-7.11,29.32c-.03-.79-.16-1.64-1.35-1.73-1.1-.08-2.03,.78-2.03,1.86,0,1.11,.89,2.07,1.89,2.04,.97-.02,1.49-.73,1.49-2.17Zm-36.31,19.67c.02-1.64-.73-2.64-1.88-3.28-.43-.24-1.37-.23-1.64,.07-.32,.34-.39,1.26-.15,1.69,.71,1.27,1.84,1.92,3.67,1.53Zm10.15-1.39c.44-.06,.91,0,1.21-.2,.46-.32,.8-.82,1.19-1.25-.4-.33-.77-.87-1.21-.94-.85-.12-1.75-.06-2.59,.12-.32,.07-.73,.66-.72,1,0,.35,.41,.81,.77,1.01,.39,.22,.92,.19,1.36,.26Zm21.97-12.37c.1-1.02-.46-1.8-1.34-1.86-.94-.06-1.88,.82-2.04,1.92-.14,1.02,.42,1.8,1.33,1.84,.98,.04,1.95-.86,2.05-1.9Zm9.36,8.69c-1.2,.05-1.95,.83-1.91,1.97,.03,.97,.55,1.44,1.51,1.43,1.06,0,1.91-.9,1.92-2,0-.92-.56-1.44-1.52-1.4Zm3.22-34.24c-.01-1.55-.89-2.68-1.79-2.62-1.03,.07-1.27,.81-1.24,1.69,.04,1.12,.8,2.04,1.73,1.85,.55-.11,1.01-.7,1.3-.93Zm-6.12-7.82c-.5,.97-.58,2,.16,2.84,.33,.37,1.19,.65,1.6,.48,.4-.17,.75-.98,.73-1.49-.06-1.22-.89-1.76-2.49-1.83Zm-67.44,33.28c.55-.03,.95-.02,1.33-.09,.74-.14,1.18-.67,.9-1.35-.15-.36-.81-.72-1.24-.71-.77,0-1.56,.24-2.3,.48-.21,.07-.44,.49-.42,.74,.01,.26,.26,.63,.49,.72,.43,.17,.92,.17,1.24,.21Zm-13.2,3.06c-1.6-.33-2.31,.64-2.94,1.65-.17,.26-.17,.84,0,1.06,.19,.23,.7,.32,1.05,.28,1.45-.2,2.01-1.08,1.88-2.98Zm6.67-3.44c-2.17,.14-2.74,.33-3.19,.91-.48,.61-.29,1.36,.46,1.43,.59,.06,1.36,0,1.79-.33,.44-.35,.55-1.1,.94-2.01Zm55.26,11.03c1.43-.02,2.54-.87,2.29-1.59-.12-.36-.78-.73-1.21-.75-.94-.04-1.71,.46-1.77,1.46-.02,.33,.55,.71,.69,.88Z"/>
  <path class="cls-21" d="M177.55,484.56c.67,.67,1.17,.97,1.36,1.4,.48,1.09,.87,2.23,1.2,3.38,3.02,10.61,9.98,17.23,20.54,20.11,5.33,1.45,10.8,2.22,16.31,2.5,4.63,.23,9.27,.28,13.9,.47,8.55,.34,17.09,.89,25.28,3.66,2.79,.94,5.44,2.27,8.16,3.42,.57,.24,1.15,.47,2.09,.85,.15-.96,.34-1.69,.35-2.43,.05-3.12,.04-6.23,.07-9.35,0-.86,.09-1.73,.14-2.69,2.18-.61,4.09-.02,5.81,.91,.55,.3,.82,1.5,.85,2.3,.1,2.87,.04,5.75,.05,8.63,0,.78,0,1.56,0,2.67,.91-.24,1.53-.3,2.04-.56,8.59-4.48,17.81-6.49,27.41-6.96,4.23-.21,8.46-.34,12.7-.46,8.16-.22,16.28-.72,24.21-2.89,10.54-2.89,17.62-9.35,20.66-19.99,.26-.92,.5-1.86,.89-2.73,.3-.66,.8-1.23,1.57-2.36,.53,1.32,.94,2.05,1.13,2.83,1.63,6.94-.51,12.81-5.38,17.72-5.25,5.29-11.69,8.56-18.91,10.29-5.64,1.35-11.42,1.26-17.16,1.45-8.87,.3-17.73,.66-26.52,1.95-6.36,.94-12.42,2.79-18.18,5.75-3.22,1.65-4.52,4.01-4.45,7.46,.06,3.2,.01,6.39,.01,9.59,0,2.72,0,5.44,0,8.15,0,1.8,.38,3.44,1.35,5.01,1.69,2.74,1.17,4.13-1.84,5.29-2.14,.82-4.29,1.24-6.54,.41-2.39-.89-2.96-2.07-1.91-4.37,1.08-2.38,1.54-4.88,1.57-7.45,.08-6.23,.06-12.47,.15-18.7,.03-2.08-.89-3.45-2.56-4.54-4.48-2.95-9.48-4.52-14.66-5.66-6.58-1.44-13.26-2-19.97-2.33-7.58-.38-15.18-.51-22.75-1.09-9.95-.76-18.48-4.8-25.36-12.1-4.57-4.85-5.97-10.61-4.5-17.08,.17-.72,.52-1.41,.92-2.45Z"/>
  <path class="cls-24" d="M244.33,365.69c-.1,.94-.2,1.88-.28,2.83-.26,2.93-.71,5.87-.73,8.8-.03,4.05,1.51,7.65,4.01,10.81,1.13,1.43,1.69,2.99,1.85,4.82,.48,5.39,1.95,10.57,4.71,15.21,3.52,5.91,5.32,12.23,5.91,19.03,.2,2.29,.09,4.45-.64,6.6-1.18,3.5-3.27,4.38-6.43,2.37-1.93-1.23-3.77-2.75-5.22-4.51-2.69-3.26-5.06-6.78-7.57-10.19-.43-.59-.88-1.17-1.32-1.76-.19,.08-.39,.15-.58,.23,.08,.9,.03,1.83,.28,2.68,.42,1.45,.98,2.87,1.56,4.27,.49,1.2,.91,2.39,.46,3.85-1.82-.18-3.24-1.14-4.49-2.34-2.89-2.75-4.5-6.16-5.01-10.1-.15-1.19-.31-2.38-.31-3.58,0-1.51-.75-2.29-2.08-2.85-1.98-.83-3.98-1.68-5.82-2.78-3.35-2-5.13-4.92-4.77-8.98,.34-3.81,.54-7.64,.89-11.46,.3-3.32-.35-6.52-1.01-9.73-.21-1-.46-1.99-.76-3.3,3.02,.03,5.36,1.06,6.89,3.39,1.08,1.65,1.81,3.55,2.57,5.38,1.17,2.83,2.52,5.53,4.64,7.77,.52,.55,1.13,1,1.81,1.6,.64-1.46-.09-2.28-.63-3.12-1.51-2.33-2.58-4.83-2.34-7.65,.13-1.57,.33-3.24,.98-4.63,2.78-5.96,7.52-9.97,13.39-12.75l.06,.07Zm-17.86,39.19c-1.32-1.43-2.62-2.84-4.16-4.5,1.34-.09,2.19-.15,3.25-.22-1.23-1.67-2.74-2.74-2.75-4.77,1,.13,1.8,.24,3.19,.43-.87-1.39-1.51-2.28-2-3.24-.52-1.02-.9-2.1-1.38-3.27,.88-.15,1.41-.23,1.93-.32-.97-4.79-2.97-8.45-5.17-9.25,.33,1.25,.63,2.39,.94,3.53,1.21,4.42,1.3,8.82-.08,13.22-.31,.99-.57,2.01-.66,3.03-.3,3.62,3.18,6.36,6.87,5.37Zm22.48,15.31c-.87,2.7,.29,4.41,2.01,5.84,.41,.34,1.21,.59,1.65,.42,.78-.3,.71-1.11,.46-1.85-.66-2.01-2.02-3.34-4.12-4.41Z"/>
  <path class="cls-21" d="M274.14,331.18c.75-.65,1.56-1.26,2.26-1.97,3.17-3.25,5.35-7.16,7.21-11.24,3.91-8.56,6.23-17.6,7.68-26.85,.88-5.59,1.36-11.24,2.02-16.86,.09-.79,.11-1.61,.35-2.36,.17-.54,.64-.99,.97-1.48,.54,.39,1.31,.67,1.56,1.19,.44,.91,.76,1.98,.78,2.98,.21,18.59-2.85,36.41-12.5,52.66-2.42,4.07-5.26,7.83-8.7,11.1-1.56,1.48-2.29,3.16-2.17,5.32,.13,2.39,.06,4.79,.04,7.19-.02,1.98-.06,2-2.11,2.43-.76,.16-1.53,.27-2.57,.45-.11-.89-.26-1.57-.27-2.24-.02-2.4-.05-4.8,.03-7.19,.05-1.55-.43-2.8-1.55-3.85-11.02-10.31-17.05-23.32-20.47-37.75-2.15-9.08-2.72-18.3-2.71-27.58,0-1.31,.46-2.65,.84-3.93,.1-.35,.75-.81,1.06-.76,.46,.08,1.08,.5,1.22,.92,.3,.89,.4,1.87,.45,2.82,.63,10.96,2.34,21.73,5.44,32.27,2.01,6.84,4.51,13.48,8.69,19.36,1.63,2.28,3.36,4.48,5.7,6.1,.31,.21,.67,.36,1.29,.7,.11-.98,.27-1.73,.28-2.48,.13-13.9,.22-27.8,.35-41.7,.14-13.74,.3-27.48,.49-41.22,.02-1.59,.23-3.18,.39-4.77,.09-.91,.34-1.84,1.41-1.94,1.09-.1,1.52,.86,1.73,1.68,.23,.91,.25,1.89,.25,2.84,.01,21.49,0,42.99,0,64.48,0,7.1,0,14.21,0,21.31,.18,.12,.37,.24,.55,.36Z"/>
  <path class="cls-21" d="M251.68,383.21c-.02-1.75,.64-3.27,1.57-4.63,2.77-4.03,4.38-8.47,5.08-13.29,.23-1.56,.95-3.04,1.32-4.59,.46-1.89,1.73-2.54,3.51-2.59,2.82-.08,5.56,.34,8.26,1.17,4.01,1.23,7.64,3.25,11.12,5.52,3.68,2.39,7.23,4.99,10.91,7.39,2.47,1.61,4.98,3.2,7.63,4.49,5.51,2.69,9.21,1.78,13.04-3.04,1.49-1.87,2.89-3.83,4.16-5.85,1.34-2.14,3.15-3.55,5.52-4.34,2.83-.94,5.74-1.39,8.72-1.24,.65,.03,1.56,.24,1.86,.69,.54,.82,.04,1.73-.68,2.31-.6,.49-1.33,.87-2.07,1.13-.97,.35-2.01,.51-3,.82-1.13,.35-2.27,.73-2.68,2.12,1.84,.68,3.66-1.03,5.56,.24-.24,1.56-1.14,2.88-1.79,4.29-.13,.29-.33,.55-.43,.85-.81,2.4-2.2,3.92-5,3.75-.83-.05-1.75,.27-2.52,.65-.47,.23-1.03,.92-1,1.36,.03,.39,.78,.91,1.3,1.03,.84,.2,1.74,.13,2.87,.18-.24,.59-.32,1.14-.63,1.51-1.36,1.67-2.72,3.35-4.21,4.9-.49,.51-1.36,.8-2.09,.88-2.53,.29-5.09,.43-7.63,.65-2.45,.22-4.79-.2-7.01-1.19-4.67-2.07-9.29-4.23-13.96-6.3-3.65-1.62-7.32-3.17-11-4.71-9.2-3.84-17.32-1.71-24.67,4.52-.49,.41-.96,.83-1.46,1.23-.1,.08-.3,.05-.58,.08Zm75.95-18.98c-1.78-.64-3.25,.05-4.67,.89-2.04,1.2-3.45,3.02-4.82,4.9-2.48,3.42-5.01,6.8-8.59,9.19-.15,.1-.16,.4-.22,.57,1.07,1.06,2.08,.61,3.08,0,2.24-1.36,3.9-3.3,5.2-5.5,2.47-4.2,5.5-7.78,10.03-10.05Zm-2.45,10.89c-2.25-.53-3.7-.03-4.4,1.51,2.04,.81,3.89,.18,4.4-1.51Zm-6.3,10.93c-1.46-1-2.77-.73-3.99-.73-1.04,0-1.19,.79-.92,1.78,1.66,.13,3.36,.79,4.9-1.05Zm3.68-13.71c1.64,0,2.81,.07,3.96-.05,.26-.03,.59-.68,.62-1.07,.02-.21-.53-.67-.81-.66-1.25,.04-2.54,.1-3.77,1.78Zm-5.61,11.4c.61,.06,1.3,.18,1.99,.16,.65-.01,1.57,.21,1.64-.83,.07-1-.81-1.01-1.49-1.06-.54-.04-1.11-.04-1.62,.11-.74,.21-.91,.78-.51,1.62Z"/>
  <path class="cls-5" d="M347.27,325.96c1.39,1.35,2.76,2.66,4.12,3.98,3.23,3.14,5.94,6.68,8.25,10.54,8.19,13.66,5.44,28.63-7.21,38.35-2.96,2.27-6.24,4.16-9.5,6.01-7.19,4.1-13.86,8.87-19.65,14.8-1.56,1.6-2.97,3.34-4.35,5.1-.85,1.09-1.82,1.51-3.12,1.1-1.28-.4-2.54-.83-4.13-1.36,.5-1.04,.81-1.91,1.29-2.67,2.93-4.55,6.71-8.32,10.95-11.64,5.3-4.15,11.12-7.48,17.03-10.69,4.73-2.57,9.13-5.59,12.52-9.87,3.1-3.93,4.75-8.46,5.48-13.36,.37-2.51-.2-4.93-1.07-7.27-1.52-4.08-3.78-7.74-6.33-11.24-1.46-2-3.03-3.92-4.48-5.93-1.46-2.02-1.41-3.56,.2-5.86Z"/>
  <path class="cls-12" d="M144.35,402.93c7.78-3.93,15.49-4.34,23.04,.71,4.39,2.93,7.86,6.81,10.69,11.2,2.37,3.69,4.71,7.45,6.51,11.44,4.26,9.43,11.21,16.2,20.04,21.24,4.73,2.7,9.68,4.91,14.86,6.59,3.78,1.23,3.78,1.27,2.77,5.54-.73-.12-1.5-.16-2.23-.37-6.84-1.95-13.55-4.24-19.84-7.65-7.96-4.32-14.05-10.49-18.31-18.44-2.45-4.57-4.85-9.18-7.1-13.86-5.58-11.59-15.66-16.61-28.12-15.91-.76,.04-1.52,.08-2.28,.11l-.03-.6Z"/>
  <path class="cls-12" d="M207.58,390.66c-.86-.44-1.57-.76-2.23-1.16-3.77-2.25-7.5-4.56-11.29-6.79-5.52-3.25-10.27-7.29-13.67-12.81-4.26-6.9-4.96-14.2-2.61-21.86,1.76-5.75,4.91-10.73,8.92-15.16,1.77-1.95,3.69-3.76,5.58-5.61,.43-.42,.98-.72,1.57-1.13,1.37,2.08,1.11,3.92-.13,5.68-1.33,1.89-2.83,3.67-4.13,5.59-1.66,2.44-3.27,4.92-4.75,7.47-3.91,6.72-3.62,13.53-.22,20.36,2.38,4.78,5.97,8.49,10.45,11.29,3.92,2.45,8,4.67,12.02,6.97,3.14,1.8,3.22,1.96,1.67,5.17-.3,.63-.71,1.2-1.17,1.98Z"/>
  <path class="cls-12" d="M393.19,402.94c-.81,.18-1.5,.41-2.2,.46-7.6,.56-13.34,4.44-18.06,10.12-4.08,4.92-6.7,10.65-9.14,16.48-1.02,2.43-2.02,4.86-3.01,7.31-1.54,3.8-3.87,7.04-7.31,9.26-3.07,1.98-6.34,3.67-9.56,5.42-.66,.36-1.48,.43-2.57,.73-.34-1.51-.71-2.78-.88-4.09-.16-1.23,.77-1.84,1.71-2.35,1.89-1.03,3.78-2.08,5.69-3.07,4.71-2.42,7.85-6.18,9.68-11.1,1.98-5.32,4.16-10.54,7.11-15.41,3.31-5.47,7.48-10.15,12.86-13.67,3.71-2.43,7.7-3.82,12.22-3.36,2.25,.23,2.8,.67,3.45,3.26Z"/>
  <path class="cls-12" d="M325.61,306.81c2.93,2.02,4.07,4.47,4.13,7.37,.09,4.09-1.45,7.65-4.11,10.71-2.95,3.39-6.66,5.64-10.82,7.27-4.01,1.57-7.99,3.23-11.86,5.11-4.41,2.14-8.28,5.11-11.85,8.48-.62,.59-1.3,1.11-2.02,1.73-.97-1.08-1.85-2-2.66-2.97-.94-1.14-.98-1.6,.17-2.64,2.13-1.93,4.31-3.82,6.59-5.57,5.32-4.06,11.16-7.12,17.7-8.75,1.01-.25,2.01-.54,2.99-.88,7.03-2.45,11.31-8.27,11.59-15.73,.05-1.23,.1-2.46,.16-4.13Z"/>
  <path class="cls-12" d="M244.55,341.39c-6.22-4.52-12.78-7.19-19.45-9.69-5.59-2.09-10-5.63-12.62-11.12-1.79-3.75-2.03-7.53,.07-11.25,.48-.85,1.22-1.55,1.84-2.32,.19,.05,.37,.1,.56,.15,.15,1.3,.36,2.59,.45,3.89,.61,8.59,5.27,14.16,13.71,16.26,5.96,1.48,11.43,4.03,16.48,7.49,1.99,1.36,2.04,1.54,.89,3.64-.52,.95-1.19,1.82-1.94,2.96Z"/>
  <path class="cls-7" d="M248.48,385.82c-3.44-4.88-4.88-9.7-2.61-15.11,.8-1.91,1.77-3.75,2.73-5.59,2.36-4.51,4.09-9.18,3.97-14.37,0-.39,.07-.79,.17-1.17,.06-.22,.24-.4,.39-.63,1.21,.15,1.8,1.04,2.16,2,.56,1.48,1.2,3,1.37,4.56,.72,6.4-.08,12.6-3.15,18.35-1.99,3.73-4.11,7.39-5.03,11.97Zm5.62-29.14c-1.1,3.69-3.21,6.84-5.28,10.02-.73,1.12-1.22,2.4-1.68,3.67-.53,1.48-.61,2.99,.23,4.42,1.79-3.44,3.58-6.8,5.29-10.2,1.23-2.44,2.1-4.99,1.44-7.91Z"/>
  <path class="cls-5" d="M273.42,412.18c-1.49,0-2.76,0-4.02,0-1,0-1.46-.56-1.5-1.48-.05-1.04-.04-2.08-.03-3.11,.1-7.5,.21-15.01,.32-22.51,0-.32,.03-.64,.05-.96,.19-3.07,.8-3.56,3.85-3.21,.97,.11,1.45,.55,1.51,1.5,.02,.32,.03,.64,.03,.96,0,9.02,0,18.05,0,27.07,0,.46-.1,.93-.2,1.74Z"/>
  <path class="cls-12" d="M273.49,467.83c-2.09,.4-4.01,.52-6.03-.3-.04-.74-.12-1.44-.12-2.14,0-6.3,.03-12.6,.05-18.9,0-.48,0-.96,.06-1.43,.03-.31,.06-.72,.25-.9,1.41-1.3,3.03-.36,4.55-.31,.96,.03,1.33,.76,1.36,1.66,.02,.4,.03,.8,.03,1.2,0,6.3,0,12.6,0,18.9,0,.7-.09,1.4-.15,2.24Z"/>
  <path class="cls-12" d="M251.82,393.35c.21-1.81,.2-3.68,.68-5.42,1.16-4.2,4.12-6.71,8.26-7.84,1.57-.43,2.7-.09,2.95,.76,.38,1.26-.63,1.85-1.37,2.54-.41,.37-.91,.65-1.35,.99-2.3,1.77-3.8,4.01-4.32,6.92-.29,1.64-.8,3.25-1.27,4.85-.18,.6-.4,1.29-.83,1.68-.47,.42-1.23,.72-1.84,.68-.27-.02-.64-.99-.69-1.55-.11-1.19-.03-2.39-.03-3.59-.06,0-.13-.01-.19-.02Z"/>
  <path class="cls-7" d="M275.67,476.55c1.15-.15,2.15-.24,3.15-.42,.86-.16,1.69-.53,2.55-.62,2.05-.21,3.6,1.51,3.18,3.45-.17,.79-.6,1.34-1.46,1.28-4.82-.34-9.55-.97-13.09-4.8-.32-.35-.74-.69-.89-1.11-.19-.56-.39-1.33-.14-1.75,.25-.42,1.09-.8,1.6-.72,3.49,.53,4.41,.79,5.1,4.69Z"/>
  <path class="cls-7" d="M331.65,467.81c-.26,.87-.37,1.59-.68,2.22-1.19,2.4-3.1,4.21-5.16,5.84-1.02,.81-1.81,.37-1.92-.91-.03-.39-.05-.82,.08-1.18,1.02-2.82,1.95-5.69,3.18-8.42,.81-1.8,2.07-1.83,3.23-.22,.58,.81,.88,1.82,1.27,2.67Z"/>
  <path class="cls-4" d="M296.38,369.72c.18-.65,.3-1.08,.45-1.59-1.04-.05-1.99-.09-3-.14v-1.28h-1.91c.26-.53,.46-.92,.75-1.51-1.68-.25-3.22-.49-4.74-.72,2.99-2.68,11.65-.01,14.83,4.59-2.18,.87-2.3,.88-6.37,.64Z"/>
  <path class="cls-4" d="M297.94,391.1c-6.23,.35-8.53-4.38-11.95-7.97,1.41-.55,2.19,.14,2.92,.78,1.37,1.2,2.8,2.09,4.57,2.8,1.64,.66,3.74,1.79,4.46,4.39Z"/>
  <path class="cls-5" d="M218.14,483.41c.15-.19,.3-.38,.45-.57,.12,.13,.23,.26,.35,.39-.14,.17-.28,.35-.42,.52-.12-.11-.25-.23-.37-.34Z"/>
  <path class="cls-24" d="M244.27,365.62c.09-.06,.17-.12,.26-.17-.07,.08-.14,.16-.2,.24,0,0-.06-.06-.06-.06Z"/>
  <path class="cls-5" d="M218.59,482.85c.14-.15,.28-.29,.42-.44,.13,.08,.25,.18,.36,.3-.14,.18-.28,.35-.42,.53-.12-.13-.23-.26-.35-.39Z"/>
  <path class="cls-5" d="M214.96,488.37c.1-.22,.19-.45,.29-.67,.11,.1,.21,.21,.31,.32-.19,.13-.37,.26-.56,.39,0,0-.04-.04-.04-.04Z"/>
  <path class="cls-13" d="M887.85,556.23h-14.47c2.42-7.66,4.79-15.16,7.16-22.66,.13,0,.26,0,.38,0,2.28,7.46,4.56,14.92,6.93,22.66Z"/>
  <path class="cls-13" d="M1148.11,532.83c2.46,8.08,4.76,15.61,7.11,23.33h-14.38c2.41-7.73,4.76-15.27,7.27-23.33Z"/>
  <path class="cls-19" d="M396.37,468.73c1.17-.63,2.31-1.3,3.5-1.87,.92-.44,1.6,0,1.72,.94,.1,.75,.04,1.58-.19,2.29-.31,.93-1.13,1.38-2.08,.95-1.05-.46-2.02-1.09-3.02-1.65l.08-.67Z"/>
  <path class="cls-19" d="M392.71,505.66c1.05-.24,2.09-.55,3.15-.7,.36-.05,1.06,.25,1.12,.51,.14,.55,.08,1.23-.15,1.75-.11,.26-.85,.47-1.18,.36-1.01-.36-1.96-.9-2.94-1.36,0-.19,0-.37,0-.56Z"/>
  <path class="cls-22" d="M395.1,523.83c1.62,.05,2.92,1.33,2.92,2.89,0,1.59-.97,2.55-2.52,2.5-1.74-.06-2.73-1.03-2.73-2.67,0-1.72,.9-2.76,2.34-2.72Z"/>
  <path class="cls-19" d="M385.3,524.4c0-1.91,.7-2.92,2.03-2.93,1.36-.01,2.4,1.17,2.4,2.72,0,1.72-.81,2.53-2.46,2.49-1.58-.04-1.98-.5-1.97-2.27Z"/>
  <path class="cls-19" d="M364.22,557.98c.46-1.49,1.48-2.25,2.84-2.2,.66,.02,1.57,.59,1.89,1.18,.78,1.39,.38,2.75-.79,3.97-1.71-.51-2.81-1.71-3.95-2.94Z"/>
  <path class="cls-19" d="M384.01,544.47c-.68,.72-1.01,1.39-1.45,1.47-1.11,.2-1.39-.74-1.71-1.62,.9-.92,1.71-.38,3.16,.15Z"/>
  <path class="cls-19" d="M160.79,541.61c1.41-.61,2.32-1.06,3.28-1.39,.85-.3,1.39,.14,1.55,.98,.18,.93-.04,1.74-.82,2.34-.75,.59-1.56,.4-2.23-.06-.55-.38-.96-.99-1.78-1.88Z"/>
  <path class="cls-19" d="M192.05,574.86c-.39,.34-.66,.57-.92,.81-.21-.27-.61-.57-.59-.81,.03-.24,.47-.52,.77-.61,.14-.04,.4,.33,.73,.62Z"/>
  <path class="cls-2" d="M313.83,452.77c1.11-1.11,2.19-2.19,3.65-3.65,.81-.15,1.69,.64,2.37,1.63,.91,1.32,.86,2.33-.68,2.76-1.03,.29-1.42,1.13-1.82,2.03-.61,1.37-1.02,1.42-2.41,.82-1.3-.56-2.63-1.03-3.95-1.53-1.25-.48-1.8-1.84-1.13-2.88,.56-.86,1.34-1.07,2.22-.52,.53,.33,1,.76,1.76,1.34Z"/>
  <path class="cls-2" d="M304.46,486.14c-.25-.17-1.03-.43-1.3-.96-.59-1.15-1.3-1.85-2.62-2.16-1.31-.31-1.53-1.23-.69-2.35,.47-.63,1.07-1.2,1.71-1.64,1.38-.93,2.18-.71,2.68,.88,.31,.96,.81,1.43,1.71,1.77,1.67,.63,2.15,1.36,1.9,2.54-.25,1.17-1.45,1.96-3.39,1.93Z"/>
  <path class="cls-2" d="M298.94,490.29c-1.66,0-2.41-.4-2.72-1.92-.2-.94-.83-1.01-1.43-1.33-1.3-.7-1.41-1.24-.47-2.4,.39-.49,.86-.94,1.36-1.32,1.26-.94,1.8-.78,2.71,.48,.63,.88,1.35,1.71,2.15,2.44,.89,.81,1.1,1.73,.72,2.78-.38,1.06-1.29,1.31-2.32,1.26Z"/>
  <path class="cls-2" d="M312.13,469.86c-.37,.06-.46,.05-.51,.09-.92,.64-1.92,1.5-2.95,.4-1-1.06-.06-2.1,.46-3.04,.33-.59,.89-1.04,1.45-1.66,1.22,1.16,2.37,1.77,3.95,1.21,.97-.35,1.74,.31,1.86,1.33,.1,.84,.05,1.72-.08,2.56-.15,.93-.75,1.79-1.69,1.71-.62-.06-1.22-.82-1.75-1.35-.32-.32-.48-.81-.73-1.26Z"/>
  <path class="cls-15" d="M247.28,475.06c-.1,.73-.01,1.46-.32,1.95-.34,.54-1,1.17-1.57,1.22-.69,.05-1.6-.29-2.09-.78-.88-.88-.38-2.27,.86-2.61,.68-.19,1.41-.2,2.31-.31-.02-.36-.05-.71-.07-1.07-.08-1.55,.96-2.53,2.51-2.28,.91,.14,1.77,.55,1.91,1.55,.15,1.02-.55,1.61-1.47,1.89-.61,.18-1.24,.28-2.06,.45Z"/>
  <path class="cls-2" d="M257.1,475.04c-.12,.18-.26,.58-.54,.8-1.18,.94-2.35,1.88-3.61,2.71-1.26,.84-2.94,.09-3.12-1.33-.04-.37-.02-.93,.21-1.11,1.32-1.04,2.62-2.17,4.1-2.93,1.15-.59,2.89,.56,2.95,1.86Z"/>
  <path class="cls-2" d="M298.63,433.69c2.42-.71,5.47,.64,6.31,2.8,.45,1.15,0,1.96-1.13,2.05-2.23,.18-5.03-2.43-5.18-4.85Z"/>
  <path class="cls-2" d="M318.46,459.87c.21-.84,.28-1.75,.68-2.48,.3-.53,1.06-1.15,1.57-1.12,.54,.03,1.39,.72,1.49,1.25,.25,1.29,.33,2.68,.15,3.98-.14,1-1.04,1.6-2.16,1.45-1.04-.14-1.45-.89-1.55-1.84-.04-.39,0-.79,0-1.19-.06-.01-.12-.03-.18-.04Z"/>
  <path class="cls-15" d="M317.68,475.55c-.16,.85-.23,1.74-.51,2.55-.38,1.11-1.59,1.6-2.74,1.25-1.13-.34-1.21-1.33-.97-2.13,.36-1.18,.94-2.34,1.63-3.37,.27-.4,1.19-.69,1.63-.53,.41,.15,.6,.95,.83,1.49,.09,.2,.01,.47,.01,.71,.04,0,.07,.01,.11,.02Z"/>
  <path class="cls-15" d="M318.07,464.17c-2.45,.51-3.26,.02-3.57-1.98-.06-.39-.07-.79-.01-1.18,.23-1.7,1.15-2.77,2.22-2.62,1.05,.15,1.53,1.04,1.5,2.83-.02,1.01-.09,2.01-.13,2.95Z"/>
  <path class="cls-2" d="M306.77,489.91c-.25,1.63-.78,2.64-2.02,3.12-1,.39-1.88,.06-2.6-.64-.31-.31-.72-.95-.6-1.17,.43-.78,.96-1.59,1.65-2.12,.8-.62,1.88-1.05,2.86-.41,.43,.28,.58,.99,.71,1.23Z"/>
  <path class="cls-2" d="M269.13,483.05c-.03-1.31,.76-2.32,1.83-2.34,1.21-.03,2.61,1.49,2.67,2.89,.05,1.19-.63,1.88-1.89,1.93-1.44,.05-2.58-1.02-2.61-2.48Z"/>
  <path class="cls-10" d="M321.2,466.93c-.23,.92-.32,1.56-.56,2.12-.38,.89-1.11,1.41-2.09,1.07-.92-.32-1.34-1.14-1.19-2.08,.09-.6,.38-1.21,.69-1.74,.46-.77,1.15-1.55,2.09-1.03,.54,.31,.77,1.18,1.06,1.66Z"/>
  <path class="cls-15" d="M299.44,494.74c-.04,1.37-1.1,2.32-2.5,2.25-1.04-.05-1.74-.67-1.74-1.54,0-1.34,1.24-2.41,2.71-2.35,1.1,.05,1.56,.55,1.53,1.64Z"/>
  <path class="cls-10" d="M307.95,475.26c.04,1.33-.86,2.46-2.02,2.55-1.02,.08-1.89-.67-1.96-1.68-.07-1.08,1.34-2.47,2.53-2.43,.98,.03,1.38,.66,1.45,1.56Z"/>
  <path class="cls-10" d="M313.73,461c0,1.37-.82,2.46-1.76,2.37-.86-.08-1.87-1.46-1.83-2.49,.04-.94,1.07-2.01,1.98-2.06,.95-.05,1.61,.85,1.61,2.18Z"/>
  <path class="cls-2" d="M312.76,476.67c-.43,1.02-.6,1.94-1.14,2.53-.37,.4-1.32,.56-1.88,.4-.38-.11-.76-.99-.74-1.51,.02-.67,.38-1.35,.67-1.99,.34-.75,.91-1.53,1.79-1.12,.56,.26,.85,1.08,1.3,1.7Z"/>
  <path class="cls-15" d="M315.16,442.52c.19,.11,.62,.21,.83,.49,.37,.5,.68,1.07,.87,1.65,.4,1.19-.09,2.29-1.04,2.49-.89,.19-2.22-1.06-2.36-2.22-.13-1.04,.67-2.31,1.69-2.41Z"/>
  <path class="cls-15" d="M309.82,458.15c-.02,.91-1.01,1.94-1.82,1.91-.92-.04-1.92-1.31-1.91-2.42,.01-1.1,.78-1.92,1.73-1.86,.93,.06,2.02,1.35,1.99,2.38Z"/>
  <path class="cls-15" d="M264.48,483.47c.03,1-.57,1.58-1.62,1.59-1.29,.01-2.27-.96-2.25-2.22,.01-1.03,.63-1.68,1.58-1.67,1.14,.02,2.26,1.14,2.29,2.29Z"/>
  <path class="cls-10" d="M309.01,451.79c0,.86-.17,1.61-1.26,1.61-1.06,0-2.3-1.41-2.32-2.64-.01-.92,.46-1.51,1.41-1.56,1.23-.07,2.16,1.07,2.16,2.6Z"/>
  <path class="cls-15" d="M305.72,465.85c-1.29-1.33-1.11-2.71-.47-4.02,.56-1.14,1.78-1.07,2.37,.05,.83,1.56,.25,2.86-1.9,3.97Z"/>
  <path class="cls-15" d="M257.33,477.78c1.14-.07,2.41,1.08,2.43,2.19,.02,.86-.72,1.59-1.69,1.69-1.11,.11-2.11-.83-2.18-2.06-.07-1.03,.52-1.77,1.45-1.82Z"/>
  <path class="cls-15" d="M263.11,476.45c1.08,.06,2.2,1.31,2.18,2.43-.02,.94-.71,1.53-1.74,1.48-1.17-.06-1.98-.97-1.96-2.22,.01-1.09,.59-1.74,1.52-1.69Z"/>
  <path class="cls-10" d="M312.81,439.26c-1.97,.17-3.36-.68-3.71-2.16-.23-.97,.3-1.54,1.27-1.38,1.56,.25,2.44,1.47,2.44,3.55Z"/>
  <path class="cls-15" d="M305.7,468.58c0,1.44-.52,2.15-1.49,2.17-1,.03-1.9-.94-1.89-2.04,0-1.08,.93-1.94,2.03-1.86,1.18,.08,1.32,.94,1.35,1.73Z"/>
  <path class="cls-15" d="M269.38,488.25c-1.83,.39-2.97-.25-3.67-1.53-.24-.43-.16-1.35,.15-1.69,.27-.3,1.21-.31,1.64-.07,1.15,.64,1.9,1.65,1.88,3.28Z"/>
  <path class="cls-15" d="M279.54,486.86c-.44-.07-.97-.04-1.36-.26-.35-.19-.76-.65-.77-1.01,0-.34,.41-.93,.72-1,.84-.17,1.74-.24,2.59-.12,.44,.06,.81,.61,1.21,.94-.39,.42-.73,.92-1.19,1.25-.29,.2-.77,.14-1.21,.2Z"/>
  <path class="cls-10" d="M301.5,474.49c-.1,1.04-1.08,1.94-2.05,1.9-.9-.03-1.47-.82-1.33-1.84,.15-1.1,1.09-1.99,2.04-1.92,.88,.06,1.44,.84,1.34,1.86Z"/>
  <path class="cls-15" d="M310.86,483.18c.96-.04,1.53,.48,1.52,1.4,0,1.11-.86,2-1.92,2-.96,0-1.47-.46-1.51-1.43-.04-1.14,.71-1.92,1.91-1.97Z"/>
  <path class="cls-10" d="M314.09,448.95c-.3,.22-.75,.82-1.3,.93-.93,.18-1.68-.73-1.73-1.85-.03-.88,.21-1.63,1.24-1.69,.9-.06,1.78,1.07,1.79,2.62Z"/>
  <path class="cls-17" d="M307.97,441.13c1.59,.07,2.42,.61,2.49,1.83,.03,.51-.33,1.32-.73,1.49-.41,.17-1.27-.1-1.6-.48-.74-.84-.66-1.87-.16-2.84Z"/>
  <path class="cls-17" d="M240.53,474.41c-.32-.05-.81-.05-1.24-.21-.23-.09-.48-.46-.49-.72-.01-.25,.21-.67,.42-.74,.75-.24,1.53-.48,2.3-.48,.43,0,1.09,.35,1.24,.71,.28,.68-.16,1.21-.9,1.35-.38,.07-.79,.06-1.33,.09Z"/>
  <path class="cls-10" d="M227.34,477.47c.13,1.91-.44,2.79-1.88,2.98-.34,.05-.86-.05-1.05-.28-.18-.22-.18-.79,0-1.06,.63-1.01,1.34-1.98,2.94-1.65Z"/>
  <path class="cls-17" d="M218.94,483.24c.14-.18,.28-.35,.42-.53,.44,.15,1.18,.2,1.27,.47,.6,1.76-.63,2.96-2.99,2.65,.31-.74,.59-1.41,.87-2.07,.14-.17,.28-.35,.43-.52Z"/>
  <path class="cls-10" d="M234.01,474.02c-.4,.91-.51,1.66-.94,2.01-.42,.34-1.19,.39-1.79,.33-.75-.07-.94-.82-.46-1.43,.45-.57,1.03-.77,3.19-.91Z"/>
  <path class="cls-10" d="M289.26,485.05c-.15-.18-.71-.55-.69-.88,.06-1,.83-1.5,1.77-1.46,.43,.02,1.09,.39,1.21,.75,.25,.73-.86,1.58-2.29,1.59Z"/>
  <path class="cls-17" d="M214.99,488.41c.19-.13,.37-.26,.56-.39,1.1,0,1.44,.6,1.13,1.55-.3,.93-.83,1.72-2.09,1.87,.14-1.05,.27-2.05,.4-3.04Z"/>
  <path class="cls-15" d="M226.47,404.88c-3.69,1-7.17-1.74-6.87-5.37,.08-1.02,.35-2.05,.66-3.03,1.38-4.41,1.29-8.81,.08-13.22-.31-1.14-.61-2.28-.94-3.53,2.2,.81,4.2,4.47,5.17,9.25-.53,.09-1.05,.17-1.93,.32,.49,1.17,.86,2.25,1.38,3.27,.49,.96,1.13,1.85,2,3.24-1.39-.19-2.19-.3-3.19-.43,0,2.04,1.52,3.1,2.75,4.77-1.07,.07-1.92,.13-3.25,.22,1.53,1.66,2.83,3.07,4.16,4.5Z"/>
  <path class="cls-10" d="M248.95,420.19c2.1,1.07,3.47,2.4,4.12,4.41,.24,.74,.32,1.55-.46,1.85-.44,.17-1.24-.08-1.65-.42-1.72-1.43-2.88-3.14-2.01-5.84Z"/>
  <path class="cls-15" d="M327.63,364.23c-4.52,2.27-7.56,5.85-10.03,10.05-1.3,2.2-2.96,4.15-5.2,5.5-1,.6-2.01,1.05-3.08,0,.06-.18,.07-.48,.22-.57,3.59-2.39,6.11-5.78,8.59-9.19,1.36-1.88,2.78-3.69,4.82-4.9,1.42-.84,2.89-1.53,4.67-.89Z"/>
  <path class="cls-17" d="M325.18,375.13c-.5,1.69-2.35,2.32-4.4,1.51,.7-1.54,2.14-2.04,4.4-1.51Z"/>
  <path class="cls-2" d="M318.88,386.06c-1.54,1.84-3.24,1.18-4.9,1.05-.28-.99-.13-1.78,.92-1.78,1.21,0,2.52-.27,3.99,.73Z"/>
  <path class="cls-17" d="M322.55,372.35c1.23-1.68,2.53-1.74,3.77-1.78,.28,0,.83,.46,.81,.66-.03,.39-.36,1.04-.62,1.07-1.15,.12-2.32,.05-3.96,.05Z"/>
  <path class="cls-10" d="M316.94,383.76c-.4-.84-.23-1.4,.51-1.62,.51-.15,1.08-.15,1.62-.11,.69,.05,1.56,.06,1.49,1.06-.07,1.04-.99,.82-1.64,.83-.69,.01-1.38-.11-1.99-.16Z"/>
  <path class="cls-10" d="M254.1,356.68c.66,2.93-.21,5.47-1.44,7.91-1.71,3.4-3.5,6.75-5.29,10.2-.85-1.43-.76-2.94-.23-4.42,.45-1.26,.95-2.55,1.68-3.67,2.07-3.18,4.18-6.34,5.28-10.02Z"/>
</svg>