<?xml version="1.0" standalone="no"?>
<!DOCTYPE svg PUBLIC "-//W3C//DTD SVG 20010904//EN"
 "http://www.w3.org/TR/2001/REC-SVG-20010904/DTD/svg10.dtd">
<svg version="1.0" xmlns="http://www.w3.org/2000/svg"
 width="1080.000000pt" height="1080.000000pt" viewBox="0 0 1080.000000 1080.000000"
 preserveAspectRatio="xMidYMid meet">

<g transform="translate(0.000000,1080.000000) scale(0.100000,-0.100000)"
fill="#000000" stroke="none">
<path d="M5355 10622 c-16 -10 -50 -30 -75 -44 -119 -67 -296 -171 -305 -178
-5 -4 -53 -33 -105 -63 -119 -67 -686 -413 -802 -488 -20 -13 -87 -55 -147
-94 -310 -197 -873 -570 -1048 -694 -51 -36 -126 -90 -168 -118 -41 -29 -109
-77 -150 -105 -42 -29 -124 -89 -183 -133 -59 -44 -148 -109 -197 -144 -87
-63 -133 -97 -335 -254 -344 -266 -517 -404 -636 -507 -50 -44 -83 -71 -159
-135 -229 -192 -486 -419 -690 -609 -261 -244 -325 -309 -325 -330 0 -41 157
-756 234 -1066 24 -96 54 -218 66 -270 12 -52 34 -140 50 -195 16 -55 36 -134
44 -175 9 -41 27 -113 40 -160 13 -47 42 -155 65 -240 87 -322 181 -645 247
-855 30 -94 54 -175 54 -181 0 -14 297 -900 340 -1014 17 -47 51 -139 75 -205
71 -198 154 -415 179 -469 13 -28 29 -69 36 -91 7 -22 40 -103 72 -180 32 -77
73 -174 90 -215 17 -41 55 -128 85 -193 29 -64 53 -121 53 -125 0 -7 31 -73
205 -442 59 -124 109 -227 111 -229 7 -7 105 -19 334 -41 443 -41 606 -55
1270 -105 672 -51 1293 -68 2177 -62 950 7 1163 17 2038 102 215 20 666 73
757 88 69 12 74 15 90 47 37 74 129 281 232 525 24 55 53 123 65 150 33 72 44
97 96 225 25 63 50 124 56 135 18 40 121 292 160 395 23 58 61 154 86 214 24
60 56 141 69 180 14 39 39 105 56 146 35 88 39 97 112 296 164 445 395 1131
501 1489 15 50 40 131 55 180 15 50 37 124 48 165 12 41 38 134 58 205 137
485 290 1139 394 1685 28 146 53 272 56 281 3 11 -70 81 -233 225 -130 115
-260 230 -288 255 -27 25 -102 90 -165 145 -63 54 -122 106 -130 114 -9 8 -92
78 -184 155 -93 77 -240 200 -327 273 -262 218 -772 623 -999 792 -69 51 -177
132 -240 180 -385 291 -1147 812 -1510 1035 -52 31 -117 72 -145 90 -119 79
-455 275 -935 545 -124 70 -207 110 -227 110 -10 0 -31 -8 -48 -18z m272 -157
c845 -458 1703 -1013 2618 -1693 658 -489 1525 -1198 2152 -1760 43 -38 130
-116 193 -172 63 -57 118 -108 121 -114 6 -11 1 -40 -72 -421 -179 -934 -473
-2002 -838 -3045 -148 -424 -184 -523 -304 -835 -190 -495 -368 -932 -557
-1370 -43 -99 -101 -234 -130 -300 -114 -264 -119 -275 -144 -280 -47 -11
-675 -85 -881 -104 -433 -41 -745 -62 -1205 -83 -355 -16 -1499 -16 -1875 0
-580 25 -851 41 -1475 87 -227 17 -1026 92 -1079 102 -36 6 -31 -4 -218 393
-482 1020 -942 2302 -1323 3690 -5 19 -16 60 -25 90 -115 405 -315 1236 -460
1910 l-35 165 67 65 c75 72 304 285 458 426 125 114 415 368 493 431 32 27
110 91 173 144 293 245 763 610 1119 867 864 625 1770 1211 2800 1809 107 62
198 113 204 113 5 0 106 -52 223 -115z"/>
<path d="M5350 10408 c-180 -102 -769 -454 -1065 -638 -761 -471 -1562 -1016
-2144 -1460 -90 -69 -176 -134 -190 -144 -14 -11 -69 -54 -121 -95 -571 -450
-1043 -858 -1491 -1291 l-99 -95 64 -290 c218 -987 385 -1639 617 -2415 136
-454 161 -533 268 -850 233 -693 458 -1275 711 -1840 51 -113 109 -243 130
-290 34 -78 178 -370 186 -379 6 -6 738 -75 1124 -105 1489 -117 2816 -127
4040 -30 384 30 1205 122 1214 136 3 5 112 248 131 293 10 22 32 74 50 115
317 731 589 1413 817 2050 96 268 293 858 357 1070 29 96 61 202 72 235 111
355 282 1015 380 1465 73 332 159 779 159 822 0 18 -62 78 -266 258 -146 129
-271 240 -277 246 -23 20 -443 380 -537 459 -432 364 -1136 917 -1500 1180
-30 21 -111 79 -180 129 -455 327 -945 653 -1370 911 -322 195 -782 458 -995
568 -30 15 -33 14 -85 -15z m-710 -757 c0 -5 -7 -14 -15 -21 -28 -23 -16 -55
73 -195 136 -216 165 -266 159 -271 -6 -7 -105 24 -336 105 -96 34 -179 60
-183 59 -14 -5 170 -292 192 -302 13 -6 29 -5 45 2 43 20 38 -6 -7 -34 -24
-14 -55 -34 -70 -45 -41 -29 -70 -20 -33 11 8 7 15 23 15 36 0 13 -47 100
-106 193 -108 174 -126 191 -175 176 -34 -11 -20 14 24 41 23 14 55 35 71 47
l30 21 100 -34 c56 -19 141 -48 190 -67 50 -18 92 -31 94 -29 5 6 -118 199
-137 214 -10 8 -28 11 -50 7 -49 -9 -36 9 39 54 69 42 80 46 80 32z m1803
-157 c-2 -10 -19 -130 -38 -267 -33 -229 -34 -250 -20 -277 9 -17 11 -30 5
-30 -14 0 -210 123 -210 132 0 4 13 5 30 2 33 -7 42 6 53 76 5 35 4 37 -66 80
-39 25 -75 47 -80 48 -10 5 -77 -46 -84 -65 -3 -8 5 -25 17 -38 39 -41 16 -38
-59 7 -71 44 -94 74 -46 62 30 -8 90 27 320 185 88 60 165 108 170 107 6 -2 9
-11 8 -22z m512 -311 c109 -75 136 -103 76 -80 -15 5 -34 8 -42 5 -8 -3 -68
-85 -134 -183 -96 -142 -117 -180 -109 -193 6 -9 35 -32 65 -50 65 -40 117
-40 179 2 22 14 42 26 45 26 17 0 -3 -34 -52 -88 l-58 -62 -115 78 c-247 166
-271 184 -266 189 3 3 18 1 35 -5 25 -9 32 -7 49 11 30 32 242 350 242 363 0
6 -9 19 -20 29 -19 17 -26 35 -14 35 3 0 57 -35 119 -77z m-1290 -106 c210
-117 416 -238 660 -387 110 -67 577 -378 710 -472 133 -94 406 -290 445 -320
14 -11 53 -40 86 -66 34 -26 106 -81 160 -122 54 -41 199 -156 323 -255 123
-99 238 -191 256 -205 55 -44 209 -173 250 -209 22 -20 62 -54 89 -76 95 -77
510 -443 609 -536 l57 -54 -25 -135 c-110 -593 -271 -1236 -461 -1840 -164
-519 -396 -1161 -589 -1630 -26 -63 -60 -146 -75 -185 -41 -103 -170 -404
-262 -612 -71 -161 -83 -182 -106 -187 -73 -15 -431 -56 -702 -81 -562 -51
-885 -65 -1515 -65 -631 0 -1021 16 -1725 70 -252 20 -314 25 -625 55 -258 25
-228 12 -282 118 -46 92 -58 118 -211 462 -338 761 -655 1687 -908 2655 -90
342 -205 819 -254 1050 -17 80 -39 183 -50 230 -11 47 -20 90 -20 96 0 6 82
87 183 181 685 639 1391 1189 2282 1777 358 236 573 372 960 603 427 255 459
273 480 273 11 0 128 -60 260 -133z m-1752 -33 c349 -228 324 -214 362 -214
15 0 25 -4 23 -9 -6 -18 -203 -140 -207 -129 -2 6 4 15 13 20 24 13 20 33 -14
61 -49 42 -62 42 -140 -5 l-71 -43 4 -42 c6 -59 22 -76 64 -68 18 3 33 2 33
-2 0 -8 -105 -78 -134 -89 -19 -7 -21 7 -4 24 17 17 12 77 -26 317 -20 121
-36 228 -36 239 0 24 11 20 133 -60z m3664 -293 c60 -44 82 -71 46 -56 -60 25
-66 20 -177 -133 -109 -151 -116 -163 -116 -199 0 -52 54 -103 109 -103 22 0
52 5 67 12 27 13 194 227 222 285 14 30 14 34 -2 52 -40 44 -7 38 61 -10 73
-53 87 -76 33 -56 -37 14 -36 16 -160 -151 -52 -70 -110 -137 -129 -149 -121
-81 -334 65 -307 210 4 19 39 79 82 138 149 207 149 207 130 227 -9 10 -16 24
-16 31 0 12 45 -16 157 -98z m-4148 43 c22 -31 38 -61 35 -65 -3 -5 -22 2 -42
16 -20 14 -45 25 -55 25 -19 0 -97 -37 -97 -46 0 -5 84 -128 191 -277 66 -92
78 -101 122 -82 10 4 17 3 17 -4 0 -6 -48 -44 -106 -86 -102 -72 -138 -89 -99
-45 10 11 16 29 13 43 -6 30 -239 367 -254 367 -5 0 -25 -15 -43 -32 -32 -32
-33 -35 -27 -93 l6 -60 -30 35 c-16 19 -36 47 -44 62 l-16 27 62 44 c134 95
323 227 325 227 1 0 20 -25 42 -56z m4726 -461 c85 -65 82 -35 25 -262 -21
-80 -36 -147 -35 -149 2 -2 190 106 262 151 24 15 45 27 49 27 12 0 174 -124
174 -133 0 -5 -8 -6 -17 -2 -61 26 -60 26 -239 -215 -97 -130 -98 -132 -73
-164 12 -15 19 -30 16 -33 -8 -8 -216 149 -216 164 -1 9 6 8 25 -2 15 -7 33
-11 40 -8 13 5 254 315 254 327 0 2 -78 -41 -172 -96 -252 -147 -256 -150
-262 -140 -2 4 22 113 54 242 32 129 57 236 56 237 -2 2 -55 -67 -120 -152
-116 -156 -132 -189 -101 -215 17 -14 20 -30 6 -30 -13 0 -140 93 -141 103 0
4 17 4 38 1 37 -6 40 -4 79 43 88 106 223 295 223 313 0 10 -7 25 -15 34 -8 8
-15 18 -15 21 0 13 32 -5 105 -62z m-5360 -114 c44 -25 127 -74 184 -108 73
-42 115 -61 139 -61 18 0 32 -4 30 -10 -5 -16 -192 -149 -201 -143 -5 3 1 16
13 28 27 28 23 36 -35 70 l-45 26 -33 -22 c-17 -12 -51 -37 -74 -56 -40 -32
-41 -34 -31 -71 15 -55 31 -69 68 -55 52 20 41 -2 -25 -50 -82 -59 -96 -61
-74 -14 12 26 8 45 -64 394 -19 89 -32 165 -29 167 5 5 29 -8 177 -95z m-570
-233 c-14 -20 -79 -285 -73 -291 2 -2 68 -17 148 -35 134 -31 231 -42 255 -30
6 3 12 1 15 -4 3 -5 -42 -47 -100 -94 -58 -47 -106 -80 -108 -73 -2 6 1 18 7
25 21 25 5 30 -226 81 -37 8 -27 -14 39 -93 60 -73 65 -76 111 -57 9 4 17 3
17 -3 0 -13 -200 -175 -207 -168 -4 3 1 14 10 24 10 10 17 27 17 38 0 10 -35
62 -78 114 -42 53 -103 128 -136 168 -59 72 -87 87 -114 60 -6 -6 -15 -8 -19
-4 -8 8 32 46 130 121 64 50 85 57 61 20 -18 -28 -19 -26 54 -123 37 -49 58
-69 62 -60 14 27 51 228 48 260 -3 34 -13 38 -52 23 -36 -15 -11 14 64 74 75
60 103 70 75 27z m6667 -228 c35 -28 65 -53 67 -54 1 -2 2 -93 2 -203 -1 -111
2 -201 6 -201 10 1 145 172 157 200 6 13 4 27 -8 46 -29 44 -11 38 58 -17 78
-62 88 -81 31 -59 -38 15 -52 2 -211 -195 -75 -93 -142 -170 -148 -170 -8 0
-12 82 -16 275 l-5 274 -51 -64 c-29 -36 -77 -96 -108 -135 -59 -73 -67 -100
-40 -140 9 -14 12 -25 7 -25 -11 0 -136 99 -141 111 -5 12 15 11 39 -2 29 -15
51 5 183 170 95 118 116 150 116 177 0 18 -4 36 -10 39 -13 8 -13 25 -1 25 6
0 38 -23 73 -52z m-7316 -302 c-9 -14 -16 -30 -16 -35 0 -11 235 -295 274
-331 23 -21 30 -22 46 -12 23 14 43 16 38 3 -6 -16 -199 -174 -205 -167 -3 3
1 14 10 24 10 10 17 26 17 35 0 16 -220 286 -273 335 -24 23 -26 23 -56 8 -17
-9 -31 -12 -31 -7 0 12 202 183 208 176 3 -2 -3 -16 -12 -29z m7913 -200 c110
-91 147 -126 133 -126 -7 0 -21 6 -32 12 -15 9 -25 10 -38 2 -22 -14 -258
-290 -277 -325 -13 -25 -13 -29 5 -52 42 -53 0 -34 -86 40 -49 41 -95 81 -103
89 -18 16 -7 31 11 17 31 -24 49 -23 75 5 88 94 263 313 263 330 0 11 -7 25
-15 32 -15 13 -20 30 -9 30 4 0 37 -25 73 -54z m-8272 -1401 c62 -26 124 -76
158 -128 46 -71 145 -396 145 -478 0 -80 -31 -158 -89 -221 -47 -52 -48 -54
-36 -88 11 -31 16 -36 57 -41 25 -4 66 -16 91 -27 50 -22 128 -96 154 -145 19
-37 111 -335 123 -396 17 -95 -18 -204 -91 -279 -41 -42 -42 -44 -30 -81 10
-36 14 -39 56 -43 94 -11 198 -85 243 -175 11 -21 44 -114 73 -208 65 -207 70
-276 27 -367 -14 -31 -44 -76 -67 -101 -38 -41 -40 -46 -31 -79 10 -33 14 -36
59 -42 133 -18 235 -118 281 -276 12 -41 37 -123 56 -182 40 -127 43 -192 12
-275 -26 -72 -102 -153 -173 -188 -60 -30 -172 -37 -242 -15 -57 17 -132 76
-170 134 -31 46 -99 239 -139 396 -28 111 3 224 87 312 39 41 40 45 30 79 -10
34 -14 37 -61 42 -90 11 -200 90 -245 177 -23 44 -116 362 -122 416 -10 89 34
201 106 268 24 23 29 35 24 55 -8 37 -22 51 -49 51 -43 0 -132 40 -178 81 -65
57 -87 100 -147 289 -47 147 -53 175 -53 255 -1 78 3 96 26 140 14 28 42 66
62 85 21 20 36 45 36 58 0 37 -18 62 -45 62 -46 0 -134 41 -185 87 -73 66 -87
96 -180 411 -62 208 33 394 229 449 52 14 148 9 198 -12z m8699 -9 c117 -54
187 -157 192 -286 3 -66 -2 -92 -42 -222 -25 -80 -55 -171 -66 -202 -40 -106
-149 -195 -259 -212 -37 -6 -45 -12 -58 -42 l-15 -35 42 -41 c23 -22 54 -63
68 -90 23 -45 27 -62 26 -141 0 -80 -6 -107 -53 -255 -29 -91 -63 -184 -77
-207 -48 -83 -172 -163 -253 -163 -23 0 -29 -6 -39 -37 -11 -36 -10 -39 26
-78 51 -54 68 -82 88 -150 23 -83 15 -138 -57 -359 -61 -189 -61 -189 -117
-246 -57 -57 -142 -100 -196 -100 -27 0 -42 -15 -51 -51 -5 -22 1 -34 39 -73
56 -59 87 -137 89 -226 0 -52 -10 -99 -52 -235 -60 -192 -88 -251 -144 -302
-66 -59 -139 -87 -227 -86 -95 0 -150 23 -224 93 -76 72 -101 131 -100 240 0
75 7 105 53 245 28 88 61 178 71 200 40 82 147 159 241 171 45 6 49 9 58 42
10 33 8 38 -35 85 -58 65 -70 89 -84 170 -14 80 -9 112 60 327 53 168 85 228
146 278 44 36 130 72 174 72 25 0 31 5 41 40 12 38 11 41 -18 67 -71 65 -121
192 -108 276 11 68 115 388 141 434 43 74 160 152 229 153 39 0 50 8 62 45 9
28 6 34 -38 83 -107 118 -113 216 -29 482 59 186 84 236 144 284 108 88 233
106 352 52z m-6078 -4441 c25 -9 11 -25 -23 -25 -22 0 -37 -6 -43 -17 -11 -21
-32 -277 -32 -392 0 -73 3 -85 24 -106 46 -46 143 -45 189 3 41 42 48 75 63
265 15 200 11 224 -36 234 -17 3 -29 10 -27 16 6 18 207 4 207 -14 0 -5 -10
-9 -22 -9 -51 0 -64 -28 -73 -160 -12 -198 -25 -282 -46 -320 -75 -133 -328
-131 -410 4 -22 37 -24 106 -9 324 6 79 8 153 5 163 -4 12 -19 22 -36 26 -16
3 -29 10 -29 15 0 9 267 2 298 -7z m3347 -273 c125 -250 163 -312 191 -312 22
0 16 -17 -8 -23 -44 -11 -263 -12 -261 -2 1 6 12 11 23 13 12 2 24 10 27 18 7
18 -36 124 -51 125 -40 2 -180 -3 -191 -8 -8 -2 -21 -27 -30 -53 -20 -61 -9
-90 35 -90 28 0 40 -13 22 -23 -4 -3 -47 -7 -96 -8 -64 -2 -91 0 -94 9 -2 7 3
12 11 12 34 0 68 71 187 385 74 196 89 230 99 219 5 -5 66 -123 136 -262z
m-2376 212 c55 -16 98 -57 112 -106 8 -31 6 -46 -9 -82 -16 -35 -28 -47 -66
-62 -25 -10 -46 -22 -46 -25 0 -4 14 -9 31 -13 17 -3 49 -23 70 -45 35 -34 39
-44 39 -87 0 -87 -52 -142 -154 -164 -66 -14 -408 -2 -403 14 2 6 15 12 30 14
14 2 31 9 37 17 16 20 35 501 20 520 -6 7 -25 17 -41 20 -16 4 -29 11 -29 17
0 14 352 -1 409 -18z m705 -28 c11 -45 218 -521 233 -538 9 -10 22 -18 30 -18
7 0 13 -7 13 -16 0 -15 -9 -16 -61 -10 -34 3 -100 6 -145 6 -46 0 -84 4 -84 9
0 5 12 11 26 13 44 5 49 26 20 91 l-25 57 -104 0 -103 0 -17 -35 c-9 -20 -17
-49 -17 -65 0 -25 5 -31 32 -38 17 -4 34 -14 36 -21 3 -10 -18 -12 -94 -9 -67
2 -99 7 -102 16 -2 6 3 12 11 12 38 0 74 65 279 508 31 68 41 82 52 73 8 -7
17 -22 20 -35z m1056 34 c0 -6 -11 -15 -24 -21 -23 -11 -71 -85 -160 -250 -44
-83 -46 -89 -46 -170 0 -106 13 -133 63 -137 24 -2 37 -8 34 -15 -4 -12 -313
-31 -330 -20 -14 9 4 23 32 23 44 0 51 16 51 113 0 85 -2 92 -37 150 -166 277
-164 274 -202 289 -47 17 -6 27 128 29 91 2 136 -1 139 -9 2 -6 -7 -12 -20
-14 -12 -2 -24 -11 -26 -20 -4 -22 137 -263 148 -252 17 18 119 211 125 237 7
25 4 29 -24 40 -42 16 -39 25 12 30 89 8 137 7 137 -3z"/>
<path d="M6225 9339 c-33 -23 -64 -44 -69 -49 -9 -9 101 -83 113 -75 5 2 12
35 16 72 4 36 9 72 12 80 8 21 -8 15 -72 -28z"/>
<path d="M5385 8622 c-11 -20 -63 -81 -117 -134 -53 -54 -104 -110 -112 -126
-8 -16 -22 -69 -31 -118 -9 -49 -19 -97 -21 -107 -12 -41 -83 -46 -104 -7 -8
15 -5 30 11 65 12 25 25 48 30 51 22 13 6 21 -27 14 -43 -10 -96 -45 -118 -79
-9 -14 -36 -57 -60 -94 -27 -44 -70 -91 -117 -131 -137 -114 -173 -238 -110
-372 18 -39 44 -73 71 -95 36 -30 93 -79 121 -106 30 -29 67 -82 72 -104 8
-31 -10 -89 -27 -89 -7 0 -18 16 -24 35 -21 57 -90 123 -143 136 -45 12 -99 6
-99 -10 0 -4 11 -21 25 -37 40 -46 43 -73 11 -101 -36 -30 -82 -30 -128 2 -62
42 -73 138 -27 244 23 52 22 51 6 51 -42 0 -119 -35 -161 -72 -63 -55 -97
-110 -112 -183 -19 -86 -17 -136 8 -202 18 -49 39 -76 136 -172 125 -124 135
-153 36 -100 -50 26 -67 30 -111 27 -28 -3 -59 -10 -67 -17 -13 -11 -10 -19
23 -63 44 -57 65 -117 56 -157 -3 -16 -21 -45 -39 -65 -29 -31 -40 -36 -79
-36 -40 0 -52 5 -86 38 -55 52 -61 93 -26 169 45 97 75 194 75 245 0 67 -43
168 -97 228 -51 57 -126 90 -203 90 -57 0 -64 -13 -25 -50 57 -54 52 -111 -15
-175 l-31 -30 -162 0 c-154 0 -164 -1 -207 -25 -68 -39 -104 -96 -108 -178 -3
-57 1 -79 28 -147 41 -103 49 -164 24 -186 -60 -51 -132 -48 -185 7 -34 35
-34 35 -34 130 0 82 -2 94 -17 94 -50 0 -155 -140 -183 -244 -48 -175 44 -327
264 -441 80 -41 279 -89 580 -140 294 -50 424 -151 452 -351 15 -109 4 -147
-68 -224 -45 -49 -61 -60 -82 -58 -36 4 -38 32 -6 78 48 69 68 189 44 273 -14
53 -74 116 -137 144 -88 39 -212 29 -212 -17 0 -5 13 -16 29 -24 15 -8 36 -26
45 -40 9 -15 23 -26 31 -26 13 0 45 -36 45 -50 0 -4 -9 -16 -20 -28 -39 -41
-83 -30 -192 47 -118 83 -246 151 -354 186 -97 32 -245 44 -325 25 -115 -26
-287 -140 -338 -224 -12 -18 -21 -37 -21 -41 0 -11 68 1 160 30 116 35 218 43
295 20 88 -25 154 -61 208 -114 89 -84 104 -138 117 -411 12 -236 28 -292 118
-407 54 -67 82 -83 252 -138 163 -53 242 -90 295 -136 40 -35 75 -96 75 -129
0 -19 -8 -15 -64 29 -80 64 -142 92 -217 98 -77 7 -88 -12 -36 -65 39 -41 67
-91 67 -119 0 -10 -7 -29 -16 -41 -12 -18 -24 -22 -52 -20 -36 3 -37 4 -62 79
-14 41 -34 89 -45 106 -28 43 -101 102 -160 129 -47 21 -147 35 -161 22 -3 -3
9 -39 26 -79 28 -62 31 -80 26 -123 -25 -204 -26 -248 -6 -333 24 -102 67
-190 113 -230 94 -82 251 -141 477 -179 270 -45 432 -98 491 -160 31 -33 50
-30 134 16 170 94 325 89 459 -16 72 -57 96 -107 103 -214 7 -90 -13 -163 -52
-200 -27 -26 -32 -52 -12 -68 6 -6 41 -20 77 -32 91 -30 248 -26 335 10 67 28
78 47 44 81 -59 59 -76 204 -38 316 23 69 67 111 168 161 49 24 67 27 146 26
97 0 155 -18 248 -75 26 -16 54 -29 62 -29 8 0 34 15 58 33 84 64 222 107 478
151 322 55 493 142 555 282 13 30 31 86 40 126 17 72 16 92 -2 321 -6 73 -5
84 21 137 37 78 32 88 -42 80 -72 -9 -125 -34 -193 -91 -57 -48 -74 -75 -97
-153 -21 -73 -38 -96 -72 -96 -35 0 -61 28 -61 65 0 35 41 107 77 133 18 13
24 24 19 37 -5 15 -15 17 -69 13 -73 -6 -141 -38 -221 -103 -30 -24 -57 -41
-59 -37 -10 18 17 74 57 118 55 61 148 108 321 163 151 47 188 68 244 136 82
98 110 186 111 336 0 98 22 291 40 360 24 89 139 187 271 229 94 31 205 24
337 -19 163 -54 177 -36 63 79 -51 52 -88 77 -164 115 -95 46 -103 49 -201 53
-81 4 -119 0 -184 -16 -141 -36 -290 -111 -432 -216 -76 -57 -104 -65 -153
-47 -13 5 -27 17 -30 25 -8 21 9 66 26 66 18 0 107 86 107 104 0 34 -121 40
-193 8 -137 -61 -184 -153 -153 -303 9 -41 25 -85 36 -99 36 -45 44 -68 30
-85 -20 -25 -38 -18 -95 36 -72 68 -90 116 -81 211 19 211 155 323 450 373
221 38 437 86 514 114 241 88 378 262 342 434 -24 115 -131 277 -184 277 -22
0 -23 -3 -19 -77 5 -92 -12 -134 -67 -171 -39 -26 -74 -25 -134 3 -33 16 -36
21 -36 61 0 27 14 80 35 134 37 95 43 152 23 211 -17 51 -56 98 -102 122 -37
20 -56 22 -202 22 l-160 0 -36 30 c-68 56 -73 108 -17 178 39 48 31 61 -34 52
-139 -20 -218 -83 -268 -216 -37 -96 -26 -184 42 -323 21 -45 39 -89 39 -99 0
-29 -26 -72 -65 -106 -61 -54 -141 -36 -180 39 -29 55 -11 129 47 194 32 38
36 45 23 56 -38 32 -147 21 -207 -21 -30 -22 -48 -24 -48 -7 0 6 44 55 99 108
151 148 185 222 162 356 -20 110 -79 199 -165 249 -35 19 -126 44 -126 33 0
-1 8 -25 19 -53 43 -115 36 -181 -25 -235 -39 -34 -86 -40 -122 -14 -44 30
-45 48 -6 100 43 56 35 68 -39 60 -68 -7 -107 -33 -144 -96 -54 -91 -50 -88
-68 -66 -25 33 -19 88 15 127 57 64 138 141 175 165 39 25 95 147 95 205 0 99
-50 185 -157 269 -45 36 -76 73 -114 135 -60 98 -102 139 -156 154 -20 6 -38
9 -40 7 -2 -2 8 -23 22 -47 13 -24 25 -54 25 -66 0 -28 -42 -57 -70 -48 -27 9
-35 26 -55 125 -24 125 -42 156 -139 251 -48 46 -100 105 -115 131 l-27 47
-19 -37z m23 -130 c17 -17 19 -47 25 -358 4 -186 8 -505 8 -709 1 -381 7 -500
24 -500 17 0 134 167 171 244 41 85 129 348 144 432 6 31 17 125 24 209 8 84
19 157 25 163 19 19 45 -6 53 -49 10 -57 9 -246 -1 -339 -14 -116 -102 -390
-163 -505 -69 -128 -91 -159 -197 -271 l-90 -96 -3 -69 -3 -69 -40 0 c-33 0
-40 4 -42 20 -1 11 -5 50 -8 88 -6 66 -8 69 -63 126 -69 69 -139 190 -216 371
-114 265 -136 363 -136 601 0 132 8 157 44 143 19 -7 20 -13 36 -154 6 -58 25
-154 41 -215 16 -60 38 -146 50 -190 11 -44 43 -125 70 -180 52 -106 156 -261
167 -250 4 4 9 354 12 778 3 425 9 778 13 785 12 17 34 15 55 -6z m1115 -1160
c25 -28 47 -88 47 -129 0 -59 -40 -133 -101 -187 -60 -52 -142 -95 -294 -151
-111 -41 -167 -70 -301 -156 -50 -33 -95 -59 -100 -59 -14 0 -64 49 -64 63 0
28 150 133 264 186 27 13 102 42 165 65 151 56 194 78 254 134 59 56 86 110
87 174 0 76 13 94 43 60z m-2187 -29 c30 -96 59 -156 92 -184 67 -59 151 -106
290 -164 250 -105 242 -100 242 -132 0 -34 -16 -53 -45 -53 -29 0 -271 98
-393 159 -113 57 -174 107 -221 180 -37 56 -39 100 -11 165 20 48 37 58 46 29z
m2677 -365 c97 -100 158 -184 209 -286 41 -83 43 -91 43 -177 0 -109 -14 -141
-99 -232 -81 -88 -213 -184 -386 -282 -80 -46 -174 -104 -210 -129 -80 -56
-187 -157 -206 -194 -16 -31 -45 -36 -89 -16 -22 10 -25 16 -19 42 21 102 182
235 478 395 198 107 271 156 326 218 71 80 84 115 85 218 0 83 -3 95 -33 153
-43 83 -91 157 -140 216 -52 63 -77 109 -69 130 12 30 40 16 110 -56z m-3099
36 c40 -15 12 -96 -79 -233 -91 -137 -110 -193 -102 -302 11 -167 100 -265
357 -394 69 -34 135 -71 148 -81 l23 -19 -33 -37 -33 -37 -141 68 c-162 78
-215 112 -298 190 -111 106 -146 180 -146 311 0 164 53 274 240 498 37 44 39
45 64 36z m1208 -449 c45 -116 36 -190 -42 -325 -23 -41 -55 -106 -70 -145
-34 -86 -53 -91 -89 -25 -20 35 -25 58 -24 110 0 74 11 103 89 241 43 76 55
107 60 158 6 55 9 62 28 59 15 -2 28 -21 48 -73z m329 -96 c93 -30 248 -104
374 -178 182 -107 216 -123 277 -123 70 -1 113 24 234 134 115 105 165 131
262 136 90 5 111 -8 69 -42 -15 -12 -46 -27 -70 -34 -23 -6 -49 -16 -57 -22
-13 -9 -13 -11 0 -20 8 -5 25 -10 38 -10 33 0 37 -24 14 -73 -25 -53 -35 -62
-97 -82 -28 -9 -57 -19 -65 -21 -10 -4 -3 -10 20 -17 27 -9 36 -18 38 -39 3
-22 -6 -34 -48 -67 -59 -47 -94 -54 -260 -55 -125 -1 -111 -5 -310 87 -238
109 -406 149 -549 128 -98 -15 -147 -35 -220 -90 -61 -46 -71 -49 -71 -23 0
21 70 169 99 209 19 26 41 100 55 186 l7 37 98 0 c72 0 115 -6 162 -21z m436
-70 c117 -29 166 -59 147 -91 -10 -16 -172 -3 -194 17 -9 8 -24 15 -33 15 -9
0 -17 5 -17 10 0 6 5 10 10 10 6 0 10 5 10 10 0 6 -9 10 -20 10 -20 0 -26 11
-13 23 10 10 57 8 110 -4z m-1025 -99 c-2 -14 -4 -56 -5 -95 -2 -81 13 -117
92 -214 42 -53 51 -72 60 -129 17 -98 37 -154 102 -282 93 -183 125 -357 80
-440 -26 -50 -58 -58 -129 -35 -47 15 -70 32 -133 96 -42 43 -87 94 -100 113
-13 20 -28 36 -32 36 -11 0 1 -53 19 -88 19 -36 18 -60 -3 -64 -22 -5 -82 23
-105 48 -26 30 -66 128 -85 210 l-17 74 -65 21 c-73 22 -124 57 -145 98 -22
42 -28 134 -17 260 9 113 8 122 -25 238 -8 30 16 39 65 24 54 -16 85 -51 137
-157 40 -82 88 -143 101 -130 3 2 -7 21 -21 43 -39 60 -52 121 -36 177 10 35
29 62 80 113 103 101 189 140 182 83z m399 -189 l23 -18 -60 -59 c-52 -52 -62
-68 -82 -135 -27 -90 -45 -119 -76 -119 -21 0 -24 6 -28 48 -2 26 -2 75 2 109
5 56 10 67 45 104 38 38 116 87 141 89 7 0 22 -8 35 -19z m518 -61 c21 -10 41
-26 44 -35 4 -8 17 -15 30 -15 13 0 27 -4 33 -9 5 -5 23 -11 39 -13 22 -2 31
-9 33 -25 3 -20 -1 -23 -28 -23 -59 0 -200 92 -200 131 0 13 6 12 49 -11z
m-338 -265 c4 -137 4 -253 2 -257 -2 -5 -26 -8 -54 -8 l-49 0 0 261 0 260 48
-3 47 -3 6 -250z m2380 -21 c9 -11 5 -16 -17 -24 -80 -29 -195 -85 -244 -119
-92 -63 -150 -146 -259 -366 -99 -201 -99 -201 -191 -289 -94 -91 -165 -133
-239 -143 -33 -5 -41 -1 -60 23 -34 43 -24 62 49 93 80 34 165 88 207 133 17
18 78 125 134 238 l102 205 101 100 c120 120 183 156 291 164 82 7 110 4 126
-15z m-4572 -14 c70 -10 150 -45 196 -87 63 -57 145 -172 208 -290 114 -213
181 -303 281 -376 166 -122 210 -145 356 -183 150 -39 190 -54 191 -72 2 -29
-3 -47 -14 -55 -19 -13 -138 1 -213 24 -154 48 -421 204 -507 298 -20 22 -54
69 -74 103 -135 235 -244 399 -297 452 -69 69 -174 115 -298 131 -33 4 -51 12
-58 26 -12 22 -6 26 50 32 67 7 115 7 179 -3z m2327 -410 c152 -52 294 -90
414 -110 140 -23 199 -42 268 -87 67 -45 111 -96 162 -192 23 -42 55 -98 71
-126 24 -42 29 -61 29 -119 0 -74 -19 -162 -52 -235 -113 -252 -158 -311 -314
-407 -54 -34 -113 -68 -129 -77 -36 -18 -141 -25 -155 -11 -7 7 -3 33 11 79
27 88 19 108 -52 129 -97 29 -138 15 -49 -17 77 -28 87 -69 34 -149 -30 -47
-30 -51 1 -82 22 -22 23 -28 14 -50 -7 -13 -25 -30 -41 -37 -24 -10 -37 -8
-86 10 -100 39 -135 97 -72 120 39 13 39 31 0 31 -16 0 -47 7 -69 16 -32 13
-40 22 -45 50 -8 41 -23 45 -28 7 -3 -25 -7 -28 -40 -27 -30 1 -71 24 -210
117 -189 126 -255 155 -373 164 -151 12 -343 -86 -515 -261 -30 -31 -60 -56
-67 -56 -20 0 -16 65 7 109 32 64 70 103 94 97 26 -7 66 3 66 16 0 5 -13 7
-30 3 -43 -9 -39 14 10 59 46 41 47 42 70 21 13 -12 23 -13 43 -6 35 14 44 31
18 38 -34 9 -24 30 22 46 36 12 48 12 68 2 34 -18 61 -3 53 30 -4 17 -2 25 7
25 8 0 30 3 50 6 31 5 37 3 42 -15 3 -14 13 -21 30 -21 22 0 25 4 24 28 -2 27
-1 27 66 30 114 5 236 -22 402 -90 230 -93 244 -97 320 -98 114 0 163 21 263
114 43 40 41 59 -10 82 -38 17 -44 24 -49 59 -3 22 -13 54 -22 72 -23 44 -21
58 9 82 36 28 109 29 124 2 5 -11 10 -31 10 -45 0 -40 14 -38 57 7 61 63 66
77 42 124 -41 83 -76 111 -172 138 -49 14 -119 39 -155 57 -37 17 -102 46
-145 64 -44 19 -90 43 -104 54 -14 11 -34 20 -44 20 -11 0 -19 7 -19 15 0 20
31 19 115 -5 150 -44 295 -64 295 -41 0 4 -30 22 -67 39 -38 17 -84 40 -103
51 -19 11 -79 41 -133 66 -100 48 -128 74 -106 101 17 21 45 18 145 -16z
m-113 -525 c4 -104 5 -196 2 -202 -3 -9 -26 -13 -65 -13 l-60 0 0 198 c0 109
3 202 7 206 4 4 30 6 58 4 l50 -3 8 -190z m1160 -194 c40 -15 45 -63 12 -110
-51 -74 -104 -104 -139 -78 -16 12 -16 17 9 82 43 115 58 129 118 106z m-1128
-158 c55 -64 52 -63 121 -63 73 0 104 -12 104 -39 0 -37 -23 -43 -116 -32 -67
8 -97 17 -137 42 -81 50 -98 86 -47 100 42 12 59 10 75 -8z m-1900 -280 c11
-17 35 -57 54 -88 49 -80 152 -172 257 -227 158 -83 261 -100 712 -118 140 -6
288 -15 330 -21 88 -12 240 -51 313 -80 27 -10 54 -19 59 -19 6 0 10 64 10
160 0 182 -2 178 84 172 42 -4 44 -5 50 -40 3 -21 6 -94 6 -164 0 -71 4 -128
9 -128 5 0 56 15 113 34 190 64 244 70 768 96 255 12 326 22 422 55 176 62
318 175 402 323 34 58 53 82 67 82 17 0 19 -8 19 -63 0 -75 -29 -140 -109
-249 -53 -71 -110 -110 -260 -175 -99 -42 -385 -83 -585 -83 -349 0 -630 -47
-753 -126 -74 -47 -83 -70 -82 -211 0 -135 13 -331 22 -353 14 -32 -9 -43 -95
-48 -74 -4 -85 -2 -102 16 -16 19 -17 27 -6 89 6 38 15 145 19 238 7 146 6
175 -8 205 -52 114 -378 190 -814 190 -156 0 -467 37 -546 65 -23 8 -86 37
-141 66 -81 41 -109 62 -145 105 -68 84 -114 167 -126 227 -21 101 11 140 56
70z"/>
<path d="M5047 6403 c-20 -43 -53 -109 -72 -146 -20 -38 -34 -74 -32 -80 3 -7
8 -3 12 8 5 11 30 57 57 102 49 81 83 163 76 183 -2 6 -20 -24 -41 -67z"/>
<path d="M6449 6330 c-20 -10 -62 -51 -94 -90 -32 -39 -76 -87 -98 -106 -22
-18 -38 -36 -35 -40 9 -8 70 50 132 125 32 38 69 74 84 80 36 13 82 51 62 50
-8 0 -31 -8 -51 -19z"/>
<path d="M6470 6230 c0 -13 11 -13 30 0 12 8 11 10 -7 10 -13 0 -23 -4 -23
-10z"/>
<path d="M6448 6173 c-10 -2 -18 -9 -18 -14 0 -15 43 -7 48 9 4 12 0 13 -30 5z"/>
<path d="M6355 6040 c-3 -5 3 -10 15 -10 12 0 18 5 15 10 -3 6 -10 10 -15 10
-5 0 -12 -4 -15 -10z"/>
<path d="M6310 5980 c0 -5 7 -10 15 -10 8 0 15 5 15 10 0 6 -7 10 -15 10 -8 0
-15 -4 -15 -10z"/>
<path d="M4430 6014 c0 -4 5 -24 12 -45 8 -27 17 -39 30 -39 23 0 23 3 -7 50
-24 38 -35 48 -35 34z"/>
<path d="M4446 5848 c-21 -112 -23 -144 -9 -171 14 -27 39 -45 49 -34 3 2 -1
11 -8 18 -30 32 -38 47 -32 63 3 9 13 16 20 16 12 0 12 4 -2 25 -20 31 -11 59
16 52 24 -6 25 1 4 31 -19 28 -32 28 -38 0z"/>
<path d="M5000 5304 c0 -12 42 -64 51 -64 16 0 10 36 -9 53 -18 17 -42 23 -42
11z"/>
<path d="M5990 5091 c0 -12 42 -39 73 -46 39 -10 42 12 5 35 -34 20 -78 27
-78 11z"/>
<path d="M6200 5046 c0 -7 10 -16 22 -19 29 -8 33 -3 13 17 -20 20 -35 21 -35
2z"/>
<path d="M6160 4961 c0 -5 6 -14 14 -20 16 -13 32 2 21 19 -8 12 -35 13 -35 1z"/>
<path d="M6290 4926 c0 -2 7 -9 15 -16 12 -10 15 -10 15 4 0 9 -7 16 -15 16
-8 0 -15 -2 -15 -4z"/>
<path d="M6240 4860 c0 -11 2 -20 4 -20 2 0 11 -3 20 -6 24 -9 20 23 -4 36
-17 9 -20 8 -20 -10z"/>
<path d="M6355 4820 c-8 -13 12 -40 31 -40 20 0 17 14 -5 34 -13 12 -21 14
-26 6z"/>
<path d="M6130 4801 c0 -5 6 -14 14 -20 16 -13 32 2 21 19 -8 12 -35 13 -35 1z"/>
<path d="M6220 4771 c0 -12 6 -21 16 -21 9 0 14 7 12 17 -5 25 -28 28 -28 4z"/>
<path d="M6295 4760 c-8 -13 13 -40 31 -40 20 0 27 19 14 35 -14 17 -36 19
-45 5z"/>
<path d="M6145 4690 c-8 -14 3 -30 21 -30 8 0 14 9 14 20 0 21 -24 28 -35 10z"/>
<path d="M6404 4686 c-10 -27 5 -68 24 -64 25 5 26 41 3 62 -19 17 -21 17 -27
2z"/>
<path d="M6317 4663 c-9 -8 -9 -46 -1 -67 10 -26 43 -19 50 9 9 35 -29 79 -49
58z"/>
<path d="M6242 4628 c2 -12 10 -23 18 -23 22 0 19 39 -3 43 -15 3 -18 -1 -15
-20z"/>
<path d="M6127 4595 c-8 -18 11 -31 25 -17 11 11 3 32 -12 32 -4 0 -10 -7 -13
-15z"/>
<path d="M6373 4514 c-3 -8 0 -21 6 -27 10 -9 16 -8 26 7 8 10 12 23 9 27 -9
15 -34 10 -41 -7z"/>
<path d="M6202 4508 c-14 -14 -16 -48 -3 -48 11 0 41 39 41 52 0 12 -25 9 -38
-4z"/>
<path d="M6077 4495 c-8 -19 13 -31 24 -14 13 20 11 29 -5 29 -8 0 -16 -7 -19
-15z"/>
<path d="M6278 4485 c-8 -18 -8 -29 -1 -36 17 -17 33 -1 33 32 0 36 -16 38
-32 4z"/>
<path d="M4966 4411 c-8 -12 21 -34 34 -26 17 11 11 35 -9 35 -11 0 -22 -4
-25 -9z"/>
<path d="M6004 4396 c-8 -22 3 -33 18 -18 9 9 9 15 0 24 -9 9 -13 7 -18 -6z"/>
<path d="M6120 4380 c-9 -16 -8 -22 5 -27 20 -7 50 20 41 36 -11 17 -34 13
-46 -9z"/>
<path d="M6312 4380 c-16 -27 -15 -60 3 -60 17 0 35 30 35 59 0 27 -21 27 -38
1z"/>
<path d="M5090 4380 c0 -13 34 -30 59 -30 29 0 26 19 -5 30 -32 13 -54 13 -54
0z"/>
<path d="M6212 4358 c-16 -16 -15 -48 1 -48 19 0 37 21 37 42 0 21 -20 24 -38
6z"/>
<path d="M4905 4350 c3 -5 15 -10 26 -10 10 0 19 5 19 10 0 6 -12 10 -26 10
-14 0 -23 -4 -19 -10z"/>
<path d="M5042 4339 c5 -17 48 -25 48 -10 0 6 -4 11 -9 11 -5 0 -17 3 -27 7
-12 4 -15 2 -12 -8z"/>
<path d="M5254 4321 c8 -12 66 -32 66 -22 0 4 -5 12 -12 19 -14 14 -62 17 -54
3z"/>
<path d="M5918 4306 c-24 -18 -22 -28 4 -24 13 2 24 11 26 21 4 20 -6 21 -30
3z"/>
<path d="M5150 4301 c0 -11 39 -25 47 -18 3 3 2 10 -2 16 -8 13 -45 15 -45 2z"/>
<path d="M6045 4298 c-26 -15 -36 -31 -26 -41 13 -13 48 1 55 20 9 23 -6 34
-29 21z"/>
<path d="M5420 4242 c0 -20 37 -42 58 -35 18 7 14 31 -7 43 -30 15 -51 12 -51
-8z"/>
<path d="M5250 4242 c0 -5 6 -15 14 -21 16 -13 49 -4 43 13 -4 14 -57 21 -57
8z"/>
<path d="M6090 4235 c-26 -31 24 -49 54 -19 9 8 14 20 11 25 -9 14 -51 11 -65
-6z"/>
<path d="M5790 4220 c0 -5 9 -10 19 -10 11 0 23 5 26 10 4 6 -5 10 -19 10 -14
0 -26 -4 -26 -10z"/>
<path d="M6213 4220 c-26 -11 -30 -28 -9 -36 19 -7 56 13 56 31 0 17 -14 18
-47 5z"/>
<path d="M5915 4207 c-19 -14 -13 -37 9 -37 13 0 46 31 46 43 0 12 -35 8 -55
-6z"/>
<path d="M5580 4190 c0 -18 40 -32 56 -20 7 7 11 16 8 21 -7 12 -64 11 -64 -1z"/>
<path d="M5345 4181 c-8 -14 33 -34 53 -26 15 6 15 8 -2 21 -23 16 -42 18 -51
5z"/>
<path d="M5977 4163 c-13 -12 -7 -41 9 -47 19 -7 54 20 54 41 0 13 -51 19 -63
6z"/>
<path d="M6084 4109 c-19 -21 -19 -21 11 -17 19 2 31 10 33 21 5 24 -21 22
-44 -4z"/>
<path d="M5947 4041 c-21 -36 -21 -41 1 -41 31 0 45 16 38 44 -8 34 -18 33
-39 -3z"/>
<path d="M3842 8918 c4 -8 9 -41 13 -74 11 -86 13 -88 70 -52 28 16 54 34 58
38 5 4 -18 27 -52 49 -74 50 -97 61 -89 39z"/>
<path d="M2690 8121 c0 -6 7 -45 17 -86 12 -55 20 -74 30 -71 17 7 102 70 103
76 0 3 -12 12 -28 21 -15 8 -48 28 -74 43 -27 15 -48 23 -48 17z"/>
<path d="M1030 5747 c-19 -6 -56 -32 -81 -57 -56 -56 -77 -124 -58 -194 31
-122 104 -336 124 -366 22 -35 108 -90 120 -78 4 3 -3 37 -14 74 -17 58 -18
71 -7 98 20 47 52 71 96 71 55 0 86 -33 111 -117 12 -37 24 -68 28 -68 4 0 18
21 30 46 19 37 22 57 19 107 -6 84 -100 376 -134 417 -53 62 -158 93 -234 67z"/>
<path d="M1450 4773 c0 -5 7 -30 15 -57 23 -74 19 -111 -13 -147 -21 -23 -37
-31 -65 -32 -56 -1 -88 28 -116 106 -13 37 -27 67 -31 67 -17 0 -50 -88 -50
-134 0 -61 91 -355 128 -415 24 -39 108 -99 120 -86 3 3 -3 34 -13 70 -30 112
1 175 87 175 54 0 91 -38 113 -118 10 -34 21 -62 26 -62 12 0 45 69 52 110 7
39 -4 91 -58 265 -54 174 -76 210 -152 249 -36 18 -43 19 -43 9z"/>
<path d="M1750 3804 c0 -3 9 -36 21 -74 18 -62 19 -71 5 -103 -28 -68 -116
-86 -165 -33 -12 13 -30 50 -40 82 -9 33 -21 59 -27 59 -5 0 -19 -20 -32 -45
-33 -64 -26 -121 37 -318 42 -132 59 -171 87 -202 32 -35 100 -77 110 -67 2 2
-5 30 -16 62 -35 100 -22 153 45 181 67 28 124 -14 151 -112 9 -36 22 -63 28
-61 20 7 47 65 52 114 5 40 -3 77 -51 228 -61 194 -83 233 -151 272 -40 23
-54 28 -54 17z"/>
<path d="M2057 2832 c-3 -4 4 -35 15 -70 18 -57 19 -67 6 -100 -9 -26 -25 -42
-50 -55 -66 -33 -123 2 -153 94 -10 30 -21 58 -25 63 -12 12 -49 -66 -56 -116
-4 -32 2 -68 24 -138 17 -52 43 -135 57 -184 21 -69 36 -98 67 -132 102 -110
281 -85 343 49 14 28 25 69 25 91 0 39 -89 347 -115 395 -25 48 -126 124 -138
103z"/>
<path d="M9716 5748 c-21 -6 -58 -29 -81 -52 -40 -38 -47 -53 -99 -216 -63
-198 -69 -256 -35 -327 11 -24 24 -43 28 -43 4 0 17 31 29 68 27 84 58 117
112 117 30 0 47 -8 70 -30 35 -34 40 -83 14 -159 -9 -26 -14 -50 -10 -53 10
-10 64 18 100 53 29 29 42 59 90 208 61 189 69 260 40 322 -44 92 -156 141
-258 112z"/>
<path d="M9385 4763 c-74 -39 -91 -66 -150 -251 -64 -196 -72 -264 -38 -329
11 -20 24 -38 29 -40 5 -2 18 25 28 59 24 81 60 118 114 118 30 0 47 -7 71
-29 37 -35 40 -71 12 -154 -11 -30 -17 -58 -14 -61 18 -18 153 93 153 127 0 6
23 82 50 167 56 175 62 230 29 297 -11 24 -24 43 -29 43 -4 0 -18 -30 -31 -67
-28 -77 -61 -107 -115 -106 -40 1 -88 40 -98 78 -3 13 3 52 14 87 28 89 28 89
-25 61z"/>
<path d="M9079 3790 c-64 -34 -93 -78 -132 -201 -72 -226 -80 -262 -73 -310 7
-50 43 -116 55 -103 5 5 18 39 30 76 24 73 34 84 81 98 39 11 90 -7 114 -41
21 -31 20 -73 -4 -144 -11 -32 -18 -60 -16 -62 10 -10 78 32 110 67 48 54 141
335 141 430 0 65 -26 134 -50 132 -5 0 -18 -27 -28 -59 -25 -79 -55 -108 -111
-108 -51 0 -80 21 -96 71 -9 27 -7 45 9 99 12 37 21 69 21 71 0 8 -15 3 -51
-16z"/>
<path d="M8782 2823 c-70 -34 -96 -78 -157 -269 -49 -153 -56 -187 -53 -236
13 -177 221 -256 353 -135 45 41 48 48 107 232 66 208 68 237 27 316 -23 46
-31 43 -49 -16 -22 -69 -40 -96 -77 -111 -47 -20 -97 -4 -124 40 -24 39 -24
59 0 129 11 31 16 59 12 61 -4 3 -21 -2 -39 -11z"/>
<path d="M6962 1095 c-18 -47 -32 -90 -32 -95 0 -11 143 -14 153 -4 5 5 -78
184 -86 184 -1 0 -17 -38 -35 -85z"/>
<path d="M4626 1298 c-3 -13 -6 -65 -6 -116 l0 -93 43 6 c74 11 107 47 107
115 0 65 -45 110 -108 110 -22 0 -31 -6 -36 -22z"/>
<path d="M4616 1019 c-3 -17 -6 -71 -6 -120 0 -78 2 -90 20 -99 47 -25 132 20
146 77 10 37 -2 102 -23 125 -22 25 -73 48 -106 48 -19 0 -26 -7 -31 -31z"/>
<path d="M5382 1056 c-23 -48 -42 -92 -42 -97 0 -5 36 -9 81 -9 l81 0 -7 27
c-3 15 -21 59 -39 97 l-32 70 -42 -88z"/>
</g>
</svg>
