<svg width="1920" height="8052" viewBox="0 0 1920 8052" fill="none" xmlns="http://www.w3.org/2000/svg">
<path fill-rule="evenodd" clip-rule="evenodd" d="M396.915 441.895C431.343 452.065 351.007 488.219 340.836 522.647L252.955 1158.63L1717 2400.22L1187.95 2852.83L532.499 3276.72L129.856 3758.06L-399.191 4210.67L232.499 5232.72L69.9985 5423.72L-97.3994 5471.22L-67.0015 5572.22L-286.407 6043.01L1126.5 6578.72L1212.71 7111.65L1614 8202.23L1497.5 8202.23L1097.29 7172.81L1039.5 6616.72L-671.593 6105.45L-288.797 5644.09L-97.3994 5413.4L-82.0015 5443.22L57.2485 5396.22L149.499 5261.72L93.9985 5182.72L-446.809 4197.79L1431 2320.22L104.046 1203.84L316.163 485.816C326.334 451.388 362.488 431.724 396.915 441.895Z" fill="#22BFE1"/>
<path fill-rule="evenodd" clip-rule="evenodd" d="M396.915 441.895C431.343 452.065 351.007 488.219 340.836 522.647L252.955 1318.63L1785 2346.22L1261.5 2778.35L737.999 3210.47L667.499 3274.72L325.499 3391.22L345.374 3534.56L214.499 3642.6L-309.001 4074.72L287.499 5180.72L105.499 5318.22L-65.5015 5509.72L-136.001 6104.22L578.499 6509.22H1038L1520.5 8202.23H1442.5L999.499 6545.72L530.499 6529.72L-236.001 6154.22L-124.001 5447.22L82.4985 5295.22L189.499 5180.72L-435.001 4108.23L107.749 3671.85L281.499 3520.72V3338.72L650.499 3235.48L1193.25 2799.1L1736 2362.72L104.046 1363.84L316.163 485.816C326.334 451.388 362.488 431.724 396.915 441.895Z" fill="#FFD910"/>
<path fill-rule="evenodd" clip-rule="evenodd" d="M1612.5 6884.5C1581.88 6865.77 1524.77 6915.12 1543.5 6884.5L-591.792 6050.24L138.208 5177.23L-352.791 4215.24L151.973 3613.21L185.502 3448.22L404.355 3312.19L656.737 3011.17L1639.71 2262.66L350.283 1468.64L-27.2919 1111.75L527.502 -31.7744L664.002 -31.7742L113.708 1111.74L397.61 1447.67L1855.71 2262.67L731.209 3011.17L522.834 3304.56L260.003 3490.22L201.002 3655.22L-61.9977 3892.72L-102.291 4184.74L216.213 5177.23L-195.292 5630.74L-39.7918 6111.22C-58.5263 6141.85 1643.12 6903.24 1612.5 6884.5Z" fill="#0E40AD"/>
</svg>
