<?xml version="1.0" encoding="UTF-8"?>
<svg id="Layer_1" data-name="Layer 1" xmlns="http://www.w3.org/2000/svg" viewBox="0 0 1101.23 385.02">
  <defs>
    <style>
      .cls-1 {
        fill: #231f20;
        font-family: Calibri-Bold, Calibri;
        font-size: 56px;
        letter-spacing: .03em;
      }

      .cls-2 {
        fill: #e82829;
      }

      .cls-2, .cls-3, .cls-4, .cls-5, .cls-6, .cls-7, .cls-8, .cls-9 {
        fill-rule: evenodd;
      }

      .cls-3 {
        fill: #19a5de;
      }

      .cls-4 {
        fill: #7f2c90;
      }

      .cls-5 {
        fill: #3f9a46;
      }

      .cls-6 {
        fill: #02509e;
      }

      .cls-7 {
        fill: #f27a21;
      }

      .cls-8 {
        fill: #03592e;
      }

      .cls-9 {
        fill: #b0d237;
      }
    </style>
  </defs>
  <g>
    <path class="cls-6" d="M89.87,13.95c4.85,.61,9.7,1.66,14.52,3.2,42.09,13.46,65.3,58.48,51.84,100.57l-33.17,103.75-19.17-6.13c-10.55-3.37-16.41-14.76-13.04-25.3l25.7-80.36-.23-.07c.57-1.28,1.07-2.58,1.5-3.9l.07-.23h0c3.7-11.61,2.04-24.76-5.65-35.4-4.08-5.64-9.35-9.88-15.23-12.65,3.71-14.39,1.54-30.19-7.13-43.46h0Z"/>
    <path class="cls-4" d="M8.7,69.41c14.16,19.59,41.52,23.98,61.11,9.82,19.59-14.16,23.98-41.52,9.82-61.11C65.46-1.46,38.1-5.86,18.52,8.3-1.07,22.47-5.46,49.83,8.7,69.41h0Z"/>
    <path class="cls-3" d="M42.73,164.15C11.63,147.82-5.39,112.65,1.53,77.84c9.89,12.39,24.21,19.4,39.04,20.39,.79,6.45,3.17,12.79,7.24,18.43,4.24,5.87,9.79,10.23,15.96,12.99,10.51,4.7,14.76,6.48,30.03,10.94l-11.82,38.34c-9.98-2.61-29.84-9.8-39.27-14.76h0Z"/>
    <path class="cls-7" d="M195.92,346.63c-4.84-.61-9.7-1.66-14.52-3.2-42.09-13.46-65.3-58.48-51.84-100.57l33.17-103.75,19.18,6.13c10.54,3.37,16.41,14.76,13.04,25.3l-25.7,80.36,.23,.07c-.57,1.28-1.07,2.58-1.5,3.9l-.08,.23h0c-3.7,11.61-2.04,24.76,5.65,35.4,4.08,5.64,9.35,9.88,15.23,12.65-3.71,14.39-1.54,30.19,7.13,43.46h0Z"/>
    <path class="cls-2" d="M277.09,291.17c-14.16-19.59-41.52-23.98-61.11-9.82-19.59,14.16-23.98,41.52-9.82,61.11,14.16,19.59,41.52,23.98,61.11,9.82,19.59-14.16,23.98-41.52,9.82-61.11h0Z"/>
    <path class="cls-5" d="M243.06,196.43c31.09,16.34,48.12,51.5,41.19,86.31-9.89-12.39-24.21-19.4-39.04-20.39-.79-6.45-3.17-12.79-7.25-18.43-4.24-5.87-9.79-10.23-15.96-12.99-10.51-4.7-14.76-6.48-30.03-10.94l11.82-38.34c9.98,2.61,29.84,9.8,39.27,14.76h0Z"/>
    <path class="cls-8" d="M98.36,91.85c-5.16-7.14-15.14-8.74-22.27-3.58-7.14,5.16-8.74,15.14-3.58,22.27,5.16,7.14,15.14,8.74,22.27,3.58,7.14-5.16,8.74-15.14,3.58-22.27h0Z"/>
    <path class="cls-9" d="M211.55,246.55c-5.16-7.14-15.14-8.74-22.27-3.58-7.14,5.16-8.74,15.14-3.58,22.28,5.16,7.14,15.14,8.74,22.27,3.58,7.14-5.16,8.74-15.14,3.58-22.27h0Z"/>
    <path d="M257.65,117.53c0-4-1.43-7.1-4.24-9.33-2.84-2.23-7.79-4.53-14.87-6.92-7.1-2.39-12.88-4.69-17.38-6.92-14.65-7.21-21.97-17.09-21.97-29.68,0-6.25,1.8-11.79,5.46-16.59,3.66-4.8,8.82-8.51,15.5-11.18,6.65-2.68,14.18-4,22.5-4s15.42,1.46,21.86,4.35c6.44,2.89,11.45,7.02,15.03,12.37,3.58,5.35,5.35,11.47,5.35,18.34h-27.16c0-4.61-1.43-8.19-4.24-10.73-2.84-2.54-6.65-3.82-11.45-3.82s-8.72,1.09-11.53,3.23c-2.83,2.15-4.24,4.9-4.24,8.21,0,2.92,1.56,5.54,4.66,7.9,3.1,2.36,8.56,4.8,16.38,7.31,7.82,2.52,14.23,5.25,19.24,8.14,12.22,7.05,18.34,16.75,18.34,29.15,0,9.88-3.74,17.65-11.18,23.29-7.45,5.64-17.67,8.48-30.66,8.48-9.17,0-17.46-1.64-24.88-4.93-7.42-3.29-13.01-7.79-16.77-13.51-3.76-5.72-5.62-12.32-5.62-19.77h27.32c0,6.04,1.56,10.52,4.69,13.38,3.13,2.89,8.21,4.32,15.26,4.32,4.5,0,8.06-.98,10.68-2.91,2.6-1.93,3.92-4.66,3.92-8.19h0Z"/>
    <polygon points="387.6 55.49 353.68 55.49 353.68 147.55 326.41 147.55 326.41 55.49 293.1 55.49 293.1 34.5 387.6 34.5 387.6 55.49 387.6 55.49"/>
    <path d="M441.05,107.64h-14.73v39.91h-27.27V34.5h44.49c13.41,0,23.88,2.97,31.45,8.93,7.55,5.96,11.32,14.36,11.32,25.23,0,7.87-1.59,14.39-4.77,19.58-3.18,5.17-8.16,9.35-14.95,12.56l23.61,45.58v1.17h-29.2l-19.95-39.91h0Zm-14.73-20.99h17.22c5.17,0,9.06-1.35,11.69-4.08,2.62-2.73,3.92-6.55,3.92-11.42s-1.32-8.72-3.98-11.5c-2.62-2.78-6.52-4.16-11.63-4.16h-17.22v31.16h0Z"/>
    <path d="M598.48,93.36c0,11.02-2.04,20.8-6.12,29.28-4.08,8.51-9.91,15.05-17.44,19.64-7.53,4.58-16.11,6.86-25.73,6.86s-18.18-2.23-25.62-6.65c-7.45-4.43-13.25-10.76-17.44-19-4.16-8.21-6.33-17.67-6.55-28.35v-6.36c0-11.08,2.01-20.85,6.1-29.33,4.05-8.45,9.88-15,17.46-19.61,7.58-4.61,16.22-6.92,25.89-6.92s18.13,2.28,25.62,6.84c7.5,4.56,13.33,11.05,17.52,19.45,4.16,8.43,6.25,18.07,6.31,28.96v5.19h0Zm-27.72-4.77c0-11.26-1.85-19.8-5.62-25.62-3.76-5.83-9.12-8.75-16.11-8.75-13.67,0-20.88,10.26-21.65,30.79l-.08,8.32c0,11.08,1.83,19.61,5.51,25.57,3.66,5.96,9.12,8.93,16.38,8.93s12.19-2.94,15.9-8.8c3.74-5.86,5.62-14.26,5.67-25.25v-5.19h0Z"/>
    <polygon points="706.97 147.55 679.88 147.55 639.82 77.19 639.82 147.55 612.58 147.55 612.58 34.5 639.82 34.5 679.8 104.86 679.8 34.5 706.97 34.5 706.97 147.55 706.97 147.55"/>
    <path d="M816.81,133.58c-4.21,4.66-10.33,8.43-18.42,11.29-8.08,2.84-16.93,4.27-26.55,4.27-14.79,0-26.63-4.53-35.48-13.59-8.85-9.06-13.57-21.65-14.2-37.81l-.08-9.78c0-11.13,1.99-20.83,5.91-29.15,3.92-8.29,9.57-14.71,16.88-19.19,7.31-4.48,15.79-6.7,25.44-6.7,14.07,0,24.99,3.23,32.78,9.67,7.79,6.44,12.35,16.06,13.65,28.83h-26.26c-.93-6.31-2.94-10.79-6.04-13.49-3.1-2.68-7.5-4.03-13.2-4.03-6.84,0-12.11,2.89-15.85,8.69-3.71,5.8-5.62,14.07-5.67,24.83v6.81c0,11.29,1.93,19.77,5.8,25.41,3.84,5.67,9.91,8.51,18.21,8.51,7.08,0,12.35-1.59,15.82-4.74v-17.52h-18.95v-18.76h46.21v46.45h0Z"/>
    <polygon points="902.72 99.53 859.87 99.53 859.87 126.56 910.48 126.56 910.48 147.55 832.6 147.55 832.6 34.5 910.64 34.5 910.64 55.49 859.87 55.49 859.87 79.34 902.72 79.34 902.72 99.53 902.72 99.53"/>
    <path d="M963.53,107.64h-14.73v39.91h-27.27V34.5h44.49c13.41,0,23.88,2.97,31.45,8.93,7.55,5.96,11.32,14.36,11.32,25.23,0,7.87-1.59,14.39-4.77,19.58-3.18,5.17-8.16,9.35-14.95,12.56l23.61,45.58v1.17h-29.2l-19.95-39.91h0Zm-14.73-20.99h17.22c5.17,0,9.06-1.35,11.69-4.08,2.62-2.73,3.92-6.55,3.92-11.42s-1.32-8.72-3.97-11.5c-2.62-2.78-6.52-4.16-11.63-4.16h-17.22v31.16h0Z"/>
    <polygon points="408.01 204.38 373.06 204.38 373.06 302.27 354.19 302.27 354.19 204.38 319.82 204.38 319.82 189.23 408.01 189.23 408.01 204.38 408.01 204.38"/>
    <path d="M509,255.92c0,13.81-4.35,25.28-13.01,34.34-8.66,9.09-19.93,13.62-33.81,13.65-13.51-.03-24.51-4.56-32.99-13.65-8.48-9.06-12.72-20.54-12.72-34.34v-20.35c0-13.75,4.21-25.2,12.69-34.32,8.45-9.09,19.48-13.65,33.02-13.65s25.07,4.56,33.79,13.65c8.69,9.12,13.04,20.56,13.04,34.32v20.35h0Zm-18.87-20.48c0-9.43-2.52-17.17-7.53-23.21-5.03-6.07-11.85-9.09-20.43-9.09s-14.89,3.02-19.66,9.09c-4.8,6.04-7.18,13.78-7.18,23.21v20.48c0,9.51,2.38,17.33,7.21,23.4,4.82,6.09,11.37,9.12,19.64,9.12s15.48-3.02,20.46-9.06c5.01-6.07,7.5-13.89,7.5-23.45v-20.48h0Z"/>
    <path d="M612.77,286.98c-3.1,4.4-8.06,8.32-14.87,11.77-6.81,3.44-15.58,5.14-26.34,5.17-13.36-.03-24.35-4.32-32.96-12.93-8.61-8.61-12.93-19.77-12.93-33.44v-23.58c0-13.67,4.19-24.8,12.51-33.42,8.32-8.64,19.05-12.93,32.14-12.93s23.4,3.31,30.74,9.94c7.34,6.62,10.92,15.26,10.71,25.92l-.21,.48h-17.94c0-6.36-1.99-11.5-5.94-15.37-3.98-3.9-9.65-5.83-17.04-5.83-7.82,0-14.12,2.92-18.92,8.77-4.77,5.86-7.18,13.28-7.18,22.29v23.74c0,9.12,2.49,16.62,7.5,22.5,4.98,5.86,11.5,8.8,19.53,8.8,6.04,0,10.84-.69,14.36-2.04,3.52-1.38,6.17-3.05,7.98-5.01v-23.37h-23.66v-14.15h42.53v42.72h0Z"/>
    <polygon points="698.95 251.42 654.69 251.42 654.69 287.22 706.87 287.22 706.87 302.27 635.83 302.27 635.83 189.23 706.31 189.23 706.31 204.38 654.69 204.38 654.69 236.29 698.95 236.29 698.95 251.42 698.95 251.42"/>
    <polygon points="802.82 204.38 767.87 204.38 767.87 302.27 749 302.27 749 204.38 714.63 204.38 714.63 189.23 802.82 189.23 802.82 204.38 802.82 204.38"/>
    <polygon points="905.43 302.27 886.56 302.27 886.56 254.07 836.03 254.07 836.03 302.27 817.16 302.27 817.16 189.23 836.03 189.23 836.03 238.91 886.56 238.91 886.56 189.23 905.43 189.23 905.43 302.27 905.43 302.27"/>
    <polygon points="992.32 251.42 948.06 251.42 948.06 287.22 1000.24 287.22 1000.24 302.27 929.2 302.27 929.2 189.23 999.68 189.23 999.68 204.38 948.06 204.38 948.06 236.29 992.32 236.29 992.32 251.42 992.32 251.42"/>
    <path d="M1036.09,255.37v46.9h-18.87v-113.04h38.9c12.59,0,22.31,2.86,29.2,8.56,6.86,5.67,10.31,13.81,10.31,24.38,0,5.83-1.51,10.86-4.53,15.08-3.02,4.24-7.45,7.61-13.25,10.15,6.39,2.01,10.97,5.3,13.78,9.86,2.84,4.56,4.24,10.2,4.24,16.91v9.41c0,3.31,.42,6.55,1.25,9.7,.82,3.15,2.2,5.57,4.11,7.23v1.78h-19.4c-2.07-1.7-3.39-4.37-3.97-8-.56-3.6-.85-7.23-.85-10.86v-9.09c0-5.78-1.67-10.39-5.01-13.81-3.34-3.42-7.87-5.14-13.62-5.14h-22.29Zm0-15.13h19.03c7.55,0,13.06-1.46,16.54-4.35,3.47-2.89,5.19-7.31,5.19-13.28s-1.7-10.15-5.11-13.38c-3.42-3.23-8.61-4.85-15.61-4.85h-20.03v35.85h0Z"/>
  </g>
  <text class="cls-1" transform="translate(314.59 365.47) scale(1.07 1)"><tspan x="0" y="0">Reuni Akbar UBAYA 55 Tahun</tspan></text>
</svg>